<?xml version="1.0" encoding="UTF-8"?>
<svg xmlns="http://www.w3.org/2000/svg" version="1.1" viewBox="0 0 110.4 239.4">
  <defs>
    <style>
      .cls-1 {
        fill: #003765;
      }
    </style>
  </defs>
  <!-- Generator: Adobe Illustrator 28.6.0, SVG Export Plug-In . SVG Version: 1.2.0 Build 709)  -->
  <g>
    <g id="Layer_1">
      <g>
        <polygon class="cls-1" points="54 216.3 56.4 216.3 56.5 215.8 54.1 215.8 54 216.3"/>
        <g>
          <path class="cls-1" d="M92,184.2c-.4-.7-1.6-3.1-2.2-4.3-.5-1.2-.8-1.8-.9-2,0,0,0,0,0,0,0,.1-.5,1-.1,2,.4,1.2,1.1,2.1,1.7,3.4.7,1.2,2.2,4.2,2.7,5.5.3.7.4,1.1.5,1.4,0,0,0,0,0,0,0-.5.1-1.2,0-2.1-.3-1.5-1.4-3.4-1.7-4.1Z"/>
          <path class="cls-1" d="M81.3,181c-.5-.3-.9-.7-1-.9-.3-.5.6-.8.8-.7,0,0,.2.5.2.5,0,0,0,.5,0,1.1ZM82.6,182.1c0-.1-.3-.4-.8-.8.1-.5.2-1,.2-1.4,0-1.3-.2-1.8-.4-1.9-.2,0-.7,0-1.1.5-.4.5-1,1.4-1.1,1.9,0,.5.2,1,.5,1.2.3.3.5.4.8.6,0,0,.2.1.3.2,0,0-1.4,1.9-4.4,4,0,0-.9.6-1,.7-.1.1,0,.2.1.1.2,0,2.5-1.1,3.2-1.7.7-.6,1.3-.9,2.5-2.8.3.2.6.5.8.7,0-.1.2-.4.2-.6.1-.4.2-.6.2-.8Z"/>
          <path class="cls-1" d="M63.7,182.6c0-.1-.3-.5-.6-.7.2-.4.3-.9.4-1.3.2-1.2,0-1.7-.2-1.8-.2,0-.6,0-1.1.3-.5.4-1.1,1.2-1.3,1.6-.2.5,0,.9.3,1.2.3.3.4.5.7.6,0,0,0,0,0,0,0,0-1.1,1.1-2.8,2,0,0-.6.3-.7.4,0,0,0,.1,0,0,.1,0,1.3-.4,2-.8.5-.2.8-.3,1.7-1.4,0,0,.2.1.2.2.3.3.5.5.6.8,0,0,0,0,0,0,0-.1.2-.3.3-.5.1-.2.2-.5.3-.6,0,0,0-.1,0-.2ZM62.7,181.5c-.4-.4-.7-.8-.8-.9,0-.2,0-.4.2-.5.2,0,.4-.2.5,0,0,0,0,0,0,0,0,0,0,.1,0,.4,0,0,0,.4,0,1Z"/>
          <path class="cls-1" d="M28.9,176.9c-.1-.1-.5-.3-1-.1-.5.1-1.4.5-1.7.9-.3.3-.3.8-.2,1.1.1.3.2.5.3.8,0,0,0,0,0,0,0,0-1.3.5-3.1.6,0,0-.6,0-.7,0,0,0,0,0,0,.1.1,0,1.2.1,1.9.1.5,0,.8,0,2-.5,0,0,0,.2.1.3.1.3.2.6.2.9,0,0,0,0,0,0,0,0,.3-.2.4-.3.2-.1.4-.3.5-.4,0,0,0,0,0-.1,0-.2,0-.5-.2-.8.3-.3.6-.6.8-.9.6-.9.7-1.4.5-1.6ZM27.8,178.1s0,.3-.4.8c-.2-.4-.3-.9-.3-1.1,0-.2.1-.3.4-.3.2,0,.4,0,.5.1,0,0,0,0,0,0,0,0,0,.2,0,.4Z"/>
          <path class="cls-1" d="M76,192.4c-.2,1.9-.8,2.5-1,2.7,0,0,0,0,0,0-.2,0-1.2,0-1.7-.2-.6-.3-1-.3-1-.3,0,0-3.3,1.9-6.8,2.1-3.4.2-6.2-.8-6.9-3.1,0,.4.3,1.9,0,3.9,0,0-.3,1.1-.5,1.6,0,0-.4.5-1.7,1.2-1.3.7-3.2.5-4,.2-.7-.3-1.7-.9-1.7-2.5,0-1.6.3-3,1.5-4.6,0,0,.2-.6.1-3.3,0-2.7,0-4.3-.1-5,0-.7-.1-.9.2-1.5.2-.5.5-1.1.8-1.5,0,0,0,0,0,0,0,.4-.1,1.6-.1,2.7,0,1.4.2,4.8,0,6.3s-.5,1.8-1,2.8c-.5.9-1.4,2.5-.5,3.7.9,1.2,2.7,1.3,3.4,1.2.7-.1,1.9-.4,3.2-1.3,0-1-.5-5-.9-7.7-.4-2.8-.4-4.8-.4-5.3,0-.4,0-.8.3-1.3.2-.4.3-.6.4-.7,0,0,0,0,0,0,.1,4.2.6,7,.6,7,.3,2.9,2.7,5.6,7.2,5.4,4.6-.3,6.4-1.7,6.4-1.7,0,0,.2-.5.3-.9,0-.2.2-.8.4-.4.2.3.1.9.1,1,.4,0,.6.1.9.2.6.2,1.6,0,1.6,0,0,0-.1-.5-.5-.8,0,0,0,0,0-.1,0-.3-.1-1.3.5-2,0,0,0,0,0,0,.4.4.7,1.1.6,1.9Z"/>
          <path class="cls-1" d="M72.6,180.9s.2-.2.2-.2c0,0-.3,0-.3,0,0,0-.7.4-1.4,1.8,0,0-.3.5-.2,1,.1.5.7.6.9.6.2,0,.9.2,1.5-.1.6-.3,1.3-1.8,1.4-2.1.1-.3.2-.5.1-.5,0,0-.2.3-.3.4,0,0-.1.2-.2.2,0,0-.2.1-.3.1-.3,0-1,0-1.6-.1,0,0-.2,0-.2-.3,0-.1,0-.3,0-.4.3-.4.5-.6.5-.6Z"/>
          <path class="cls-1" d="M42,179.3s.2-.1.2-.2c0,0-.3,0-.3,0,0,0-.7.3-1.6,1.7,0,0-.3.4-.3.9,0,.5.6.7.8.7.1,0,.8.3,1.5,0,.7-.2,1.5-1.6,1.7-1.9.2-.3.2-.5.2-.5,0,0-.3.2-.4.4,0,0-.2.2-.2.2,0,0-.2,0-.3,0-.3,0-1,0-1.6-.3,0,0-.2,0-.2-.3,0-.1,0-.3.1-.4.3-.3.6-.5.6-.5Z"/>
          <path class="cls-1" d="M64.5,190.3c.2,0,.9.2,1.5,0,.7-.3,1.4-1.8,1.5-2.1.1-.3.2-.5.1-.5,0,0-.2.2-.4.4,0,0-.2.2-.2.2,0,0-.2.1-.3.1-.3,0-1,0-1.6-.2,0,0-.2,0-.2-.3,0-.1,0-.3,0-.4.3-.4.5-.5.5-.5,0,0,.2-.2.2-.2,0,0-.3,0-.3,0,0,0-.7.4-1.5,1.8,0,0-.3.5-.2.9,0,.5.7.6.8.7Z"/>
          <path class="cls-1" d="M43.2,185.2c.2.2.7.8.9,1,.1.2.2.2.2.1,0,0,.8-.7.9-.8.1-.1.5-.4.5-.6,0-.1-.2-.3-.4-.5-.1-.1-.6-.8-.6-.8,0,0,0-.1-.5.1-.4.3-1.2,1.2-1.2,1.2,0,.1,0,.1.2.3Z"/>
          <path class="cls-1" d="M34.9,182.8c0,0,0-.1-.4.2-.4.3-1.1,1.2-1.1,1.2,0,.1,0,.1.2.3.2.2.8.8.9.9.1.2.2.2.3,0,0,0,.7-.8.9-.9.1-.1.4-.4.4-.6,0-.1-.2-.3-.4-.4-.2-.1-.7-.7-.7-.8Z"/>
          <path class="cls-1" d="M86.4,197c-.8,0-1.5-.2-1.7-.3,0,0,0,0,0,0,0,.1-.2.5-.3,1.1,0,.5,0,.7,0,.9,0,0,0,0,0,.1.1,0,.4.2.8.2.4,0,1,.1,1.2.1,0,0,0,0,0,0,.2-.9.1-1.4.2-2,0,0,0,0,0,0Z"/>
          <path class="cls-1" d="M88.9,195.2c-.9,0-1.6-.2-1.8-.3,0,0,0,0,0,0,0,.1-.2.5-.3,1.1,0,.5,0,.8-.1.9,0,0,0,0,0,.1.1,0,.5.2.8.2.4,0,.9,0,1.2.1,0,0,0,0,.1,0,.2-.9.2-1.4.2-2,0,0,0,0,0,0Z"/>
          <path class="cls-1" d="M63.4,199.3s0,0,0,0c-.1,0-.4.3-.8.8-.3.4-.5.6-.5.7,0,0,0,0,0,.1,0,.1.3.4.5.6.3.3.8.6.9.7,0,0,0,0,0,0,.6-.7.8-1.1,1.2-1.6,0,0,0,0,0-.1-.7-.4-1.2-1-1.3-1.1Z"/>
          <path class="cls-1" d="M66.4,199s-.6.4-1.4,1.5c0,0,0,0,0,.1,0,.1.3.4.6.6.3.2.8.6.9.7,0,0,0,0,.1,0,.6-.7.8-1.1,1.2-1.6,0,0,0,0,0,0-.8-.4-1.3-1-1.4-1.2,0,0,0,0,0,0Z"/>
          <path class="cls-1" d="M24.2,196.4s0,0,0,0c-.1,0-.5.2-1,.5-.4.3-.6.5-.7.5,0,0,0,0,0,.1,0,.1.2.4.4.7.2.3.6.8.7.9,0,0,0,0,0,0,.8-.5,1.1-.9,1.6-1.3,0,0,0,0,0-.1-.6-.6-.9-1.3-.9-1.4Z"/>
          <path class="cls-1" d="M27.1,196.9s0,0,0,0c-.1,0-.5.2-1,.5-.4.3-.6.5-.7.5,0,0,0,0,0,.1,0,.1.2.4.4.7.2.3.6.7.7.9,0,0,0,0,.1,0,.8-.5,1.1-.8,1.6-1.2,0,0,0,0,0-.1-.6-.6-.9-1.3-1-1.5Z"/>
          <path class="cls-1" d="M36.6,179.3c-.1,0-.5.3-.6.6-.2.2-.5.4-1,.3,0,0,.1-.2.2-.3,0-.1.2-.5-.1-.2-.3.2-.7.6-1.2.7-.5,0-.9.1-.9-.3s0-.3.1-.4c0,0-.2,0-.4.3-.3.4-.8,1.1-.8,1.1,0,0-.2.2,0,.6.2.3.3.4.9.3.6,0,.8-.2.9-.3,0,0,.2.3,1,.1.8-.2,1.3-.9,1.7-1.5.4-.6.6-.9.4-.9Z"/>
          <path class="cls-1" d="M23,182.7c-.3.4-.8,1.1-.8,1.1,0,0-.2.2,0,.6.2.3.3.4.9.3.6,0,.8-.2.9-.3,0,0,.2.3,1,.1.8-.2,1.3-.9,1.7-1.5.4-.6.6-.9.4-.9-.1,0-.5.3-.6.6-.2.2-.5.4-1,.3,0,0,.1-.2.2-.3,0-.1.2-.5-.1-.2-.3.2-.7.6-1.2.7-.5,0-.9.1-.9-.3s0-.3.1-.4c0,0-.2,0-.4.3Z"/>
          <path class="cls-1" d="M46.5,198.1c0,0-.1,0-.3.1,0,0-1.6.9-4.9,1.5-.1,0-.2,0-.4,0-.3,0-1.1,0-1.2,0-.1,0-.2,0,0,.2.1.2,1,.3,1.8.3.8,0,2.3,0,3.1-.3.8-.3,1.8-1.7,1.9-1.8s0-.2,0-.2Z"/>
          <path class="cls-1" d="M36.8,197.4c0,0,.1-.2,0-.2,0,0-.1,0-.4,0,0,0-1.7.7-5.1.9-.1,0-.2,0-.4,0-.3,0-1.1,0-1.2,0-.1,0-.2,0,0,.2,0,.2.9.4,1.7.5.8.1,2.3.3,3.2,0,.9-.2,2-1.5,2.1-1.5Z"/>
          <path class="cls-1" d="M89.4,188.9c-.3-1.4-1.4-3.6-2-4.7-.6-1.2-1.6-3-1.6-3,0,0,.2,0,.3,0,0,0,0-.1,0-.6,0-.5,0-1.1,0-1.4-.1-.3-.5-.3-.8-.5-.3-.2-.5-.4-.6-.4,0,0-.1,0-.1.1-.4,1.5,0,2.4,0,2.4.1.2,1.4,2.9,2.9,5.5.8,1.4,1.3,2.3,1.5,2.9,0,0-.2.2-.6.3-.6.1-1.5.2-2.2,0,0,0-.4-.2-.6-.2-.2,0-.7,1-.6,1,0,0-1.2,1.3-2.7,1.8,0,0-.7-1.5-1.7-2.6,0,0-.5-.5-.9-.3-.4.3-.6,1.3-.7,1.5,0,.2-.3,1.4-.2,2.3,0,0,.2,1.8,2.9,1.2,0,.2-.3.8-.6,1.3-.6.9-2,2.4-3.9,3,0,0-1.4.3-2.4.2h0c0,0,0-.1,0-.1,0-.1.3-.5.2-.7,0-.1-.3-.2-.5-.3-.2,0-.9-.4-.9-.5s-.1-.1-.4.3c-.2.4-.6,1.5-.6,1.5,0,.1,0,.1.3.2.3,0,1,.5,1.2.6.2.1.2,0,.3,0,0,0,.3-.6.4-.9.1,0,.3,0,.6.2.6.2,2.4.4,3.2.3.8,0,1.4-.2,2.1-.9.6-.7,1.6-2.5,1.9-4.5,1.6-.8,2-1.5,2.3-2,.3-.5.8-1.4.9-1.5,4.9,2,3.9-1.7,3.9-1.7ZM79.3,192c0-.5.2-.7.5-.7.4,0,.5.3.6.9-.5,0-1.1-.2-1.1-.3Z"/>
          <path class="cls-1" d="M29.5,192.2c6.8,3.9,13.8,2,13.8,2,.4.5,1.1,1,1.3,1.3.4.5,1.1.9,2.1.7.9-.2,1.4-1.1,1.4-1.2h0s.4-.9.6-2.3c.1-1.2.1-5.4.1-6.5,0-.6,0-1,0-1.3.2.3.2.3.5-.1.3-.5.6-.7.8-1.1.2-.4-.2-.7-.5-1-.2-.3-.3-.8-.3-.8,0,0,0-.2,0-.2,0,0-.2.1-.7,1s-.5.7-.4.9c0,0,0,0,0,.1,0,0-.2.4-.2,1.3,0,1-.1,5.6,0,8.5,0,.4,0,.8,0,1.2-.1,0-.4,0-.9,0-.7,0-1.9-.5-2.5-1,.4-.2.5-.3.5-.3.7-.7.9-1.6,1.1-2.1.1-.5,0-1.1-.1-1.7-.1-.5-.6-.4-.6-.4-1.2.2-2.2,1-2.9,1.7-.7.7-.7,1.4-.6,1.7,0,.2.3.4.5.7-1.2.1-2.9.2-5,0,0,0,1-.5,1.9-1.3.9-.8,1.3-1.4,1.4-2.3.1-.9-.9-1.2-1.4-1.4-.5-.1-1.4-.1-2.4.3-1,.5-3.5,1.6-5.7,2.1,0,0-1.3-.7-2.1-1.9,0,0-.7-1.1-.8-1.6s-.7-.4-1.1-.3c-.4,0-2.3.3-3.8,1.8-1.5,1.5.3,2.6.5,2.8.3.2,1,.6,1.9,1,.9.3.7.8.4,1-.3.2-4.9.7-7.2-1.4,0,0-2-1.8-.7-4.5,0,0,1.2-2.2,3-3,0,0,.3-.2.3-.2,0,0-.3,0-.4,0,0,0-1.9.8-3.4,2.8-1.5,1.9-1.4,3.6-1,4.9s2.4,2.6,4.7,2.9c2.3.3,3.6,0,4.3-.1.7-.2,1.9-1.9,2-2.3.1-.4.3-.7-.2-1s-2.8-1.2-3.1-2.4c0,0-.1-.6.1-.8.3-.2,1-.6,1.3-.6.3,0,.8,0,1,.3.2.3,1.1,2.9,2,3.7-.5.5-1.1,1.8-.6,1.2.5-.6,1.1-.8,1.1-.8ZM32.6,191.5s1.8-.5,3.2-1.2c1.1-.5,2.4-.5,2.9-.2,0,0,.4.2.4.7s-.5.9-.5.9c0,0-2.6.8-6-.3ZM42.6,191.6s.4-.4,1.2-.5c.8,0,1,0,1.1.3.1.3.2.8,0,1.3,0,0-.4.2-1.1.3-.4-.4-.9-.9-1.2-1.5Z"/>
        </g>
        <g>
          <path class="cls-1" d="M85.6,76.4c0,.2,0,.2,0,.3,2.6-2.7,8.3-8.7,8.4-16.2,0-7.6-5.7-13.8-15-16.7.4.6,1.3,2.7,1.6,3.4,9,2.4,12.9,5.7,12.9,13.3s-7.8,9.8-7.8,15.1,0,.6,0,.8Z"/>
          <path class="cls-1" d="M24.8,75.6c0-5.4-7.8-7.3-7.8-15.1s3.9-10.9,12.9-13.3c.3-.8,1.2-2.8,1.6-3.4-9.3,2.9-15.1,9.1-15,16.7,0,7.6,5.8,13.6,8.4,16.2,0-.1,0-.2,0-.3,0-.3,0-.4,0-.8Z"/>
          <path class="cls-1" d="M55.2,31.7c.6,0,1.3,0,1.9,0l1.8-1.2-3.7-9.7h0l-3.7,9.7,1.8,1.2c.6,0,1.2,0,1.9,0Z"/>
          <path class="cls-1" d="M82.2,85.3c0,.2,0,.4,0,.6-.3,6.4-3.8,9.1-10,9.8-1.9.2-4,0-5.8,0-3-.2-5.8-.7-9.1-1.4-1-.2-2.1-.4-3.1-.6,12.8-10.8,25.6-21.2,25.5-39.2,0-11.2-10.4-21.5-24.1-21.5h-.5c-13.7,0-24.1,10.4-24.1,21.5,0,9.3,5.3,17.3,13.6,22.7h0c-5.3-5.9-6.3-13.9-6.4-22.7,0-11,5.8-19.8,14.9-20.9.7,0,1.5-.1,2.2-.1s1.5,0,2.2.1c9.1,1.2,14.4,9.7,14.6,20.9.2,19.2-10.8,32.3-19.2,38.9-1.4-.3-2.9-.6-4.3-.9-2.1-.4-4.3-.9-6.4-1-3.7-.3-7.9,0-10.7,2.7h0c-.1.1-2.2,2-2.1,4.9,0,2.3,2.1,5.2,7.4,4.3l-5.4,23.7,1.4.6c8.2-8.4,17.8-12.8,24.2-12.8,11.5,0,17.6,7.9,17.6,23.9s-7.4,28.3-20.3,28.3-17.8-5.9-21.3-10.8l-.2.2c4.4,6.4,12.7,11.3,22.7,11.3,15.5,0,26.6-12.3,26.6-29s-10-24.7-25-24.7-9.3,2.2-11.8,3c-1.4.5-2.9.6-3.7.6-3.5,0-5.6-1.9-5.6-5.7s.2-2.3.5-3.4l1.2-5.4c.8-.2,1.6-.4,2.5-.7,3.6-1.3,7.6-4,10.6-6.1l2.8,1.7c6.3,3.9,9.8,6,14.5,6.6,4.9.6,8.7-.7,11.5-4.8,1.7-2.4,2.8-6.2,3.2-11,0-1.2.1-2.4.1-3.6-.2,0-.2,0-.3,0ZM39.5,102c-5.3,2-9.6.7-9.6-2.8s1.7-5.9,8-6.3c.5,0,.9,0,1.4,0,3.3,0,6.8,1.3,10.2,3.1-3.5,2.6-6.6,4.8-10.1,6Z"/>
        </g>
        <g>
          <path class="cls-1" d="M32.1,211.5c.2.4.4.8.7,1.1.3.3.6.5,1.2.5s.5,0,.7-.2.2-.3.2-.6,0-.2,0-.3c0-.1,0-.2,0-.3h.4c0,.2,0,.3,0,.4s0,.2,0,.4c0,.4-.1.8-.3,1.1-.2.4-.6.5-1.2.5s-.3,0-.4,0h-.2c.2.4.3.8.4,1.2,0,.4.1.8.1,1.2s0,.6-.1,1-.2.6-.3.9l-.3.2c0,0,0-.2,0-.4s0-.4,0-.6c0-.8-.2-1.6-.6-2.6-.4-1-.7-1.7-1.1-2.3l.5-1.1Z"/>
          <path class="cls-1" d="M39.4,216c-.1-.2-.4-.3-.6-.5-.3-.2-.6-.2-.8-.3l.8-1.4c.3,0,.6.2.8.3.2.1.5.3.7.4l-.9,1.4Z"/>
          <path class="cls-1" d="M43.4,211.5c.2.4.4.8.7,1.1.3.3.6.5,1.2.5s.5,0,.7-.2.2-.3.2-.6,0-.2,0-.3c0-.1,0-.2,0-.3h.4c0,.2,0,.3,0,.4s0,.2,0,.4c0,.4-.1.8-.3,1.1-.2.4-.6.5-1.2.5s-.3,0-.4,0h-.2c.2.4.3.8.4,1.2,0,.4.1.8.1,1.2s0,.6-.1,1-.2.6-.3.9l-.3.2c0,0,0-.2,0-.4s0-.4,0-.6c0-.8-.2-1.6-.6-2.6-.4-1-.7-1.7-1.1-2.3l.5-1.1Z"/>
          <path class="cls-1" d="M50.9,212.5c-.4.1-.7.3-1.1.6s-.6.4-.6.6.2.3.5.5.9.4,1.8.5l-.4.9c-.6.3-1.1.5-1.3.8s-.3.4-.3.5c0,.2.2.3.5.5s.8.2,1.5.2.3,0,.5,0c.2,0,.3,0,.5,0v.2s-.6.9-.6.9c-.1,0-.2,0-.4,0s-.3,0-.4,0c-.5,0-1,0-1.5-.3s-.7-.5-.7-1,0-.4.3-.8.5-.7.9-1.1c-.3,0-.6-.2-.9-.4s-.5-.4-.5-.6,0-.5.1-.7.2-.5.5-.9c.2-.4.6-.7,1.2-1l.8-.4h.2c0,.1-.4,1.2-.4,1.2Z"/>
          <path class="cls-1" d="M59.4,211.5c.4.7.7,1.4,1,2.3s.4,1.7.4,2.4,0,.5,0,.7c0,.2,0,.5-.1.7,0,.2,0,.3-.1.5s-.1.3-.2.4l-.3.2c0-.2,0-.4,0-.6s0-.5,0-.6c0-.7,0-1.4-.3-2.3s-.5-1.7-1-2.5l.6-1.1Z"/>
          <path class="cls-1" d="M66.9,218.6c-.3-.4-.5-.8-.6-1.3s-.2-.9-.2-1.3,0-.3,0-.4c0,0,0-.2,0-.4-.2,0-.3,0-.5.1-.2,0-.4,0-.6,0-.5,0-.9,0-1.2-.3s-.5-.5-.5-1,.2-1.2.5-1.8.8-.9,1.4-.9.7.2,1,.5c.3.4.4.9.4,1.8s0,.5,0,.7c0,.2,0,.4,0,.7,0,.6,0,1.1.2,1.5.1.4.3.7.6,1l-.6,1.1ZM65.9,213c-.2-.4-.5-.6-.8-.6s-.7.1-.9.4-.3.5-.3.6c0,.3.1.5.4.6.3.1.6.2,1,.2s.3,0,.4,0c.2,0,.3,0,.5,0,0-.4,0-.8-.3-1.2Z"/>
          <path class="cls-1" d="M72.5,218.6c-.3-.4-.5-.8-.6-1.3s-.2-.9-.2-1.3,0-.3,0-.4c0,0,0-.2,0-.4-.2,0-.3,0-.5.1-.2,0-.4,0-.6,0-.5,0-.9,0-1.2-.3s-.5-.5-.5-1,.2-1.2.5-1.8.8-.9,1.4-.9.7.2,1,.5c.3.4.4.9.4,1.8s0,.5,0,.7c0,.2,0,.4,0,.7,0,.6,0,1.1.2,1.5.1.4.3.7.6,1l-.6,1.1ZM71.5,213c-.2-.4-.5-.6-.8-.6s-.7.1-.9.4-.3.5-.3.6c0,.3.1.5.4.6.3.1.6.2,1,.2s.3,0,.4,0c.2,0,.3,0,.5,0,0-.4,0-.8-.3-1.2Z"/>
          <path class="cls-1" d="M78.2,218.6c-.3-.4-.5-.8-.6-1.3s-.2-.9-.2-1.3,0-.3,0-.4c0,0,0-.2,0-.4-.2,0-.3,0-.5.1-.2,0-.4,0-.6,0-.5,0-.9,0-1.2-.3s-.5-.5-.5-1,.2-1.2.5-1.8.8-.9,1.4-.9.7.2,1,.5c.3.4.4.9.4,1.8s0,.5,0,.7c0,.2,0,.4,0,.7,0,.6,0,1.1.2,1.5.1.4.3.7.6,1l-.6,1.1ZM77.2,213c-.2-.4-.5-.6-.8-.6s-.7.1-.9.4-.3.5-.3.6c0,.3.1.5.4.6.3.1.6.2,1,.2s.3,0,.4,0c.2,0,.3,0,.5,0,0-.4,0-.8-.3-1.2Z"/>
        </g>
      </g>
    </g>
  </g>
</svg>