<svg width="30" height="30" viewBox="0 0 30 30" fill="none" xmlns="http://www.w3.org/2000/svg">
<g clip-path="url(#clip0_581_4521)">
<path d="M10.8557 22.6276L18.6421 9.14114L20.3577 15.5438C20.3862 15.6579 20.4371 15.7652 20.5074 15.8594C20.5778 15.9536 20.6662 16.0329 20.7675 16.0925C20.8688 16.1522 20.981 16.1911 21.0975 16.207C21.214 16.2228 21.3325 16.2153 21.4461 16.1849C21.5597 16.1544 21.6661 16.1017 21.759 16.0297C21.852 15.9577 21.9297 15.8679 21.9876 15.7656C22.0455 15.6633 22.0825 15.5504 22.0963 15.4337C22.1101 15.3169 22.1006 15.1985 22.0682 15.0855L19.7993 6.61795C19.7385 6.39115 19.5901 6.19779 19.3867 6.08039C19.1834 5.96298 18.9417 5.93115 18.7149 5.99189L10.2473 8.26076C10.0241 8.32474 9.83501 8.47383 9.72066 8.67592C9.60632 8.878 9.57592 9.11691 9.63602 9.34119C9.69611 9.56547 9.84189 9.75717 10.042 9.87501C10.242 9.99285 10.4804 10.0274 10.7057 9.97121L17.1083 8.25561L9.32191 21.7421C9.20448 21.9455 9.17266 22.1872 9.23345 22.4141C9.29423 22.6409 9.44265 22.8343 9.64604 22.9518C9.84943 23.0692 10.0911 23.101 10.318 23.0402C10.5448 22.9794 10.7383 22.831 10.8557 22.6276Z" fill="#fff"/>
</g>
<defs>
<clipPath id="clip0_581_4521">
<rect width="21.2526" height="21.2526" fill="white" transform="translate(29.0312 10.6265) rotate(120)"/>
</clipPath>
</defs>
</svg>
