<svg id="Layer_1" viewBox="0 0 64 64" xmlns="http://www.w3.org/2000/svg" data-name="Layer 1"><path d="m56.45 25.978v-14.458c0-1.77-1.44-3.21-3.21-3.21h-42.48c-1.77 0-3.21 1.44-3.21 3.21v14.458c-3.074.086-5.55 2.607-5.55 5.702v16.97s0 .003 0 .005v6.035c0 .552.448 1 1 1h6.147c.552 0 1-.448 1-1v-5.04h43.706v5.04c0 .552.448 1 1 1h6.147c.552 0 1-.448 1-1v-6.04-16.97c0-3.095-2.476-5.616-5.55-5.702zm-46.9-14.458c0-.667.543-1.21 1.21-1.21h42.48c.667 0 1.21.543 1.21 1.21v14.45h-3.67v-5.68c0-1.539-1.256-2.79-2.8-2.79h-11.79c-1.544 0-2.8 1.251-2.8 2.79v5.68h-3.28v-5.68c0-1.539-1.256-2.79-2.8-2.79h-11.79c-1.544 0-2.8 1.251-2.8 2.79v5.68h-3.17zm39.23 14.45h-13.39v-5.68c0-.443.351-.79.8-.79h11.79c.441 0 .8.354.8.79zm-20.67 0h-13.39v-5.68c0-.436.359-.79.8-.79h11.79c.449 0 .8.347.8.79zm-20.4 2h48.58c2.046 0 3.71 1.665 3.71 3.71v15.969h-5.147s-.002 0-.002 0h-45.701s-.002 0-.002 0h-5.148v-15.969c0-2.046 1.664-3.71 3.71-3.71zm.438 25.72h-4.147v-4.04h4.147zm47.705 0v-4.04h4.147v4.04z"/></svg>