<?xml version="1.0" encoding="iso-8859-1"?>
<!-- Generator: Adobe Illustrator 19.0.0, SVG Export Plug-In . SVG Version: 6.00 Build 0)  -->
<svg version="1.1" id="Capa_1" xmlns="http://www.w3.org/2000/svg" xmlns:xlink="http://www.w3.org/1999/xlink" x="0px" y="0px"
	 viewBox="0 0 512 512" style="enable-background:new 0 0 512 512;" xml:space="preserve">
<g>
	<g>
		<g>
			<path d="M503.467,494.933h-34.133v-281.6c0-4.713-3.821-8.533-8.533-8.533H315.733V8.533c0-4.713-3.821-8.533-8.533-8.533h-256
				c-4.713,0-8.533,3.821-8.533,8.533v486.4H8.533c-4.713,0-8.533,3.821-8.533,8.533S3.821,512,8.533,512H51.2h256h153.6h42.667
				c4.713,0,8.533-3.821,8.533-8.533S508.179,494.933,503.467,494.933z M298.667,213.333v281.6H59.733V17.067h238.933V213.333z
				 M452.267,494.933H315.733V221.867h136.533V494.933z"/>
			<path d="M102.4,119.467h51.2c4.713,0,8.533-3.821,8.533-8.533v-51.2c0-4.713-3.821-8.533-8.533-8.533h-51.2
				c-4.713,0-8.533,3.821-8.533,8.533v51.2C93.867,115.646,97.688,119.467,102.4,119.467z M110.933,68.267h34.133V102.4h-34.133
				V68.267z"/>
			<path d="M204.8,119.467H256c4.713,0,8.533-3.821,8.533-8.533v-51.2c0-4.713-3.821-8.533-8.533-8.533h-51.2
				c-4.713,0-8.533,3.821-8.533,8.533v51.2C196.267,115.646,200.087,119.467,204.8,119.467z M213.333,68.267h34.133V102.4h-34.133
				V68.267z"/>
			<path d="M102.4,221.867h51.2c4.713,0,8.533-3.821,8.533-8.533v-51.2c0-4.713-3.821-8.533-8.533-8.533h-51.2
				c-4.713,0-8.533,3.821-8.533,8.533v51.2C93.867,218.046,97.688,221.867,102.4,221.867z M110.933,170.667h34.133V204.8h-34.133
				V170.667z"/>
			<path d="M204.8,221.867H256c4.713,0,8.533-3.821,8.533-8.533v-51.2c0-4.713-3.821-8.533-8.533-8.533h-51.2
				c-4.713,0-8.533,3.821-8.533,8.533v51.2C196.267,218.046,200.087,221.867,204.8,221.867z M213.333,170.667h34.133V204.8h-34.133
				V170.667z"/>
			<path d="M102.4,324.267h51.2c4.713,0,8.533-3.821,8.533-8.533v-51.2c0-4.713-3.821-8.533-8.533-8.533h-51.2
				c-4.713,0-8.533,3.821-8.533,8.533v51.2C93.867,320.446,97.688,324.267,102.4,324.267z M110.933,273.067h34.133V307.2h-34.133
				V273.067z"/>
			<path d="M204.8,324.267H256c4.713,0,8.533-3.821,8.533-8.533v-51.2c0-4.713-3.821-8.533-8.533-8.533h-51.2
				c-4.713,0-8.533,3.821-8.533,8.533v51.2C196.267,320.446,200.087,324.267,204.8,324.267z M213.333,273.067h34.133V307.2h-34.133
				V273.067z"/>
			<path d="M102.4,426.667h51.2c4.713,0,8.533-3.821,8.533-8.533v-51.2c0-4.713-3.821-8.533-8.533-8.533h-51.2
				c-4.713,0-8.533,3.821-8.533,8.533v51.2C93.867,422.846,97.688,426.667,102.4,426.667z M110.933,375.467h34.133V409.6h-34.133
				V375.467z"/>
			<path d="M204.8,426.667H256c4.713,0,8.533-3.821,8.533-8.533v-51.2c0-4.713-3.821-8.533-8.533-8.533h-51.2
				c-4.713,0-8.533,3.821-8.533,8.533v51.2C196.267,422.846,200.087,426.667,204.8,426.667z M213.333,375.467h34.133V409.6h-34.133
				V375.467z"/>
			<path d="M358.4,324.267h51.2c4.713,0,8.533-3.821,8.533-8.533v-51.2c0-4.713-3.821-8.533-8.533-8.533h-51.2
				c-4.713,0-8.533,3.821-8.533,8.533v51.2C349.867,320.446,353.688,324.267,358.4,324.267z M366.933,273.067h34.133V307.2h-34.133
				V273.067z"/>
			<path d="M358.4,426.667h51.2c4.713,0,8.533-3.821,8.533-8.533v-51.2c0-4.713-3.821-8.533-8.533-8.533h-51.2
				c-4.713,0-8.533,3.821-8.533,8.533v51.2C349.867,422.846,353.688,426.667,358.4,426.667z M366.933,375.467h34.133V409.6h-34.133
				V375.467z"/>
		</g>
	</g>
</g>
<g>
</g>
<g>
</g>
<g>
</g>
<g>
</g>
<g>
</g>
<g>
</g>
<g>
</g>
<g>
</g>
<g>
</g>
<g>
</g>
<g>
</g>
<g>
</g>
<g>
</g>
<g>
</g>
<g>
</g>
</svg>
