<svg id="Layer_1" enable-background="new 0 0 1024 1024" viewBox="0 0 1024 1024" xmlns="http://www.w3.org/2000/svg"><g id="XMLID_2704_"><g id="XMLID_2762_"><g id="XMLID_60_"><path id="XMLID_64_" d="m932.9 655.6c-17.1 0-34.2 0-51.3 0-7.8 0-15.4 6.9-15 15s6.6 15 15 15h51.3c7.8 0 15.4-6.9 15-15s-6.6-15-15-15z"/></g></g><g id="XMLID_2761_"><g id="XMLID_54_"><path id="XMLID_58_" d="m142.3 655.6c-17.1 0-34.2 0-51.3 0-7.8 0-15.4 6.9-15 15s6.6 15 15 15h51.3c7.8 0 15.4-6.9 15-15s-6.6-15-15-15z"/></g></g><g id="XMLID_2731_"><g id="XMLID_48_"><path id="XMLID_52_" d="m800.5 670.6c-.2-63.6-27.6-125.6-75.3-167.8-42.6-37.6-96.6-56.8-153.2-56.8-37.3 0-74.5 0-111.8 0-19.5 0-38.8.8-58 4.7-30.2 6.1-59.5 19-84.5 37.1-52.1 37.8-85.7 95.2-92.9 159.2-.9 7.9-1.3 15.8-1.3 23.7 0 7.8 6.9 15.4 15 15s15-6.6 15-15c0-7.7.4-15.3 1.2-23 .1-.9.2-1.8.3-2.7.3-2.4-.3 2.3 0-.1.3-1.8.5-3.6.8-5.4.6-3.8 1.4-7.6 2.2-11.3 1.6-7 3.5-13.9 5.8-20.7 1.1-3.4 2.4-6.7 3.7-10 .3-.8.7-1.6 1-2.5-1 2.6-.2.4 0-.1.9-2 1.8-4 2.7-6 6.1-12.9 13.6-25.1 22.1-36.6 1.4-1.9-1.4 1.7 0-.1.5-.7 1.1-1.4 1.6-2.1 1.1-1.4 2.2-2.7 3.3-4 2.4-2.8 4.9-5.6 7.4-8.3 4.8-5.1 9.8-9.9 15.1-14.5 2.6-2.3 5.3-4.5 8.1-6.7 2.2-1.8.5-.4.1-.1.7-.5 1.4-1.1 2.1-1.6 1.6-1.2 3.2-2.3 4.8-3.4 5.9-4.1 12.1-8 18.4-11.5 3.1-1.7 6.2-3.3 9.4-4.9 1.6-.8 3.2-1.5 4.8-2.3.8-.4 1.6-.7 2.4-1.1.3-.1 3.6-1.5 1.9-.8s.9-.4 1.3-.5c.8-.3 1.7-.7 2.5-1 1.5-.6 2.9-1.1 4.4-1.6 3.8-1.4 7.6-2.6 11.5-3.8 6.9-2 13.9-3.7 21-5.1 1.8-.3 3.6-.6 5.4-.9.7-.1 6-.8 2.8-.4 3.9-.5 7.8-.9 11.7-1.1 6.5-.5 13-.5 19.6-.5h109.5 13c5.3 0 10.5.2 15.8.6 3.5.3 6.9.6 10.3 1 2.4.3-2.3-.3.1 0 .9.1 1.8.3 2.7.4 2 .3 4 .7 6.1 1 7.3 1.4 14.6 3.1 21.7 5.2 3.4 1 6.8 2.1 10.2 3.3 1.5.5 2.9 1.1 4.4 1.6.8.3 1.7.6 2.5 1 .3.1 4.3 1.8 1.3.5 13.2 5.6 25.7 12.6 37.4 20.7 1.4 1 2.9 2 4.3 3.1.7.5 1.4 1 2.1 1.6 1.9 1.4-1.7-1.4.1 0 2.9 2.3 5.8 4.7 8.6 7.1 5.4 4.7 10.6 9.7 15.5 15 2.2 2.4 4.4 4.8 6.5 7.3 1.1 1.3 2.2 2.7 3.3 4 .5.7 1.1 1.4 1.6 2 2.7 3.4-1.7-2.4.8 1.1 4.1 5.7 8.1 11.4 11.7 17.4 3.7 6.2 7.2 12.6 10.3 19.2.8 1.6 1.5 3.2 2.2 4.8.2.4 1.3 3 .5 1.3-.7-1.7.4.9.5 1.3 1.4 3.5 2.7 7.1 3.9 10.6 2.4 7 4.4 14.2 6 21.4.7 3.3 1.4 6.7 2 10 .3 1.8.6 3.6.9 5.4.4 3 .1.7 0 .1.2 1.4.3 2.7.5 4.1.8 7.4 1.1 14.8 1.2 22.3 0 7.8 6.9 15.4 15 15 8.2-.1 15.1-6.4 15.1-14.8z"/></g></g><g id="XMLID_2730_"><g id="XMLID_42_"><path id="XMLID_46_" d="m675.9 240c-.3-68.9-44-130.6-108.5-154.3-63.6-23.4-138.7-2.9-181.6 49.5-21.8 26.6-34.8 58.6-37.5 93-2.6 33.4 5.7 67.9 23 96.5 16.8 27.7 42 50.7 71.6 64.1 32 14.5 67.3 18.7 101.8 11.9 65.3-12.8 118.8-68 128.9-133.9 1.4-8.9 2.3-17.8 2.3-26.8 0-7.8-6.9-15.4-15-15-8.2.4-15 6.6-15 15 0 3.7-.1 7.5-.4 11.2-.1 1.8-.3 3.7-.5 5.5-.3 3-.1.7 0 .1-.2 1.1-.3 2.3-.5 3.4-1.2 7.3-2.9 14.6-5.2 21.7-1.1 3.4-2.3 6.7-3.6 10-1.1 2.7-.3.6 0 .1-.4.8-.7 1.6-1.1 2.4-.8 1.8-1.7 3.6-2.6 5.4-3.3 6.5-7 12.7-11.2 18.6-1 1.4-2 2.8-3.1 4.2 1.7-2.3-1.1 1.4-1.7 2.1-2.4 2.8-4.8 5.6-7.4 8.3-2.4 2.5-4.9 4.9-7.5 7.3-1.3 1.2-2.6 2.3-3.9 3.4-.6.5-5 4-2.6 2.1-5.7 4.4-11.8 8.3-18.1 11.8-3.1 1.7-6.2 3.3-9.4 4.8-.8.4-1.6.7-2.4 1.1-2.1 1 2.1-.8-.1 0-1.9.8-3.7 1.5-5.6 2.2-7 2.5-14.1 4.5-21.4 6-1.8.4-3.6.7-5.4 1-.9.1-1.8.3-2.7.4-2.4.3 2.3-.3-.1 0-3.9.4-7.8.8-11.8.9-7.7.3-15.3-.1-23-.9-2.4-.3 2.3.4-.1 0-.9-.1-1.8-.3-2.7-.4-1.8-.3-3.6-.6-5.4-1-3.8-.8-7.5-1.7-11.2-2.7-3.4-1-6.8-2.1-10.2-3.3-1.7-.6-3.3-1.3-5-1.9-.5-.2-2.6-1.2-.1 0-1-.4-2-.9-3-1.4-6.6-3-12.9-6.6-19-10.5-2.9-1.9-5.8-3.9-8.6-6.1 2.4 1.8-1.6-1.3-2.1-1.7-1.5-1.3-3-2.5-4.5-3.9-5.3-4.8-10.3-10-14.9-15.5-.6-.7-3.5-4.4-1.7-2.1-1.1-1.4-2.1-2.8-3.1-4.2-2.1-3-4.2-6.2-6.1-9.3-1.8-3-3.5-6.1-5.1-9.2-.7-1.4-1.4-2.8-2-4.2-.4-.8-.7-1.6-1.1-2.4-1.9-3.9 1 2.8-.6-1.3-2.7-6.9-5-13.8-6.7-21-.8-3.5-1.6-7.1-2.1-10.7-.1-.9-.7-5.1-.3-2.1-.3-2.3-.5-4.6-.7-6.9-.6-7.7-.6-15.4.1-23.1.1-1.8.3-3.7.5-5.5.3-2.4-.4 2.3 0-.1.1-.7.2-1.4.3-2 .6-4 1.4-8 2.4-12 1.7-7.2 4.1-14.2 6.8-21 .9-2.2-.9 2 0-.1.4-.8.7-1.6 1.1-2.4.6-1.4 1.3-2.8 2-4.2 1.8-3.5 3.7-7 5.7-10.4 1.8-3 3.7-5.9 5.8-8.8 1-1.4 2-2.8 3.1-4.2-1.8 2.4 1.7-2 2.1-2.6 4.6-5.5 9.6-10.7 15-15.5 1.3-1.2 2.6-2.3 4-3.4.7-.6 4.4-3.5 2.1-1.7 3-2.2 6-4.4 9.1-6.4 6.1-3.9 12.5-7.4 19-10.5.8-.4 1.6-.7 2.4-1.1-.5.2-2.6 1 .1 0 1.7-.6 3.3-1.3 5-1.9 3.4-1.2 6.8-2.3 10.2-3.3 3.5-1 7-1.8 10.5-2.6 1.8-.4 3.6-.7 5.4-1 .9-.2 1.8-.3 2.7-.4 4.5-.7-3 .3 1.5-.2 7.4-.7 14.8-1.1 22.3-.8 3.7.1 7.4.5 11.1.8 3 .3.7.1.1 0 .9.1 1.8.3 2.7.4 2.2.4 4.5.8 6.7 1.2 7 1.4 13.9 3.4 20.7 5.9 1.7.6 3.3 1.3 5 1.9 2.7 1.1.6.3.1 0 .8.4 1.6.7 2.4 1.1 3.6 1.6 7.1 3.4 10.6 5.4 6.1 3.4 12 7.3 17.6 11.5-2.3-1.7 1.4 1.1 2.1 1.7 1.3 1.1 2.7 2.3 4 3.4 2.9 2.6 5.8 5.3 8.5 8.2 2.3 2.4 4.4 4.8 6.5 7.3.6.7 1.1 1.3 1.7 2 .3.3 2 2.5.9 1.1s.6.8.8 1.1c.6.9 1.3 1.8 1.9 2.7 4.3 6.1 8.1 12.5 11.5 19.2.7 1.4 1.4 2.8 2 4.2.4.8.7 1.6 1.1 2.4 1 2.1-.8-2.1 0 .1 1.4 3.5 2.7 7 3.9 10.6 2.4 7.3 4.1 14.8 5.3 22.3.1.7.2 1.4.3 2 .3 2.4-.3-2.3 0 .1.2 1.8.4 3.7.5 5.5.3 4 .4 7.9.5 11.9 0 7.8 6.9 15.4 15 15 8-.5 15-6.7 14.9-15.1z"/></g></g><g id="XMLID_2724_"><g id="XMLID_36_"><path id="XMLID_40_" d="m540.1 519c-18.8 0-37.6 0-56.4 0 4.3 2.5 8.6 5 13 7.4-11.7-24.3-23.5-48.7-35.2-73-4.3 7.5-8.6 15-13 22.6h111.1 15.7c-4.3-7.5-8.6-15-13-22.6-11.7 24.3-23.5 48.7-35.2 73-3.5 7.3-2 16.2 5.4 20.5 6.6 3.8 17 1.9 20.5-5.4 11.7-24.3 23.5-48.7 35.2-73 4.8-10-.9-22.6-13-22.6-37 0-74 0-111.1 0-5.2 0-10.5 0-15.7 0-12.1 0-17.8 12.6-13 22.6 11.7 24.3 23.5 48.7 35.2 73 2.2 4.6 8 7.4 13 7.4h56.4c7.8 0 15.4-6.9 15-15-.3-8-6.5-14.9-14.9-14.9z"/></g></g><g id="XMLID_2803_"><g id="XMLID_30_"><path id="XMLID_34_" d="m866.6 670.6v88.3 140.6 32.2c5-5 10-10 15-15-6.6 0-13.2 0-19.8 0-17.9 0-35.8 0-53.7 0-26.6 0-53.2 0-79.7 0-32.3 0-64.6 0-96.8 0-35.5 0-71 0-106.6 0-35.7 0-71.4 0-107.1 0-33.4 0-66.9 0-100.3 0-28.1 0-56.2 0-84.4 0-20.3 0-40.6 0-60.9 0-9.6 0-19.2-.4-28.7 0-.4 0-.8 0-1.2 0l15 15c0-29.4 0-58.8 0-88.3 0-46.9 0-93.7 0-140.6 0-10.7 0-21.5 0-32.2-5 5-10 10-15 15h19.8 53.7 79.7 96.8 106.6 107.1 100.3 84.4 60.9c9.6 0 19.2.2 28.7 0h1.2c7.8 0 15.4-6.9 15-15s-6.6-15-15-15c-6.6 0-13.2 0-19.8 0-17.9 0-35.8 0-53.7 0-26.6 0-53.2 0-79.7 0-32.3 0-64.6 0-96.8 0-35.5 0-71 0-106.6 0-35.7 0-71.4 0-107.1 0-33.4 0-66.9 0-100.3 0-28.1 0-56.2 0-84.4 0-20.3 0-40.6 0-60.9 0-9.6 0-19.2-.2-28.7 0-.4 0-.8 0-1.2 0-8.1 0-15 6.9-15 15v88.3 140.6 32.2c0 8.1 6.9 15 15 15h19.8 53.7 79.7 96.8 106.6 107.1 100.3 84.4 60.9c9.6 0 19.2.2 28.7 0h1.2c8.1 0 15-6.9 15-15 0-29.4 0-58.8 0-88.3 0-46.9 0-93.7 0-140.6 0-10.7 0-21.5 0-32.2 0-7.8-6.9-15.4-15-15-8.2.4-15 6.6-15 15z"/></g></g><g id="XMLID_2766_"><g id="XMLID_24_"><path id="XMLID_28_" d="m562.5 655.6c-29.5 0-59 0-88.5 0-4.2 0-8.4 0-12.6 0 4.8 6.3 9.6 12.7 14.5 19 6.5-39.9 13-79.7 19.6-119.6.9-5.7 1.9-11.4 2.8-17.1-4.8 3.7-9.6 7.3-14.5 11h56.4c-4.8-3.7-9.6-7.3-14.5-11 6.5 39.9 13 79.7 19.6 119.6.9 5.7 1.9 11.4 2.8 17.1 1.3 8 11.2 12.5 18.5 10.5 8.5-2.3 11.8-10.4 10.5-18.5-6.5-39.9-13-79.7-19.6-119.6-.9-5.7-1.9-11.4-2.8-17.1-1-6.4-8.4-11-14.5-11-18.8 0-37.6 0-56.4 0-6 0-13.4 4.6-14.5 11-6.5 39.9-13 79.7-19.6 119.6-.9 5.7-1.9 11.4-2.8 17.1-1.5 9.4 3.9 19 14.5 19h88.5 12.6c7.8 0 15.4-6.9 15-15s-6.6-15-15-15z"/></g></g><g id="XMLID_610_"><g id="XMLID_18_"><path id="XMLID_22_" d="m774.3 354.4c0 .9-.7 5.9-.1 2.8-.3 1.5-.7 3-1.1 4.5-.2.6-.4 1.3-.6 1.9.9-2.6.3-.5-.1 0-.9 1.5-1.7 3-2.6 4.5-1.5 2.4-.4.5 0 .1-.6.7-1.1 1.3-1.7 1.9s-1.3 1.2-1.9 1.8c-.1.1-1.8 1.5-.5.5 1.1-.9-2.1 1.4-2.8 1.8-.8.4-1.5.8-2.3 1.2-2.4 1.3.9-.2-.7.3-1.5.4-3 .9-4.5 1.3-2.7.7-.7.2 0 .1-.9.1-1.8.2-2.7.2-1.6.1-3.2 0-4.9-.1-1.8-.1.4 0 .6.1-1.1-.2-2.2-.5-3.3-.8-.9-.2-4.5-1.6-2-.5-1.6-.7-3.1-1.6-4.6-2.5-.7-.5-1.5-1-2.1-1.5.2.1 1.7 1.5.5.3-1.4-1.3-2.8-2.7-4.1-4.2 1.8 2-.6-.9-1.1-1.7-.8-1.3-1.5-2.6-2.1-4 1.3 2.8-.5-2-.7-2.7s-.3-1.3-.4-2c-.4-1.6 0 2.1-.1-.7 0-1.6-.1-3.2 0-4.9 0-.5.4-3.3.1-1.4-.3 1.7.1-.5.2-.7.4-1.7.9-3.4 1.5-5.1-1 2.7.8-1.5 1.3-2.3.4-.7 3.4-4.5 1.4-2.3 1-1.1 2.1-2.2 3.1-3.3.5-.5 1-.9 1.5-1.3-2 1.8-.5.3.1 0 1.7-1 3.3-2.1 5.1-2.9 1.5-.8-.3.1-.6.2.8-.3 1.7-.6 2.5-.8s4.6-1.1 3.3-.9c-1.4.2 2.7-.1 3.5-.1.9 0 1.8.1 2.8.1 2.9.1-.9-.3.7.1 2 .5 3.9 1 5.8 1.6-2.6-.9 1.4.7 2.3 1.3.9.5 4.3 3.2 2.3 1.4 1.5 1.3 2.8 2.7 4.2 4.1 1.6 1.6-1.2-1.8.1 0 .6.9 1.2 1.8 1.8 2.7.5.8 2.3 5.1 1.3 2.3.6 1.7 1.1 3.4 1.5 5.1.7 2.7.2.7.1 0v4.5c.1 7.8 6.8 15.4 15 15 8-.4 15.2-6.6 15-15-.4-22.7-14.4-42.4-35.8-50.1-20.1-7.3-44.3-.6-57.7 16-14 17.2-16.6 41.4-5.3 60.8 11.6 19.7 34.4 29.2 56.6 25.1 24.6-4.6 41.7-27.4 42.2-51.9.1-7.8-7-15.4-15-15-8.2.4-14.8 6.6-15 15.1z"/></g></g><g id="XMLID_611_"><g id="XMLID_12_"><path id="XMLID_16_" d="m896.6 670.6c0-49.1 0-98.1 0-147.2 0-10.6 0-21.3 0-31.9 0-7.2.3-13.2-5.3-19.1-16.5-17.3-33.9-33.9-50.8-50.8-17.2-17.2-34.4-34.4-51.6-51.6-5.7-5.7-15.5-5.7-21.2 0s-5.7 15.5 0 21.2c30.1 30.1 60.3 60.3 90.4 90.4 4.3 4.3 8.6 8.6 12.8 12.8-1.5-3.5-2.9-7.1-4.4-10.6v62.8 100.7 23.1c0 7.8 6.9 15.4 15 15 8.2-.1 15.1-6.4 15.1-14.8z"/></g></g></g></svg>