<svg width="35" height="35" viewBox="0 0 35 35" fill="none" xmlns="http://www.w3.org/2000/svg">
<circle cx="17.5" cy="17.5" r="16.75" stroke="white" stroke-width="1.5"/>
<path d="M18.7797 23.9461L13.2444 18.2089C13.167 18.1289 13.1056 18.0339 13.0637 17.9293C13.0218 17.8247 13.0002 17.7125 13.0002 17.5993C13.0002 17.486 13.0218 17.3739 13.0637 17.2693C13.1056 17.1647 13.167 17.0697 13.2444 16.9897L18.7797 11.2525C18.9356 11.0908 19.1472 11 19.3678 11C19.5884 11 19.7999 11.0908 19.9559 11.2525C20.1119 11.4142 20.1995 11.6334 20.1995 11.8621C20.1995 12.0907 20.1119 12.31 19.9559 12.4717L15.0081 17.6L19.9566 22.7283C20.1126 22.89 20.2002 23.1093 20.2002 23.3379C20.2002 23.5666 20.1126 23.7858 19.9566 23.9475C19.8006 24.1092 19.5891 24.2 19.3685 24.2C19.1479 24.2 18.9363 24.1092 18.7803 23.9475L18.7797 23.9461Z" fill="white"/>
</svg>
