<svg id="Layer_1" height="512" viewBox="0 0 60 60" width="512" xmlns="http://www.w3.org/2000/svg"><g><path d="m40.5 33v14c0 .55-.45 1-1 1h-2v5c0 .55-.45 1-1 1s-1-.45-1-1v-5h-2c-.55 0-1-.45-1-1v-14c0-.55.45-1 1-1h2v-5c0-.55.45-1 1-1s1 .45 1 1v5h2c.55 0 1 .45 1 1z"/><path d="m53.5 21v18c0 .55-.45 1-1 1h-2v5c0 .55-.45 1-1 1s-1-.45-1-1v-5h-2c-.55 0-1-.45-1-1v-18c0-.55.45-1 1-1h2v-4c0-.55.45-1 1-1s1 .45 1 1v4h2c.55 0 1 .45 1 1z"/><path d="m14.5 39v8c0 .55-.45 1-1 1h-2v5c0 .55-.45 1-1 1s-1-.45-1-1v-5h-2c-.55 0-1-.45-1-1v-8c0-.55.45-1 1-1h2v-5c0-.55.45-1 1-1s1 .45 1 1v5h2c.55 0 1 .45 1 1z"/><path d="m27.5 12v21c0 .55-.45 1-1 1h-2v5c0 .55-.45 1-1 1s-1-.45-1-1v-5h-2c-.55 0-1-.45-1-1v-21c0-.55.45-1 1-1h2v-4c0-.55.45-1 1-1s1 .45 1 1v4h2c.55 0 1 .45 1 1z"/></g></svg>