<svg id="Layer_1" height="512" viewBox="0 0 512 512" width="512" xmlns="http://www.w3.org/2000/svg"><path d="m452 78.67h-.72v-38.67c0-6.9-5.6-12.5-12.5-12.5s-12.5 5.6-12.5 12.5v38.67h-.72c-17.92 0-32.5 14.58-32.5 32.5v251.43c0 17.92 14.58 32.5 32.5 32.5h.72v38.67c0 6.9 5.6 12.5 12.5 12.5s12.5-5.6 12.5-12.5v-38.67h.72c17.92 0 32.5-14.58 32.5-32.5v-251.43c0-17.92-14.58-32.5-32.5-32.5z"/><path d="m330.15 199.9h-.72v-19.17c0-6.9-5.6-12.5-12.5-12.5s-12.5 5.6-12.5 12.5v19.17h-.72c-17.92 0-32.5 14.58-32.5 32.5v187.92c0 17.92 14.58 32.5 32.5 32.5h.72v19.17c0 6.9 5.6 12.5 12.5 12.5s12.5-5.6 12.5-12.5v-19.17h.72c17.92 0 32.5-14.58 32.5-32.5v-187.92c0-17.92-14.58-32.5-32.5-32.5z"/><path d="m208.3 158.71h-.72v-25.93c0-6.9-5.6-12.5-12.5-12.5s-12.5 5.6-12.5 12.5v25.93h-.72c-17.92 0-32.5 14.58-32.5 32.5v115.15c0 17.92 14.58 32.5 32.5 32.5h.72v25.93c0 6.9 5.6 12.5 12.5 12.5s12.5-5.6 12.5-12.5v-25.93h.72c17.92 0 32.5-14.58 32.5-32.5v-115.15c0-17.92-14.58-32.5-32.5-32.5z"/><path d="m86.44 84.54h-.72v-44.54c0-6.9-5.6-12.5-12.5-12.5s-12.5 5.6-12.5 12.5v44.54h-.72c-17.92 0-32.5 14.58-32.5 32.5v232.12c0 17.92 14.58 32.5 32.5 32.5h.72v44.54c0 6.9 5.6 12.5 12.5 12.5s12.5-5.6 12.5-12.5v-44.54h.72c17.92 0 32.5-14.58 32.5-32.5v-232.12c0-17.92-14.58-32.5-32.5-32.5z"/></svg>