<svg width="18" height="18" viewBox="0 0 18 18" fill="none" xmlns="http://www.w3.org/2000/svg">
<path d="M5.47402 4.42842H4.58598C4.39184 4.42842 4.23441 4.58582 4.23441 4.77998V7.00383C4.23441 7.198 4.39184 7.35539 4.58598 7.35539H5.47402C5.94484 7.35539 6.32783 6.97236 6.32783 6.50159V5.28223C6.32783 4.81141 5.94484 4.42842 5.47402 4.42842ZM5.6247 6.50159C5.6247 6.58325 5.55569 6.65227 5.47402 6.65227H4.93754V5.13155H5.47402C5.55569 5.13155 5.6247 5.20052 5.6247 5.28223V6.50159ZM8.68899 4.77998C8.68899 4.97415 8.53156 5.13155 8.33743 5.13155H7.2987V5.54031H7.91608C8.11021 5.54031 8.26764 5.6977 8.26764 5.89187C8.26764 6.08604 8.11021 6.24343 7.91608 6.24343H7.2987V7.00379C7.2987 7.19796 7.14127 7.35536 6.94714 7.35536C6.75301 7.35536 6.59558 7.19796 6.59558 7.00379V4.77995C6.59558 4.58578 6.75301 4.42839 6.94714 4.42839H8.33743C8.5316 4.42842 8.68899 4.58582 8.68899 4.77998ZM3.06072 4.42842H2.22478C2.03064 4.42842 1.87321 4.58582 1.87321 4.77998V7.00383C1.87321 7.198 2.03064 7.35539 2.22478 7.35539C2.41891 7.35539 2.57634 7.198 2.57634 7.00383V6.24347H3.06069C3.56022 6.24347 3.96663 5.83636 3.96663 5.33598C3.96663 4.83553 3.56026 4.42842 3.06072 4.42842ZM3.06072 5.54031H2.57634V5.13155H3.06069C3.17062 5.13155 3.2635 5.22517 3.2635 5.33595C3.2635 5.44672 3.17066 5.54031 3.06072 5.54031ZM7.02343 10.3493H10.8943C11.0884 10.3493 11.2458 10.5068 11.2458 10.7009C11.2458 10.895 11.0884 11.0525 10.8943 11.0525H7.02343C6.8293 11.0525 6.67187 10.895 6.67187 10.7009C6.67187 10.5068 6.8293 10.3493 7.02343 10.3493ZM11.2458 12.3189C11.2458 12.513 11.0884 12.6704 10.8943 12.6704H7.02343C6.8293 12.6704 6.67187 12.513 6.67187 12.3189C6.67187 12.1247 6.8293 11.9673 7.02343 11.9673H10.8943C11.0884 11.9673 11.2458 12.1247 11.2458 12.3189ZM17.6444 14.5833C17.5676 14.3958 17.387 14.2747 17.1844 14.2747H16.3397V10.6199C16.3397 10.1262 15.9548 9.72106 15.4694 9.68801V2.68794C15.4694 2.59471 15.4323 2.50527 15.3664 2.43935L13.0301 0.102973C12.9641 0.0370547 12.8747 0 12.7815 0H3.77095C3.57682 0 3.41939 0.157395 3.41939 0.351563V1.59272H2.17823C1.9841 1.59272 1.82667 1.75011 1.82667 1.94428V3.20741H1.2911C0.754719 3.20741 0.318359 3.64377 0.318359 4.18011V7.6037C0.318359 8.14004 0.754719 8.5764 1.2911 8.5764H1.82667V16.3128C1.82667 16.5069 1.9841 16.6643 2.17823 16.6643H12.8561L14.0655 17.8569C14.1618 17.9518 14.2882 17.9993 14.4146 17.9992C14.5411 17.9992 14.6675 17.9518 14.7639 17.8569L17.5335 15.126C17.6778 14.9837 17.7213 14.7707 17.6444 14.5833ZM13.133 1.2003L14.2691 2.33638H13.133V1.2003ZM12.4299 0.703125V2.68794C12.4299 2.88211 12.5873 3.0395 12.7815 3.0395H14.7662V9.68558H13.424C12.9089 9.68558 12.4897 10.1047 12.4897 10.6199V14.2746H11.645C11.5378 14.2746 11.4369 14.3088 11.3542 14.3685H4.12255V8.5764H9.27122C9.80756 8.5764 10.2439 8.14004 10.2439 7.6037V4.18011C10.2439 3.64377 9.80756 3.20741 9.27122 3.20741H4.12251V0.703125H12.4299ZM2.52979 2.29584H3.41939V3.20741H2.52979V2.29584ZM1.02148 7.6037V4.18011C1.02148 4.03147 1.14242 3.91054 1.2911 3.91054H9.27118C9.41986 3.91054 9.54076 4.03147 9.54076 4.18011V7.6037C9.54076 7.75234 9.41986 7.87328 9.27118 7.87328H1.2911C1.14242 7.87328 1.02148 7.75234 1.02148 7.6037ZM2.52979 15.9612V8.5764H3.41939V14.7201C3.41939 14.9142 3.57682 15.0716 3.77095 15.0716H11.2483C11.2627 15.0906 11.2785 15.1088 11.2959 15.1259L12.143 15.9612H2.52979ZM14.4147 17.2137L12.1471 14.9778H12.8413C13.0354 14.9778 13.1929 14.8203 13.1929 14.6262V10.6199C13.1929 10.4924 13.2965 10.3887 13.424 10.3887H15.4053C15.5328 10.3887 15.6365 10.4924 15.6365 10.6199V14.6262C15.6365 14.8203 15.7939 14.9778 15.9881 14.9778H16.6823L14.4147 17.2137Z" fill="white"/>
</svg>
