<svg id="Bahan_copy" viewBox="0 0 64 64" xmlns="http://www.w3.org/2000/svg" data-name="Bahan copy"><g fill="rgb(0,0,0)"><path d="m15.04736 27.44141h-1.69236v-3.36524a1 1 0 0 0 -2 0v3.36524h-1.69191a2.00229 2.00229 0 0 0 -2 2v24.19336a2.0023 2.0023 0 0 0 2 2h1.69191v3.36523a1.00011 1.00011 0 0 0 2-.00005v-3.36518h1.69238a2.0023 2.0023 0 0 0 2-2v-24.19336a2.00229 2.00229 0 0 0 -2.00002-2zm-5.38427 26.19336v-24.19336h5.38427l.001 24.19336z"/><path d="m28.144 15.041h-1.69234v-3.36522a1 1 0 0 0 -2 0v3.36522h-1.69189a2.00229 2.00229 0 0 0 -2 2v24.19338a2.0023 2.0023 0 0 0 2 2h1.69189v3.36523a1.00011 1.00011 0 0 0 2-.00005v-3.36518h1.69234a2.0023 2.0023 0 0 0 2-2v-24.19338a2.00229 2.00229 0 0 0 -2-2zm-5.38423 26.19338v-24.19338h5.38423l.00147 24.19336z"/><path d="m41.24023 22.00781h-1.69189v-3.36523a1 1 0 0 0 -2 0v3.36523h-1.69234a2.00229 2.00229 0 0 0 -2 2v24.19336a2.00229 2.00229 0 0 0 2 2h1.69238v3.36524a1.00011 1.00011 0 0 0 2-.00006v-3.36518h1.69189a2.00229 2.00229 0 0 0 2-2v-24.19336a2.00229 2.00229 0 0 0 -2.00004-2zm-5.38423 26.19336v-24.19336h5.38427l.001 24.19336z"/><path d="m54.33691 8.36523h-1.69191v-3.36523a1 1 0 0 0 -2 0v3.36523h-1.69236a2.0023 2.0023 0 0 0 -2 2v24.19336a2.00229 2.00229 0 0 0 2 2h1.69236v3.36524a1.00011 1.00011 0 0 0 2-.00005v-3.36519h1.69189a2.00229 2.00229 0 0 0 2-2v-24.19336a2.0023 2.0023 0 0 0 -1.99998-2zm-5.38427 26.19336v-24.19336h5.38427l.00147 24.19336z"/></g></svg>