<svg width="86" height="86" viewBox="0 0 86 86" fill="none" xmlns="http://www.w3.org/2000/svg">
<g clip-path="url(#clip0_190_35073)">
<path d="M85.8422 20.3931C85.5462 19.2924 84.8241 18.354 83.836 17.7851C82.8473 17.2134 81.6717 17.0588 80.5689 17.3548C79.4675 17.6515 78.5291 18.3729 77.9602 19.361L77.2437 20.6079C76.5628 20.2168 75.693 20.447 75.2949 21.1243L71.6548 27.329L70.4078 26.6125C70.0775 26.4215 69.6843 26.3697 69.3162 26.469C68.9474 26.5691 68.6339 26.8112 68.4443 27.1429C68.056 27.828 68.2925 28.6984 68.9747 29.0917L70.2217 29.8083L58.0404 50.9176L55.0308 58.9578L53.5977 61.6371C52.7587 63.0968 52.8483 64.9112 53.8272 66.2807L50.6028 70.2356L49.7001 67.9719C49.2928 66.9629 48.3503 66.2716 47.2664 66.1869C46.1817 66.1015 45.1426 66.6375 44.5835 67.5703L44.0678 68.4443L43.5808 62.7119C43.4688 61.3558 42.4185 60.2656 41.068 60.1019C39.7168 59.9388 38.4376 60.7484 38.0059 62.0388L34.4805 72.6148C34.2342 73.3628 34.6373 74.1689 35.3832 74.4208C35.5231 74.4859 35.6736 74.5251 35.8275 74.5349C36.4433 74.537 36.9919 74.1444 37.1893 73.5609L40.6999 62.9848L41.2016 68.8026C41.3052 70.0439 42.1974 71.076 43.4107 71.3573C44.6241 71.6386 45.8795 71.104 46.5183 70.0355L47.0487 69.1608L47.9374 71.4112C48.3146 72.3594 49.1676 73.036 50.1773 73.1865C51.1871 73.3369 52.2003 72.9388 52.8385 72.1418L56.1777 67.9146C56.5472 68.0111 56.9278 68.0594 57.3099 68.058C58.8458 68.0699 60.2719 67.261 61.0501 65.9364L62.4831 63.5432L67.9433 56.9082L80.2533 35.5406L81.5003 36.2572C81.8326 36.4475 82.0748 36.7617 82.1734 37.1318C82.2728 37.4992 82.221 37.8911 82.0307 38.2207L76.2983 48.1522C76.0821 48.4783 76.0086 48.8786 76.0954 49.2606C76.1822 49.642 76.4208 49.9716 76.7567 50.1724C77.0869 50.3641 77.4802 50.4159 77.8483 50.3165C78.217 50.2165 78.5305 49.9744 78.7202 49.6427L84.4525 39.7111C85.0242 38.7224 85.1788 37.5468 84.8822 36.444C84.5855 35.3426 83.864 34.4042 82.876 33.8353L81.629 33.1188L85.2117 26.9134C85.6029 26.2325 85.3727 25.3634 84.696 24.9646L85.4126 23.7176C85.9997 22.7135 86.155 21.5141 85.8422 20.3931ZM80.4394 20.7941C80.6291 20.4624 80.944 20.2196 81.3141 20.1209C81.6822 20.0299 82.0713 20.081 82.4029 20.2644C82.7353 20.454 82.9774 20.7689 83.0768 21.1383C83.1678 21.5064 83.1167 21.8955 82.9333 22.2272L82.2168 23.4741L79.7229 22.041L80.4394 20.7941ZM60.9066 60.8065L60.1901 60.3909L58.0691 59.1579L60.104 53.7124L64.6181 56.3204L60.9066 60.8065ZM56.6073 64.9476C56.002 64.5257 55.8159 63.714 56.1777 63.0702L56.8942 61.8239L59.3874 63.257L58.6709 64.4893C58.4701 64.8378 58.1328 65.0855 57.7402 65.1729C57.3477 65.2597 56.9369 65.1785 56.6073 64.9476ZM66.252 53.9706L61.2936 51.1045L72.7583 31.2413L77.7167 34.1075L66.252 53.9706ZM79.1498 31.6283L74.1914 28.7621L77.0575 23.8037L82.016 26.6699L79.1498 31.6283Z" fill="#002E61"/>
<path d="M22.6143 64.231L17.5418 69.2902L14.5035 66.2519C13.9444 65.6963 13.0417 65.6963 12.4826 66.2519C12.2111 66.5213 12.0586 66.8873 12.0586 67.2694C12.0586 67.6514 12.2111 68.0181 12.4826 68.2868L15.521 71.3251C16.0584 71.8583 16.7847 72.1571 17.5418 72.1564C18.3032 72.1606 19.0358 71.8618 19.5767 71.3251L24.6352 66.2519C25.1222 65.683 25.0893 64.8356 24.5603 64.3066C24.0306 63.7769 23.1832 63.744 22.6143 64.231Z" fill="black"/>
<path d="M5.73242 68.0861C5.73242 74.8142 11.1863 80.2674 17.9137 80.2674C24.6411 80.2674 30.0949 74.8142 30.0949 68.0861C30.0949 67.2947 29.4533 66.6531 28.6618 66.6531C27.8704 66.6531 27.2288 67.2947 27.2288 68.0861C27.2288 73.2307 23.0582 77.4012 17.9137 77.4012C12.7691 77.4012 8.5986 73.2307 8.5986 68.0861C8.5986 62.9416 12.7691 58.7711 17.9137 58.7711C19.9304 58.7655 21.8932 59.4197 23.5026 60.6345C24.1359 61.1096 25.0343 60.9809 25.5088 60.3476C25.9839 59.7143 25.8559 58.8165 25.2226 58.3414C21.5314 55.5732 16.5926 55.1282 12.4661 57.191C8.33899 59.2546 5.73242 63.4727 5.73242 68.0861Z" fill="black"/>
<path d="M51.5918 11.479C52.3833 11.479 53.0249 10.838 53.0249 10.0459C53.0249 9.25446 52.3833 8.61279 51.5918 8.61279H14.3315C13.5401 8.61279 12.8984 9.25446 12.8984 10.0459V15.7782C12.8984 16.5704 13.5401 17.2113 14.3315 17.2113H51.5918C52.3833 17.2113 53.0249 16.5704 53.0249 15.7782C53.0249 14.9868 52.3833 14.3451 51.5918 14.3451H15.7646V11.479H51.5918Z" fill="#002E61"/>
<path d="M18.6304 20.0776C17.8389 20.0776 17.1973 20.7193 17.1973 21.5107C17.1973 22.3028 17.8389 22.9438 18.6304 22.9438H47.2921C48.0836 22.9438 48.7252 22.3028 48.7252 21.5107C48.7252 20.7193 48.0836 20.0776 47.2921 20.0776H18.6304Z" fill="#002E61"/>
<path d="M55.8907 30.1091H24.3628C23.5714 30.1091 22.9297 30.7508 22.9297 31.5422C22.9297 32.3343 23.5714 32.9753 24.3628 32.9753H55.8907C56.6822 32.9753 57.3238 32.3343 57.3238 31.5422C57.3238 30.7508 56.6822 30.1091 55.8907 30.1091Z" fill="#002E61"/>
<path d="M41.5592 40.1409C41.5592 39.3494 40.9175 38.7078 40.1261 38.7078H11.4643C10.6729 38.7078 10.0312 39.3494 10.0312 40.1409C10.0312 40.933 10.6729 41.5739 11.4643 41.5739H40.1261C40.9175 41.5739 41.5592 40.933 41.5592 40.1409Z" fill="#002E61"/>
<path d="M55.8905 38.7078H45.8589C45.0675 38.7078 44.4258 39.3494 44.4258 40.1409C44.4258 40.933 45.0675 41.5739 45.8589 41.5739H55.8905C56.6819 41.5739 57.3236 40.933 57.3236 40.1409C57.3236 39.3494 56.6819 38.7078 55.8905 38.7078Z" fill="#002E61"/>
<path d="M25.7952 48.7395C26.5866 48.7395 27.2283 48.0985 27.2283 47.3064C27.2283 46.515 26.5866 45.8733 25.7952 45.8733H11.4643C10.6729 45.8733 10.0312 46.515 10.0312 47.3064C10.0312 48.0985 10.6729 48.7395 11.4643 48.7395H25.7952Z" fill="#002E61"/>
<path d="M31.5288 48.7395H41.5604C42.3518 48.7395 42.9935 48.0985 42.9935 47.3064C42.9935 46.515 42.3518 45.8733 41.5604 45.8733H31.5288C30.7374 45.8733 30.0957 46.515 30.0957 47.3064C30.0957 48.0985 30.7374 48.7395 31.5288 48.7395Z" fill="#002E61"/>
<path d="M64.489 65.9365C63.6976 65.9365 63.0559 66.5782 63.0559 67.3696V81.7005C63.0559 82.4926 62.4143 83.1336 61.6228 83.1336H4.29927C3.50785 83.1336 2.86618 82.4926 2.86618 81.7005V4.31367C2.86618 3.52225 3.50785 2.88058 4.29927 2.88058H61.6228C62.4143 2.88058 63.0559 3.52225 63.0559 4.31367V31.2275C63.0559 32.0189 63.6976 32.6606 64.489 32.6606C65.2804 32.6606 65.9221 32.0189 65.9221 31.2275V4.31367C65.9221 1.93942 63.9971 0.0144043 61.6228 0.0144043H4.29927C1.92501 0.0144043 0 1.93942 0 4.31367V81.7005C0 84.0754 1.92501 85.9998 4.29927 85.9998H61.6228C63.9971 85.9998 65.9221 84.0754 65.9221 81.7005V67.3696C65.9221 66.5782 65.2804 65.9365 64.489 65.9365Z" fill="#002E61"/>
</g>
<defs>
<clipPath id="clip0_190_35073">
<rect width="86" height="86" fill="white"/>
</clipPath>
</defs>
</svg>
