<?xml version="1.0"?>
<svg xmlns="http://www.w3.org/2000/svg" viewBox="0 0 32 32" width="512" height="512"><g id="Layer_2" data-name="Layer 2"><path d="M26.79,4.25H23.27v-.5a1,1,0,0,0-2,0v.5H10.73v-.5a1,1,0,0,0-2,0v.5H5.21A4.22,4.22,0,0,0,1,8.46V26a4.22,4.22,0,0,0,4.21,4.21H26.79A4.22,4.22,0,0,0,31,26V8.46A4.22,4.22,0,0,0,26.79,4.25Zm-21.58,2H8.73v.5a1,1,0,0,0,2,0v-.5H21.27v.5a1,1,0,0,0,2,0v-.5h3.52A2.21,2.21,0,0,1,29,8.46v2.37H3V8.46A2.21,2.21,0,0,1,5.21,6.25Zm21.58,22H5.21A2.21,2.21,0,0,1,3,26V12.83H29V26A2.21,2.21,0,0,1,26.79,28.25Z"/></g></svg>
