<svg width="18" height="18" viewBox="0 0 18 18" fill="none" xmlns="http://www.w3.org/2000/svg">
<g clip-path="url(#clip0_718_3844)">
<path d="M12.526 4.42842H13.414C13.6082 4.42842 13.7656 4.58582 13.7656 4.77999V7.00383C13.7656 7.198 13.6082 7.35539 13.414 7.35539H12.526C12.0552 7.35539 11.6722 6.97236 11.6722 6.50159V5.28223C11.6722 4.81141 12.0552 4.42842 12.526 4.42842ZM12.3753 6.50159C12.3753 6.58325 12.4443 6.65227 12.526 6.65227H13.0625V5.13155H12.526C12.4443 5.13155 12.3753 5.20052 12.3753 5.28223V6.50159ZM9.31101 4.77999C9.31101 4.97415 9.46844 5.13155 9.66257 5.13155H10.7013V5.54031H10.0839C9.88979 5.54031 9.73236 5.6977 9.73236 5.89187C9.73236 6.08604 9.88979 6.24343 10.0839 6.24343H10.7013V7.00379C10.7013 7.19796 10.8587 7.35536 11.0529 7.35536C11.247 7.35536 11.4044 7.19796 11.4044 7.00379V4.77995C11.4044 4.58578 11.247 4.42839 11.0529 4.42839H9.66257C9.4684 4.42842 9.31101 4.58582 9.31101 4.77999ZM14.9393 4.42842H15.7752C15.9694 4.42842 16.1268 4.58582 16.1268 4.77999V7.00383C16.1268 7.198 15.9694 7.35539 15.7752 7.35539C15.5811 7.35539 15.4237 7.198 15.4237 7.00383V6.24347H14.9393C14.4398 6.24347 14.0334 5.83636 14.0334 5.33598C14.0334 4.83553 14.4397 4.42842 14.9393 4.42842ZM14.9393 5.54031H15.4237V5.13155H14.9393C14.8294 5.13155 14.7365 5.22517 14.7365 5.33595C14.7365 5.44672 14.8293 5.54031 14.9393 5.54031ZM10.9766 10.3493H7.10573C6.91159 10.3493 6.75416 10.5068 6.75416 10.7009C6.75416 10.895 6.91159 11.0525 7.10573 11.0525H10.9766C11.1707 11.0525 11.3281 10.895 11.3281 10.7009C11.3281 10.5068 11.1707 10.3493 10.9766 10.3493ZM6.75416 12.3189C6.75416 12.513 6.91159 12.6704 7.10573 12.6704H10.9766C11.1707 12.6704 11.3281 12.513 11.3281 12.3189C11.3281 12.1247 11.1707 11.9673 10.9766 11.9673H7.10573C6.91159 11.9673 6.75416 12.1247 6.75416 12.3189ZM0.35555 14.5833C0.432437 14.3958 0.612999 14.2747 0.81564 14.2747H1.66034V10.6199C1.66034 10.1262 2.04523 9.72106 2.53063 9.68801V2.68794C2.53063 2.59471 2.56769 2.50527 2.6336 2.43935L4.96991 0.102973C5.03587 0.0370547 5.12527 0 5.2185 0H14.2291C14.4232 0 14.5806 0.157395 14.5806 0.351563V1.59272H15.8218C16.0159 1.59272 16.1733 1.75011 16.1733 1.94428V3.20741H16.7089C17.2453 3.20741 17.6816 3.64377 17.6816 4.18011V7.6037C17.6816 8.14004 17.2453 8.5764 16.7089 8.5764H16.1733V16.3128C16.1733 16.5069 16.0159 16.6643 15.8218 16.6643H5.1439L3.93446 17.8569C3.83823 17.9518 3.71181 17.9993 3.58536 17.9992C3.4589 17.9992 3.33248 17.9518 3.23615 17.8569L0.466539 15.126C0.322222 14.9837 0.278698 14.7707 0.35555 14.5833ZM4.86698 1.2003L3.73094 2.33638H4.86698V1.2003ZM5.5701 0.703125V2.68794C5.5701 2.88211 5.41267 3.0395 5.21854 3.0395H3.23376V9.68558H4.57599C5.09113 9.68558 5.51027 10.1047 5.51027 10.6199V14.2746H6.355C6.46219 14.2746 6.56305 14.3088 6.64581 14.3685H13.8775V8.5764H8.72878C8.19244 8.5764 7.75608 8.14004 7.75608 7.6037V4.18011C7.75608 3.64377 8.19244 3.20741 8.72878 3.20741H13.8775V0.703125H5.5701ZM15.4702 2.29584H14.5806V3.20741H15.4702V2.29584ZM16.9785 7.6037V4.18011C16.9785 4.03147 16.8576 3.91054 16.7089 3.91054H8.72882C8.58014 3.91054 8.45924 4.03147 8.45924 4.18011V7.6037C8.45924 7.75234 8.58014 7.87328 8.72882 7.87328H16.7089C16.8576 7.87328 16.9785 7.75234 16.9785 7.6037ZM15.4702 15.9612V8.5764H14.5806V14.7201C14.5806 14.9142 14.4232 15.0716 14.2291 15.0716H6.75174C6.73732 15.0906 6.7215 15.1088 6.70414 15.1259L5.85701 15.9612H15.4702ZM3.58532 17.2137L5.85293 14.9778H5.1587C4.96457 14.9778 4.80714 14.8203 4.80714 14.6262V10.6199C4.80714 10.4924 4.70346 10.3887 4.57599 10.3887H2.59469C2.46721 10.3887 2.3635 10.4924 2.3635 10.6199V14.6262C2.3635 14.8203 2.20607 14.9778 2.01194 14.9778H1.31771L3.58532 17.2137Z" fill="white"/>
</g>
<defs>
<clipPath id="clip0_718_3844">
<rect width="18" height="18" fill="white" transform="matrix(-1 0 0 1 18 0)"/>
</clipPath>
</defs>
</svg>
