<svg width="19" height="19" viewBox="0 0 19 19" fill="none" xmlns="http://www.w3.org/2000/svg">
<path d="M16.625 10.6875V15.4375C16.625 15.595 16.5624 15.746 16.4511 15.8573C16.3397 15.9687 16.1887 16.0312 16.0312 16.0312H2.96875C2.81128 16.0312 2.66026 15.9687 2.54891 15.8573C2.43756 15.746 2.375 15.595 2.375 15.4375V10.6875C2.375 10.53 2.43756 10.379 2.54891 10.2677C2.66026 10.1563 2.81128 10.0938 2.96875 10.0938C3.12622 10.0938 3.27724 10.1563 3.38859 10.2677C3.49994 10.379 3.5625 10.53 3.5625 10.6875V14.8438H15.4375V10.6875C15.4375 10.53 15.5001 10.379 15.6114 10.2677C15.7228 10.1563 15.8738 10.0938 16.0312 10.0938C16.1887 10.0938 16.3397 10.1563 16.4511 10.2677C16.5624 10.379 16.625 10.53 16.625 10.6875ZM9.07992 11.1076C9.13507 11.1628 9.20055 11.2066 9.27263 11.2365C9.34471 11.2663 9.42197 11.2817 9.5 11.2817C9.57803 11.2817 9.65529 11.2663 9.72737 11.2365C9.79945 11.2066 9.86493 11.1628 9.92008 11.1076L12.8888 8.13883C12.944 8.08366 12.9878 8.01817 13.0176 7.94609C13.0475 7.87402 13.0628 7.79677 13.0628 7.71875C13.0628 7.64073 13.0475 7.56348 13.0176 7.49141C12.9878 7.41933 12.944 7.35384 12.8888 7.29867C12.8337 7.24351 12.7682 7.19975 12.6961 7.16989C12.624 7.14004 12.5468 7.12467 12.4688 7.12467C12.3907 7.12467 12.3135 7.14004 12.2414 7.16989C12.1693 7.19975 12.1038 7.24351 12.0487 7.29867L10.0938 9.25434V2.375C10.0938 2.21753 10.0312 2.06651 9.91985 1.95516C9.8085 1.84381 9.65747 1.78125 9.5 1.78125C9.34253 1.78125 9.1915 1.84381 9.08016 1.95516C8.96881 2.06651 8.90625 2.21753 8.90625 2.375V9.25434L6.95133 7.29867C6.83992 7.18726 6.68881 7.12467 6.53125 7.12467C6.37369 7.12467 6.22258 7.18726 6.11117 7.29867C5.99976 7.41008 5.93717 7.56119 5.93717 7.71875C5.93717 7.87631 5.99976 8.02742 6.11117 8.13883L9.07992 11.1076Z" fill="#033750"/>
</svg>
