<svg width="25" height="25" viewBox="0 0 25 25" fill="none" xmlns="http://www.w3.org/2000/svg">
<g clip-path="url(#clip0_718_3838)">
<path d="M13.1578 3.0365C18.7528 3.0365 23.2793 7.57816 23.2793 13.158C23.2793 18.7248 18.7692 23.2794 13.1578 23.2794C7.56476 23.2794 3.03638 18.7391 3.03638 13.158C3.03638 7.58176 7.56019 3.0365 13.1578 3.0365ZM6.01059 19.126C6.80282 18.7188 7.70063 18.4008 8.57314 18.1743C8.16428 16.7793 7.93193 15.2052 7.8991 13.5628H3.85492C3.9433 15.6053 4.69889 17.5568 6.01059 19.126ZM20.3051 19.126C21.6168 17.5567 22.3724 15.6053 22.4608 13.5628H18.4166C18.3838 15.2052 18.1514 16.7793 17.7426 18.1743C18.6159 18.4012 19.4986 18.7131 20.3051 19.126ZM20.3051 7.18986C19.4999 7.60237 18.6146 7.91464 17.7426 8.14164C18.1514 9.53666 18.3838 11.1107 18.4166 12.7531H22.4608C22.3724 10.7105 21.6168 8.75913 20.3051 7.18986ZM8.82335 7.37132C9.2333 6.22848 9.84339 5.03496 10.697 4.17864C9.15201 4.60302 7.72885 5.42205 6.57962 6.5684C7.28209 6.90743 8.08784 7.18743 8.82335 7.37132ZM12.753 7.8901V3.88618C11.7643 4.0799 10.8291 4.97937 10.0846 6.46836C9.91436 6.80893 9.75885 7.17144 9.61845 7.55249C10.6504 7.75958 11.709 7.868 12.753 7.8901ZM13.5627 7.8901C14.6155 7.86784 15.677 7.75763 16.6972 7.55249C16.5569 7.1714 16.4013 6.80889 16.2311 6.46836C15.4866 4.97937 14.5514 4.07986 13.5627 3.88618V7.8901ZM13.5627 8.69998V12.7531H17.6068C17.574 11.1688 17.3487 9.65662 16.9535 8.32557C15.9048 8.54261 14.7573 8.67569 13.5627 8.69998ZM13.5627 13.5628V17.6159C14.691 17.6389 15.8529 17.7616 16.9535 17.9903C17.3487 16.6593 17.574 15.1471 17.6068 13.5628H13.5627ZM13.5627 18.4258V22.4297C14.5514 22.236 15.4866 21.3365 16.2311 19.8476C16.4014 19.507 16.5569 19.1445 16.6972 18.7634C15.7163 18.5654 14.6489 18.4488 13.5627 18.4258ZM12.753 18.4258C11.6693 18.4487 10.6062 18.5644 9.61845 18.7634C9.75885 19.1445 9.91436 19.507 10.0846 19.8476C10.8291 21.3365 11.7643 22.236 12.753 22.4297V18.4258ZM12.753 17.6159V13.5628H8.70885C8.74173 15.1471 8.96691 16.6593 9.36221 17.9903C10.4047 17.7738 11.5599 17.6402 12.753 17.6159ZM12.753 12.7531V8.69998C11.5449 8.67541 10.4018 8.54043 9.36217 8.32557C8.96691 9.65658 8.74173 11.1688 8.70885 12.7531H12.753ZM17.4923 7.37132C18.2514 7.17962 19.0333 6.90812 19.7361 6.5684C18.5868 5.42205 17.1637 4.60302 15.6186 4.17864C16.4735 5.03622 17.0834 6.23128 17.4923 7.37132ZM17.4923 18.9446C17.0835 20.0844 16.4736 21.2797 15.6186 22.1373C17.1637 21.7129 18.5868 20.8938 19.7361 19.7475C19.0322 19.4071 18.25 19.1369 17.4923 18.9446ZM8.82339 18.9446C8.09788 19.1259 7.28177 19.4077 6.57958 19.7475C7.72885 20.8938 9.15201 21.7129 10.697 22.1373C9.84209 21.2796 9.23209 20.0843 8.82339 18.9446ZM7.89905 12.7531C7.93193 11.1107 8.16428 9.53666 8.5731 8.14164C7.68602 7.91128 6.79764 7.5935 6.01055 7.1899C4.69889 8.75913 3.94327 10.7106 3.85488 12.7531H7.89905V12.7531Z" fill="white"/>
</g>
<defs>
<clipPath id="clip0_718_3838">
<rect width="21.0526" height="21.0526" fill="white" transform="matrix(-1 0 0 1 23.6846 2.63159)"/>
</clipPath>
</defs>
</svg>
