<svg id="Layer_1" enable-background="new 0 0 512 512" viewBox="0 0 512 512" xmlns="http://www.w3.org/2000/svg"><path d="m420.253 366.006c.969 3.736-1.274 7.548-5.01 8.517l-38.178 9.899c-1.863 5.501-4.095 10.882-6.665 16.07l20.003 34.025c1.614 2.745 1.168 6.234-1.084 8.485l-37.343 37.314c-2.249 2.247-5.735 2.695-8.479 1.082l-34.013-19.984c-5.217 2.565-10.593 4.796-16.056 6.661l-9.929 38.195c-.801 3.08-3.581 5.23-6.763 5.23h-52.789c-3.182 0-5.962-2.15-6.763-5.23l-9.929-38.195c-5.471-1.867-10.84-4.098-16.034-6.66l-34.037 19.983c-2.744 1.609-6.227 1.165-8.477-1.083l-37.343-37.314c-2.252-2.251-2.698-5.739-1.084-8.485l20.004-34.027c-2.535-5.128-4.764-10.507-6.656-16.066l-38.188-9.901c-3.736-.969-5.979-4.781-5.01-8.517.968-3.737 4.782-5.983 8.518-5.01l41.897 10.863c2.345.608 4.208 2.387 4.923 4.702 2.268 7.345 5.18 14.365 8.653 20.863 1.147 2.147 1.094 4.736-.139 6.835l-19.213 32.68 29.698 29.675 32.686-19.19c2.092-1.228 4.669-1.284 6.812-.147 6.658 3.53 13.674 6.445 20.854 8.662 2.313.714 4.092 2.575 4.701 4.918l9.532 36.668h41.982l9.532-36.668c.609-2.343 2.388-4.204 4.701-4.918 7.16-2.211 14.19-5.127 20.893-8.668 2.141-1.131 4.715-1.072 6.803.154l32.657 19.188 29.696-29.674-19.212-32.68c-1.234-2.099-1.286-4.688-.139-6.835 3.536-6.618 6.445-13.629 8.645-20.84.71-2.325 2.576-4.115 4.93-4.725l41.898-10.863c3.733-.971 7.548 1.276 8.515 5.011zm-169.911 60.992c38.952 0 73.025-26.286 82.86-63.923.976-3.734-1.26-7.552-4.994-8.528-3.731-.97-7.551 1.26-8.527 4.994-8.229 31.489-36.742 53.481-69.339 53.481-32.571 0-61.085-21.994-69.34-53.486-.979-3.733-4.802-5.966-8.531-4.987-3.733.979-5.966 4.798-4.988 8.531 9.866 37.634 43.939 63.918 82.859 63.918zm201.423-85.661c0 3.859-3.128 6.988-6.987 6.988h-377.556c-3.859 0-6.987-3.129-6.987-6.988s3.129-6.988 6.987-6.988h37.88v-186.232c0-3.163 2.124-5.931 5.178-6.749l138.733-37.199v-58.065c0-3.162 2.123-5.93 5.176-6.749l143.882-38.615c2.099-.565 4.34-.118 6.064 1.205s2.735 3.372 2.735 5.545v326.86h37.908c3.859-.001 6.987 3.127 6.987 6.987zm-188.777-289.874v282.886h17.596v-78.108c0-3.859 3.128-6.988 6.987-6.988h80.739c3.859 0 6.987 3.129 6.987 6.988v78.108h17.597v-317.749zm98.335 211.766h-66.764v7.27h66.764zm-66.764 71.12h26.395v-49.875h-26.395zm40.37 0h26.394v-49.875h-26.394zm-215.852 0h129.936v-215.711l-129.936 34.84zm212.57-224.423v-29.591c0-3.859 3.129-6.988 6.987-6.988h29.676c3.859 0 6.987 3.129 6.987 6.988v29.591c0 3.859-3.129 6.988-6.987 6.988h-29.676c-3.858 0-6.987-3.128-6.987-6.988zm13.975-6.988h15.701v-15.615h-15.701zm-65.038 6.988v-29.591c0-3.859 3.128-6.988 6.987-6.988h29.648c3.859 0 6.987 3.129 6.987 6.988v29.591c0 3.859-3.129 6.988-6.987 6.988h-29.648c-3.859 0-6.987-3.128-6.987-6.988zm13.975-6.988h15.673v-15.615h-15.673zm37.088 57.995v-29.591c0-3.859 3.129-6.988 6.987-6.988h29.676c3.859 0 6.987 3.128 6.987 6.988v29.591c0 3.859-3.129 6.988-6.987 6.988h-29.676c-3.858 0-6.987-3.129-6.987-6.988zm13.975-6.988h15.701v-15.615h-15.701zm-65.038 6.988v-29.591c0-3.859 3.128-6.988 6.987-6.988h29.648c3.859 0 6.987 3.128 6.987 6.988v29.591c0 3.859-3.129 6.988-6.987 6.988h-29.648c-3.859 0-6.987-3.129-6.987-6.988zm13.975-6.988h15.673v-15.615h-15.673zm-13.975 57.994v-29.591c0-3.859 3.128-6.988 6.987-6.988h29.648c3.859 0 6.987 3.128 6.987 6.988v29.591c0 3.859-3.129 6.988-6.987 6.988h-29.648c-3.859 0-6.987-3.129-6.987-6.988zm13.975-6.988h15.673v-15.615h-15.673zm37.088 6.988v-29.591c0-3.859 3.129-6.988 6.987-6.988h29.676c3.859 0 6.987 3.128 6.987 6.988v29.591c0 3.859-3.129 6.988-6.987 6.988h-29.676c-3.858 0-6.987-3.129-6.987-6.988zm13.975-6.988h15.701v-15.615h-15.701zm-114.234-22.603v29.591c0 3.859-3.128 6.988-6.987 6.988h-80.711c-3.859 0-6.987-3.129-6.987-6.988v-29.591c0-3.859 3.129-6.988 6.987-6.988h80.71c3.859 0 6.988 3.128 6.988 6.988zm-13.975 6.988h-66.736v15.615h66.736zm13.975 44.018v29.591c0 3.859-3.128 6.988-6.987 6.988h-80.711c-3.859 0-6.987-3.128-6.987-6.988v-29.591c0-3.859 3.129-6.988 6.987-6.988h80.71c3.859 0 6.988 3.128 6.988 6.988zm-13.975 6.988h-66.736v15.615h66.736zm13.975 44.019v29.591c0 3.859-3.128 6.988-6.987 6.988h-80.711c-3.859 0-6.987-3.129-6.987-6.988v-29.591c0-3.859 3.129-6.988 6.987-6.988h80.71c3.859 0 6.988 3.129 6.988 6.988zm-13.975 6.988h-66.736v15.615h66.736z"/></svg>