<?xml version="1.0" encoding="UTF-8" standalone="no"?>
<!-- Created with Inkscape (http://www.inkscape.org/) -->

<svg
   version="1.1"
   id="svg2856"
   xml:space="preserve"
   width="682.66669"
   height="682.66669"
   viewBox="0 0 682.66669 682.66669"
   xmlns="http://www.w3.org/2000/svg"
   xmlns:svg="http://www.w3.org/2000/svg"><defs
     id="defs2860"><clipPath
       clipPathUnits="userSpaceOnUse"
       id="clipPath2870"><path
         d="M 0,512 H 512 V 0 H 0 Z"
         id="path2868" /></clipPath><clipPath
       clipPathUnits="userSpaceOnUse"
       id="clipPath2898"><path
         d="M 0,512 H 512 V 0 H 0 Z"
         id="path2896" /></clipPath><clipPath
       clipPathUnits="userSpaceOnUse"
       id="clipPath2918"><path
         d="M 0,512 H 512 V 0 H 0 Z"
         id="path2916" /></clipPath></defs><g
     id="g2862"
     transform="matrix(1.3333333,0,0,-1.3333333,0,682.66667)"><g
       id="g2864"><g
         id="g2866"
         clip-path="url(#clipPath2870)"><g
           id="g2872"
           transform="translate(504.5,35.333)"><path
             d="M 0,0 V -27.673 H -206.476 V 257.933 H 0 V 34.334"
             style="fill:none;stroke:#000000;stroke-width:15;stroke-linecap:round;stroke-linejoin:round;stroke-miterlimit:10;stroke-dasharray:none;stroke-opacity:1"
             id="path2874" /></g><g
           id="g2876"
           transform="translate(298.0244,201.8232)"><path
             d="m 0,0 v -194.162 h -290.524 v 111.018 l 75.588,13.775 v 28.137 z"
             style="fill:none;stroke:#000000;stroke-width:15;stroke-linecap:round;stroke-linejoin:round;stroke-miterlimit:10;stroke-dasharray:none;stroke-opacity:1"
             id="path2878" /></g></g></g><g
       id="g2880"
       transform="translate(99.6226,336.6914)"><path
         d="m 0,0 h 11.964 l 3.811,-56.771 3.144,-46.682 4.369,-65.008"
         style="fill:none;stroke:#000000;stroke-width:15;stroke-linecap:round;stroke-linejoin:round;stroke-miterlimit:10;stroke-dasharray:none;stroke-opacity:1"
         id="path2882" /></g><g
       id="g2884"
       transform="translate(40.3384,124.6631)"><path
         d="m 0,0 7.297,108.575 3.132,46.683 3.811,56.77 h 8.754"
         style="fill:none;stroke:#000000;stroke-width:15;stroke-linecap:round;stroke-linejoin:round;stroke-miterlimit:10;stroke-dasharray:none;stroke-opacity:1"
         id="path2886" /></g><g
       id="g2888"
       transform="translate(178.1606,178.8291)"><path
         d="m 0,0 6.198,92.271 2.974,44.331 3.54,52.676 H 69.72 l 3.54,-52.676 2.974,-44.331 2.716,-40.422"
         style="fill:none;stroke:#000000;stroke-width:15;stroke-linecap:round;stroke-linejoin:round;stroke-miterlimit:10;stroke-dasharray:none;stroke-opacity:1"
         id="path2890" /></g><g
       id="g2892"><g
         id="g2894"
         clip-path="url(#clipPath2898)"><path
           d="M 429.8,7.661 H 372.725 V 75.667 H 429.8 Z"
           style="fill:none;stroke:#000000;stroke-width:15;stroke-linecap:round;stroke-linejoin:round;stroke-miterlimit:10;stroke-dasharray:none;stroke-opacity:1"
           id="path2900" /></g></g><path
       d="M 463.272,223.146 H 339.251 v 28.272 h 124.021 z"
       style="fill:none;stroke:#000000;stroke-width:15;stroke-linecap:round;stroke-linejoin:round;stroke-miterlimit:10;stroke-dasharray:none;stroke-opacity:1"
       id="path2902" /><path
       d="m 386.233,165.075 h -46.981 v 28.271 h 46.981 z"
       style="fill:none;stroke:#000000;stroke-width:15;stroke-linecap:round;stroke-linejoin:round;stroke-miterlimit:10;stroke-dasharray:none;stroke-opacity:1"
       id="path2904" /><path
       d="m 463.272,165.075 h -46.981 v 28.271 h 46.981 z"
       style="fill:none;stroke:#000000;stroke-width:15;stroke-linecap:round;stroke-linejoin:round;stroke-miterlimit:10;stroke-dasharray:none;stroke-opacity:1"
       id="path2906" /><path
       d="m 386.233,107.004 h -46.981 v 28.272 h 46.981 z"
       style="fill:none;stroke:#000000;stroke-width:15;stroke-linecap:round;stroke-linejoin:round;stroke-miterlimit:10;stroke-dasharray:none;stroke-opacity:1"
       id="path2908" /><path
       d="m 463.272,107.004 h -46.981 v 28.272 h 46.981 z"
       style="fill:none;stroke:#000000;stroke-width:15;stroke-linecap:round;stroke-linejoin:round;stroke-miterlimit:10;stroke-dasharray:none;stroke-opacity:1"
       id="path2910" /><g
       id="g2912"><g
         id="g2914"
         clip-path="url(#clipPath2918)"><g
           id="g2920"
           transform="translate(504.5,293.2656)"><path
             d="m 0,0 h -74.7 l 17.124,54.192 H 0 Z"
             style="fill:none;stroke:#000000;stroke-width:15;stroke-linecap:round;stroke-linejoin:round;stroke-miterlimit:10;stroke-dasharray:none;stroke-opacity:1"
             id="path2922" /></g><g
           id="g2924"
           transform="translate(309.4805,481.7227)"><path
             d="m 0,0 c 0,-6.254 -2.533,-11.908 -6.627,-15.991 -4.083,-4.094 -9.737,-6.627 -15.991,-6.627 h -22.493 c -0.385,-5.598 -2.827,-10.642 -6.56,-14.373 -4.093,-4.094 -9.748,-6.627 -15.99,-6.627 h -0.589 c -4.263,0 -7.712,-3.449 -7.712,-7.713 v -14.046 c 0,-7.803 -6.333,-14.136 -14.136,-14.136 -3.913,0 -7.441,1.583 -9.997,4.139 -2.556,2.557 -4.139,6.096 -4.139,9.997 v 14.046 c 0,4.264 -3.46,7.713 -7.724,7.713 -6.231,0 -11.999,2.465 -16.217,6.479 -4.218,4.027 -6.898,9.602 -6.977,15.844 -0.079,6.356 2.465,12.123 6.627,16.285 4.093,4.094 9.748,6.627 15.99,6.627 h 22.505 c 0.384,5.598 2.827,10.642 6.559,14.373 4.094,4.094 9.748,6.627 15.991,6.627 h 44.862 C -10.122,22.617 0,12.484 0,0 Z"
             style="fill:none;stroke:#000000;stroke-width:15;stroke-linecap:round;stroke-linejoin:round;stroke-miterlimit:10;stroke-dasharray:none;stroke-opacity:1"
             id="path2926" /></g><g
           id="g2928"
           transform="translate(128.1426,426.6191)"><path
             d="m 0,0 c 0,-6.242 -2.533,-11.896 -6.627,-15.99 -4.094,-4.094 -9.748,-6.627 -15.991,-6.627 h -0.588 c -4.263,0 -7.712,-3.449 -7.712,-7.713 v -14.045 c 0,-7.804 -6.333,-14.137 -14.136,-14.137 -3.902,0 -7.442,1.583 -9.997,4.14 -2.556,2.556 -4.139,6.095 -4.139,9.997 v 14.045 c 0,4.264 -3.45,7.713 -7.713,7.713 -6.243,0 -11.998,2.465 -16.217,6.479 -4.229,4.027 -6.909,9.602 -6.989,15.844 v 0.397 c -12.417,1.074 -22.165,11.511 -22.165,24.211 0,13.424 10.89,24.315 24.314,24.315 13.423,0 24.314,-10.891 24.314,-24.315 0,-0.565 -0.022,-1.13 -0.068,-1.696 h 41.096 C -10.132,22.618 0,12.497 0,0 Z"
             style="fill:none;stroke:#000000;stroke-width:15;stroke-linecap:round;stroke-linejoin:round;stroke-miterlimit:10;stroke-dasharray:none;stroke-opacity:1"
             id="path2930" /></g><g
           id="g2932"
           transform="translate(118.5415,233.2383)"><path
             d="m 0,0 h -70.906 l 3.132,46.683 h 64.63 z"
             style="fill:none;stroke:#000000;stroke-width:15;stroke-linecap:round;stroke-linejoin:round;stroke-miterlimit:10;stroke-dasharray:none;stroke-opacity:1"
             id="path2934" /></g><g
           id="g2936"
           transform="translate(254.3945,271.1006)"><path
             d="m 0,0 h -70.036 l 2.974,44.33 h 64.088 z"
             style="fill:none;stroke:#000000;stroke-width:15;stroke-linecap:round;stroke-linejoin:round;stroke-miterlimit:10;stroke-dasharray:none;stroke-opacity:1"
             id="path2938" /></g><path
           d="m 154.17,111.649 h -26.028 v 26.027 h 26.028 z"
           style="fill:none;stroke:#000000;stroke-width:15;stroke-linecap:round;stroke-linejoin:round;stroke-miterlimit:10;stroke-dasharray:none;stroke-opacity:1"
           id="path2940" /><path
           d="m 207.701,111.649 h -26.027 v 26.027 h 26.027 z"
           style="fill:none;stroke:#000000;stroke-width:15;stroke-linecap:round;stroke-linejoin:round;stroke-miterlimit:10;stroke-dasharray:none;stroke-opacity:1"
           id="path2942" /><path
           d="m 261.232,111.649 h -26.028 v 26.027 h 26.028 z"
           style="fill:none;stroke:#000000;stroke-width:15;stroke-linecap:round;stroke-linejoin:round;stroke-miterlimit:10;stroke-dasharray:none;stroke-opacity:1"
           id="path2944" /><g
           id="g2946"
           transform="translate(52.5,79)"><path
             d="M 0,0 H 208.732"
             style="fill:none;stroke:#000000;stroke-width:15;stroke-linecap:round;stroke-linejoin:round;stroke-miterlimit:10;stroke-dasharray:none;stroke-opacity:1"
             id="path2948" /></g></g></g></g></svg>
