<svg fill='#002e61' id="Layer_1" height="512" viewBox="0 0 512 512" width="512" xmlns="http://www.w3.org/2000/svg" data-name="Layer 1"><path d="m468.21 184.33h-1.39v-77.04c0-2.12-.84-4.16-2.34-5.66l-91.3-91.29c-1.5-1.5-3.54-2.34-5.66-2.34h-168.05c-4.42 0-8 3.58-8 8v168.33h-13.78v-59.82c0-18.22-14.82-33.04-33.04-33.04h-50.07c-18.22 0-33.04 14.82-33.04 33.04v59.82h-17.77c-15.65 0-28.38 12.73-28.38 28.38v262.91c0 15.65 12.73 28.38 28.38 28.38h424.44c15.65 0 28.38-12.73 28.38-28.38v-262.91c0-15.65-12.73-28.38-28.38-28.38zm-92.69-149.02 63.98 63.98h-63.98zm-168.05-11.31h152.05v83.29c0 4.42 3.58 8 8 8h83.29v69.04h-243.34zm-129.91 100.51c0-9.39 7.64-17.04 17.04-17.04h50.07c9.39 0 17.04 7.64 17.04 17.04v263.45c0 9.39-7.64 17.04-17.04 17.04h-50.07c-9.39 0-17.04-7.64-17.04-17.04zm403.04 351.11c0 6.83-5.55 12.38-12.38 12.38h-424.43c-6.83 0-12.38-5.55-12.38-12.38v-262.91c0-6.83 5.55-12.38 12.38-12.38h17.77v187.63c0 18.22 14.82 33.04 33.04 33.04h50.07c18.22 0 33.04-14.82 33.04-33.04v-187.63h290.5c6.83 0 12.38 5.55 12.38 12.38v262.91zm-238.33-178.18h189.8c12.43 0 22.54-10.11 22.54-22.54v-29.45c0-12.43-10.11-22.54-22.54-22.54h-189.81c-12.43 0-22.54 10.11-22.54 22.54v29.45c0 12.43 10.11 22.54 22.54 22.54zm-6.54-51.98c0-3.6 2.93-6.54 6.54-6.54h189.8c3.6 0 6.54 2.93 6.54 6.54v29.45c0 3.6-2.93 6.54-6.54 6.54h-189.81c-3.6 0-6.54-2.93-6.54-6.54v-29.45zm14.21 75.55c-16.66 0-30.21 13.55-30.21 30.21s13.55 30.21 30.21 30.21 30.21-13.55 30.21-30.21-13.55-30.21-30.21-30.21zm0 44.42c-7.83 0-14.21-6.37-14.21-14.21s6.38-14.21 14.21-14.21 14.21 6.37 14.21 14.21-6.38 14.21-14.21 14.21zm174.45-44.42c-16.66 0-30.21 13.55-30.21 30.21s13.55 30.21 30.21 30.21 30.21-13.55 30.21-30.21-13.55-30.21-30.21-30.21zm0 44.42c-7.84 0-14.21-6.37-14.21-14.21s6.38-14.21 14.21-14.21 14.21 6.37 14.21 14.21-6.38 14.21-14.21 14.21zm-87.23-44.42c-16.66 0-30.21 13.55-30.21 30.21s13.55 30.21 30.21 30.21 30.21-13.55 30.21-30.21-13.55-30.21-30.21-30.21zm0 44.42c-7.84 0-14.21-6.37-14.21-14.21s6.38-14.21 14.21-14.21 14.21 6.37 14.21 14.21-6.38 14.21-14.21 14.21zm-87.23 39.57c-16.66 0-30.21 13.55-30.21 30.21s13.55 30.21 30.21 30.21 30.21-13.55 30.21-30.21-13.55-30.21-30.21-30.21zm0 44.42c-7.83 0-14.21-6.37-14.21-14.21s6.38-14.21 14.21-14.21 14.21 6.38 14.21 14.21-6.38 14.21-14.21 14.21zm174.45-44.42c-16.66 0-30.21 13.55-30.21 30.21s13.55 30.21 30.21 30.21 30.21-13.55 30.21-30.21-13.55-30.21-30.21-30.21zm0 44.42c-7.84 0-14.21-6.37-14.21-14.21s6.38-14.21 14.21-14.21 14.21 6.38 14.21 14.21-6.38 14.21-14.21 14.21zm-87.23-44.42c-16.66 0-30.21 13.55-30.21 30.21s13.55 30.21 30.21 30.21 30.21-13.55 30.21-30.21-13.55-30.21-30.21-30.21zm0 44.42c-7.84 0-14.21-6.37-14.21-14.21s6.38-14.21 14.21-14.21 14.21 6.38 14.21 14.21-6.38 14.21-14.21 14.21z"/></svg>