<svg width="21" height="21" viewBox="0 0 21 21" fill="none" xmlns="http://www.w3.org/2000/svg">
<path d="M20.5002 20.5V13.175C20.5002 9.57495 19.7252 6.82495 15.5252 6.82495C13.5002 6.82495 12.1502 7.92495 11.6002 8.97495H11.5502V7.14995H7.5752V20.5H11.7252V13.875C11.7252 12.125 12.0502 10.45 14.2002 10.45C16.3252 10.45 16.3502 12.425 16.3502 13.975V20.475H20.5002V20.5Z" fill="white"/>
<path d="M0.825195 7.1499H4.97519V20.4999H0.825195V7.1499Z" fill="white"/>
<path d="M2.9 0.5C1.575 0.5 0.5 1.575 0.5 2.9C0.5 4.225 1.575 5.325 2.9 5.325C4.225 5.325 5.3 4.225 5.3 2.9C5.3 1.575 4.225 0.5 2.9 0.5Z" fill="white"/>
</svg>
