<svg width="28" height="19" viewBox="0 0 28 19" fill="none" xmlns="http://www.w3.org/2000/svg">
<path d="M26.5704 3.43889C26.2679 2.31432 25.3813 1.42784 24.2569 1.12503C22.2027 0.562988 13.986 0.562988 13.986 0.562988C13.986 0.562988 5.76958 0.562988 3.71544 1.10372C2.61266 1.40621 1.70439 2.31448 1.4019 3.43889C0.861328 5.49287 0.861328 9.75257 0.861328 9.75257C0.861328 9.75257 0.861328 14.0337 1.4019 16.0663C1.70471 17.1907 2.59103 18.0771 3.7156 18.38C5.79121 18.9422 13.9863 18.9422 13.9863 18.9422C13.9863 18.9422 22.2027 18.9422 24.2569 18.4014C25.3815 18.0988 26.2679 17.2123 26.5708 16.0879C27.1112 14.0337 27.1112 9.7742 27.1112 9.7742C27.1112 9.7742 27.1328 5.49287 26.5704 3.43889ZM11.37 13.6878V5.81731L18.2026 9.75257L11.37 13.6878Z" fill="white"/>
</svg>
