<svg width="25" height="25" viewBox="0 0 25 25" fill="none" xmlns="http://www.w3.org/2000/svg">
<g clip-path="url(#clip0_966_1059)">
<path d="M11.8422 3.0365C6.24718 3.0365 1.7207 7.57816 1.7207 13.158C1.7207 18.7248 6.23082 23.2794 11.8422 23.2794C17.4352 23.2794 21.9636 18.7391 21.9636 13.158C21.9636 7.58176 17.4398 3.0365 11.8422 3.0365ZM18.9894 19.126C18.1972 18.7188 17.2994 18.4008 16.4269 18.1743C16.8357 16.7793 17.0681 15.2052 17.1009 13.5628H21.1451C21.0567 15.6053 20.3011 17.5568 18.9894 19.126ZM4.69487 19.126C3.38321 17.5567 2.62763 15.6053 2.53921 13.5628H6.58337C6.61625 15.2052 6.8486 16.7793 7.25742 18.1743C6.3841 18.4012 5.50135 18.7131 4.69487 19.126ZM4.69487 7.18986C5.50006 7.60237 6.3854 7.91464 7.25742 8.14164C6.8486 9.53666 6.61625 11.1107 6.58337 12.7531H2.53921C2.62763 10.7105 3.38321 8.75913 4.69487 7.18986ZM16.1767 7.37132C15.7667 6.22848 15.1566 5.03496 14.303 4.17864C15.848 4.60302 17.2711 5.42205 18.4204 6.5684C17.7179 6.90743 16.9122 7.18743 16.1767 7.37132ZM12.247 7.8901V3.88618C13.2357 4.0799 14.1709 4.97937 14.9154 6.46836C15.0856 6.80893 15.2411 7.17144 15.3816 7.55249C14.3496 7.75958 13.291 7.868 12.247 7.8901ZM11.4373 7.8901C10.3845 7.86784 9.32297 7.75763 8.30277 7.55249C8.44313 7.1714 8.59868 6.80889 8.76892 6.46836C9.51342 4.97937 10.4486 4.07986 11.4373 3.88618V7.8901ZM11.4373 8.69998V12.7531H7.39321C7.42605 11.1688 7.65127 9.65662 8.04649 8.32557C9.0952 8.54261 10.2427 8.67569 11.4373 8.69998ZM11.4373 13.5628V17.6159C10.309 17.6389 9.14706 17.7616 8.04653 17.9903C7.65127 16.6593 7.42605 15.1471 7.39321 13.5628H11.4373ZM11.4373 18.4258V22.4297C10.4486 22.236 9.51342 21.3365 8.76892 19.8476C8.59864 19.507 8.44313 19.1445 8.30277 18.7634C9.28366 18.5654 10.3511 18.4488 11.4373 18.4258ZM12.247 18.4258C13.3307 18.4487 14.3938 18.5644 15.3816 18.7634C15.2411 19.1445 15.0856 19.507 14.9154 19.8476C14.1709 21.3365 13.2357 22.236 12.247 22.4297V18.4258ZM12.247 17.6159V13.5628H16.2911C16.2583 15.1471 16.0331 16.6593 15.6378 17.9903C14.5953 17.7738 13.4401 17.6402 12.247 17.6159ZM12.247 12.7531V8.69998C13.4551 8.67541 14.5982 8.54043 15.6378 8.32557C16.0331 9.65658 16.2583 11.1688 16.2911 12.7531H12.247ZM7.50767 7.37132C6.74856 7.17962 5.96674 6.90812 5.2639 6.5684C6.41317 5.42205 7.83633 4.60302 9.38135 4.17864C8.52645 5.03622 7.91661 6.23128 7.50767 7.37132ZM7.50767 18.9446C7.91645 20.0844 8.52637 21.2797 9.38135 22.1373C7.83633 21.7129 6.41317 20.8938 5.2639 19.7475C5.96779 19.4071 6.74997 19.1369 7.50767 18.9446ZM16.1766 18.9446C16.9021 19.1259 17.7182 19.4077 18.4204 19.7475C17.2711 20.8938 15.848 21.7129 14.303 22.1373C15.1579 21.2796 15.7679 20.0843 16.1766 18.9446ZM17.1009 12.7531C17.0681 11.1107 16.8357 9.53666 16.4269 8.14164C17.314 7.91128 18.2024 7.5935 18.9894 7.1899C20.3011 8.75913 21.0567 10.7106 21.1451 12.7531H17.1009V12.7531Z" fill="white"/>
</g>
<defs>
<clipPath id="clip0_966_1059">
<rect width="21.0526" height="21.0526" fill="white" transform="translate(1.31592 2.63159)"/>
</clipPath>
</defs>
</svg>
