<svg id="Capa_1" enable-background="new 0 0 511.977 511.977" height="512" viewBox="0 0 511.977 511.977" width="512" xmlns="http://www.w3.org/2000/svg"><g><path d="m255.97 119.988c8.284 0 15-6.716 15-15v-53c0-8.284-6.716-15-15-15s-15 6.716-15 15v53c0 8.284 6.716 15 15 15z"/><path d="m173.238 145.47c5.857 5.858 15.355 5.859 21.213 0 5.858-5.858 5.858-15.355 0-21.213l-37.476-37.477c-5.857-5.858-15.355-5.858-21.213 0s-5.858 15.355 0 21.213z"/><path d="m328.095 149.863c3.839 0 7.678-1.464 10.606-4.394l37.477-37.477c5.858-5.858 5.858-15.355 0-21.213-5.857-5.858-15.355-5.858-21.213 0l-37.477 37.477c-9.477 9.477-2.636 25.607 10.607 25.607z"/><path d="m386.998 316.988-36.711-117.474c-1.957-6.262-7.757-10.526-14.317-10.526h-160c-6.561 0-12.36 4.264-14.317 10.526l-36.711 117.474z"/><path d="m477.373 346.988c-18.404 0-151.013 0-170.375 0-38.888 124.439-36.028 114.539-36.028 116.972 0 6.09 4.936 11.028 11.027 11.028h214.622c10.839 0 17.61-10.056 14.668-19.474z"/><path d="m240.468 460.672-35.526-113.684c-20.498 0-152.435 0-170.375 0l-33.812 108.197c-3.228 10.329 4.338 19.803 14.215 19.803h214.973c7.433 0 12.742-7.22 10.525-14.316z"/></g></svg>