<svg width="8" height="14" viewBox="0 0 8 14" fill="none" xmlns="http://www.w3.org/2000/svg">
<path d="M5.77965 12.9461L0.244403 7.20886C0.166998 7.12891 0.105582 7.03391 0.0636756 6.9293C0.0217692 6.8247 0.00019664 6.71255 0.000196645 6.59928C0.00019665 6.48602 0.0217692 6.37387 0.0636756 6.26926C0.105582 6.16466 0.166998 6.06965 0.244403 5.9897L5.77965 0.252496C5.93563 0.0908254 6.14719 -4.84375e-08 6.36778 -3.63862e-08C6.58836 -2.43349e-08 6.79992 0.0908255 6.9559 0.252496C7.11188 0.414166 7.1995 0.633438 7.1995 0.862074C7.1995 1.09071 7.11188 1.30998 6.9559 1.47165L2.00807 6.6L6.95659 11.7283C7.11257 11.89 7.20019 12.1093 7.20019 12.3379C7.20019 12.5666 7.11257 12.7858 6.95659 12.9475C6.80061 13.1092 6.58905 13.2 6.36847 13.2C6.14788 13.2 5.93633 13.1092 5.78035 12.9475L5.77965 12.9461Z" fill="#033750"/>
</svg>
