<svg width="21" height="20" viewBox="0 0 21 20" fill="none" xmlns="http://www.w3.org/2000/svg">
<g clip-path="url(#clip0_707_609)">
<path d="M14.961 0.952148H5.83236C2.86136 0.952148 0.444336 3.2593 0.444336 6.09527V14.8091C0.444336 17.645 2.86136 19.9521 5.83236 19.9521H14.9612C17.932 19.9521 20.3491 17.645 20.3491 14.8091V6.09527C20.3491 3.2593 17.932 0.952148 14.961 0.952148ZM19.1822 14.8091C19.1822 17.0308 17.2886 18.8383 14.961 18.8383H5.83236C3.50479 18.8383 1.61124 17.0308 1.61124 14.8091V6.09527C1.61124 3.87349 3.50479 2.06601 5.83236 2.06601H14.9612C17.2886 2.06601 19.1822 3.87349 19.1822 6.09527V14.8091Z" fill="#033750"/>
<path d="M10.3966 5.25708C7.39557 5.25708 4.9541 7.58757 4.9541 10.4522C4.9541 13.3169 7.39557 15.6474 10.3966 15.6474C13.3977 15.6474 15.8392 13.3169 15.8392 10.4522C15.8392 7.58757 13.3977 5.25708 10.3966 5.25708ZM10.3966 14.5335C8.03916 14.5335 6.121 12.7027 6.121 10.4522C6.121 8.20191 8.03916 6.37094 10.3966 6.37094C12.7543 6.37094 14.6723 8.20191 14.6723 10.4522C14.6723 12.7027 12.7543 14.5335 10.3966 14.5335Z" fill="#033750"/>
<path d="M15.9695 3.41187C15.0827 3.41187 14.3613 4.10056 14.3613 4.94697C14.3613 5.79353 15.0827 6.48223 15.9695 6.48223C16.8564 6.48223 17.5779 5.79353 17.5779 4.94697C17.5779 4.10042 16.8564 3.41187 15.9695 3.41187ZM15.9695 5.36822C15.7263 5.36822 15.5282 5.1792 15.5282 4.94697C15.5282 4.7146 15.7263 4.52572 15.9695 4.52572C16.213 4.52572 16.411 4.7146 16.411 4.94697C16.411 5.1792 16.213 5.36822 15.9695 5.36822Z" fill="#033750"/>
</g>
<defs>
<clipPath id="clip0_707_609">
<rect width="19.9048" height="19" fill="white" transform="translate(0.444336 0.952148)"/>
</clipPath>
</defs>
</svg>
