<svg width="62" height="62" viewBox="0 0 62 62" fill="none" xmlns="http://www.w3.org/2000/svg">
<circle cx="31" cy="31" r="31" fill="white"/>
<circle cx="31" cy="31" r="30.5" stroke="#343434" stroke-opacity="0.25"/>
<path d="M40.1248 30.7201L23.2715 30.7201L28.344 25.6477C28.4355 25.5592 28.5085 25.4535 28.5588 25.3366C28.609 25.2197 28.6354 25.0939 28.6365 24.9667C28.6376 24.8394 28.6134 24.7132 28.5652 24.5954C28.517 24.4777 28.4459 24.3707 28.3559 24.2807C28.2659 24.1907 28.1589 24.1195 28.0411 24.0714C27.9234 24.0232 27.7972 23.9989 27.6699 24C27.5427 24.0011 27.4169 24.0276 27.3 24.0778C27.1831 24.128 27.0773 24.201 26.9889 24.2926L20.2806 31.0009C20.1009 31.1806 20 31.4243 20 31.6784C20 31.9326 20.1009 32.1763 20.2806 32.356L26.9889 39.0643C27.1697 39.2389 27.4117 39.3355 27.663 39.3333C27.9143 39.3311 28.1546 39.2303 28.3323 39.0526C28.51 38.875 28.6108 38.6346 28.613 38.3833C28.6152 38.1321 28.5186 37.89 28.344 37.7092L23.2715 32.6368H40.1248C40.379 32.6368 40.6227 32.5358 40.8024 32.3561C40.9822 32.1764 41.0831 31.9326 41.0831 31.6784C41.0831 31.4243 40.9822 31.1805 40.8024 31.0008C40.6227 30.8211 40.379 30.7201 40.1248 30.7201Z" fill="#343434"/>
</svg>
