<svg width="78" height="78" viewBox="0 0 78 78" fill="none" xmlns="http://www.w3.org/2000/svg">
<path d="M31.6875 34.125C31.6875 34.7714 31.9443 35.3914 32.4015 35.8485C32.8586 36.3057 33.4786 36.5625 34.125 36.5625H41.4375V43.875C41.4375 44.5214 41.6943 45.1414 42.1515 45.5985C42.6086 46.0557 43.2286 46.3125 43.875 46.3125C44.5215 46.3125 45.1415 46.0557 45.5986 45.5985C46.0557 45.1414 46.3125 44.5214 46.3125 43.875V36.5625H53.625C54.2715 36.5625 54.8915 36.3057 55.3486 35.8485C55.8057 35.3914 56.0625 34.7714 56.0625 34.125C56.0625 33.4785 55.8057 32.8585 55.3486 32.4014C54.8915 31.9443 54.2715 31.6875 53.625 31.6875H46.3125V24.375C46.3125 23.7285 46.0557 23.1085 45.5986 22.6514C45.1415 22.1943 44.5215 21.9375 43.875 21.9375C43.2286 21.9375 42.6086 22.1943 42.1515 22.6514C41.6943 23.1085 41.4375 23.7285 41.4375 24.375V31.6875H34.125C33.4786 31.6875 32.8586 31.9443 32.4015 32.4014C31.9443 32.8585 31.6875 33.4785 31.6875 34.125ZM8.0255 69.9745C8.25188 70.2011 8.52071 70.3809 8.81662 70.5036C9.11253 70.6262 9.42971 70.6894 9.75004 70.6894C10.0704 70.6894 10.3875 70.6262 10.6835 70.5036C10.9794 70.3809 11.2482 70.2011 11.4746 69.9745L26.7272 54.7188C32.0358 59.1405 38.8447 61.3454 45.7375 60.8748C52.6303 60.4042 59.0763 57.2943 63.7347 52.1921C68.393 47.09 70.9049 40.3883 70.7479 33.4812C70.591 26.5741 67.7772 19.9934 62.8919 15.1081C58.0066 10.2228 51.4259 7.40903 44.5188 7.25205C37.6117 7.09508 30.91 9.60703 25.8079 14.2653C20.7057 18.9237 17.5958 25.3697 17.1252 32.2625C16.6546 39.1553 18.8595 45.9642 23.2812 51.2728L8.0255 66.5254C7.79887 66.7518 7.61908 67.0206 7.49642 67.3165C7.37375 67.6125 7.31062 67.9296 7.31062 68.25C7.31062 68.5703 7.37375 68.8875 7.49642 69.1834C7.61908 69.4793 7.79887 69.7481 8.0255 69.9745ZM43.875 56.0625C39.5362 56.0625 35.2948 54.7759 31.6872 52.3653C28.0796 49.9548 25.2678 46.5286 23.6074 42.5201C21.947 38.5115 21.5126 34.1006 22.3591 29.8452C23.2055 25.5897 25.2949 21.6808 28.3629 18.6128C31.4309 15.5448 35.3398 13.4554 39.5952 12.609C43.8507 11.7625 48.2616 12.197 52.2702 13.8574C56.2787 15.5178 59.7049 18.3295 62.1154 21.9371C64.5259 25.5447 65.8125 29.7861 65.8125 34.125C65.8061 39.9412 63.4927 45.5173 59.3801 49.63C55.2674 53.7427 49.6912 56.056 43.875 56.0625Z" fill="white"/>
</svg>
