<svg width="101" height="101" viewBox="0 0 101 101" fill="none" xmlns="http://www.w3.org/2000/svg">
<g clip-path="url(#clip0_190_35047)">
<path d="M100.878 56.3026C100.131 51.1319 96.0694 47.0699 90.8987 46.3235V43.2633C90.8987 34.8198 84.4802 27.9452 76.5906 27.9452C68.9281 27.9452 62.513 34.6111 62.2824 42.8054H62.3801L62.2824 42.8223V75.9952C62.2824 86.6001 54.354 95.2119 44.6077 95.2119C34.8613 95.2119 26.9329 86.5883 26.9329 75.9952V73.1218C29.3737 73.1218 31.9829 71.3527 31.9829 66.3886V62.1551C42.7863 59.3927 50.4993 50.116 50.4993 39.5987V36.089H47.1326L47.062 14.1808C47.0375 10.1255 44.1275 6.66289 40.1368 5.94096C39.276 3.30385 36.4403 1.86378 33.8029 2.72479C31.1658 3.58559 29.7258 6.42134 30.5868 9.05866C31.4476 11.6958 34.2833 13.1358 36.9206 12.2748C38.3327 11.8138 39.4683 10.7514 40.0224 9.37323C42.1789 9.9868 43.6728 11.9487 43.6903 14.1909L43.766 36.089H40.3994V39.6475C40.2652 45.5027 36.3397 50.5909 30.7103 52.2067C27.6982 53.1624 24.4642 53.1624 21.4521 52.2067C15.8292 50.5855 11.9126 45.4981 11.7832 39.6475V36.089H6.73324V14.206C6.74291 11.9308 8.27304 9.94282 10.4702 9.35135C11.4947 11.9594 14.4394 13.2429 17.0475 12.2184C19.6556 11.1939 20.9391 8.24899 19.9146 5.64112C18.8901 3.03326 15.9451 1.74953 13.3373 2.77403C11.9241 3.32931 10.8338 4.48806 10.3658 5.93255C6.33156 6.62186 3.37777 10.1133 3.36662 14.206V36.089H0V39.5903C0 50.1194 7.71797 59.3995 18.5164 62.1551V66.3886C18.5164 71.3527 21.1255 73.1218 23.5663 73.1218V75.9952C23.5663 88.4517 33.0046 98.5785 44.6077 98.5785C56.2107 98.5785 65.649 88.4399 65.649 75.9952V42.9031C65.8174 36.5149 70.7293 31.3168 76.5906 31.3168C82.6235 31.3168 87.5321 36.6765 87.5321 43.2683V46.3235C81.0911 47.2532 76.6234 53.2283 77.553 59.6692C78.4826 66.1102 84.4577 70.5779 90.8987 69.6483C97.3396 68.7187 101.807 62.7434 100.878 56.3026ZM35.3495 9.15608C34.4199 9.15608 33.6662 8.40238 33.6662 7.47278C33.6662 6.54317 34.4199 5.78947 35.3495 5.78947C36.2791 5.78947 37.0328 6.54317 37.0328 7.47278C37.0328 8.40238 36.2791 9.15608 35.3495 9.15608ZM15.1498 5.78947C16.0794 5.78947 16.8331 6.54317 16.8331 7.47278C16.8331 8.40238 16.0794 9.15608 15.1498 9.15608C14.2202 9.15608 13.4665 8.40238 13.4665 7.47278C13.4665 6.54317 14.2202 5.78947 15.1498 5.78947ZM3.36662 39.5903V39.4556H8.41654V39.6475C8.54279 46.9638 13.4103 53.3488 20.432 55.4084C24.1115 56.5734 28.061 56.5734 31.7405 55.4084C38.7656 53.3516 43.6375 46.9664 43.766 39.6475V39.4556H47.1326V39.5903C47.1326 48.9546 39.9146 57.1943 29.9629 59.1874C27.626 59.6553 25.2324 59.7728 22.861 59.5358C22.0804 59.4601 21.3044 59.3427 20.5364 59.184C10.5846 57.1944 3.36662 48.9546 3.36662 39.5903ZM23.5663 69.7552C22.0513 69.7552 21.883 67.3986 21.883 66.3886V62.8166C22.0177 62.8334 22.1557 62.8402 22.2921 62.8536C22.4604 62.8722 22.6287 62.8856 22.7971 62.9008C23.5933 62.9715 24.3962 63.0186 25.2059 63.0203H25.29C26.098 63.0203 26.8993 62.9715 27.6904 62.9008C27.8588 62.8856 28.0372 62.8722 28.2106 62.8536C28.3436 62.8385 28.4816 62.8334 28.6146 62.8166V66.3886C28.6146 67.3986 28.4462 69.7552 26.9313 69.7552H23.5663ZM89.2154 66.3886C84.5671 66.3886 80.7988 62.6203 80.7988 57.972C80.7988 53.3238 84.5671 49.5555 89.2154 49.5555C93.8636 49.5555 97.6319 53.3238 97.6319 57.972C97.6264 62.6182 93.8613 66.3831 89.2154 66.3886Z" fill="#002E61"/>
<path d="M89.2159 52.9221C86.4269 52.9221 84.166 55.183 84.166 57.972C84.166 60.7611 86.4269 63.022 89.2159 63.022C92.005 63.022 94.2659 60.7611 94.2659 57.972C94.2659 55.183 92.005 52.9221 89.2159 52.9221ZM89.2159 59.6554C88.2863 59.6554 87.5326 58.9017 87.5326 57.972C87.5326 57.0424 88.2863 56.2887 89.2159 56.2887C90.1455 56.2887 90.8993 57.0424 90.8993 57.972C90.8993 58.9017 90.1455 59.6554 89.2159 59.6554Z" fill="#002E61"/>
</g>
<defs>
<clipPath id="clip0_190_35047">
<rect width="101" height="101" fill="white"/>
</clipPath>
</defs>
</svg>
