<svg enable-background="new 0 0 509 509" height="512" viewBox="0 0 509 509" width="512" xmlns="http://www.w3.org/2000/svg"><g id="_x31_3_minimize"><g id="XMLID_71_"><path id="XMLID_95_" d="m299 69h140v140c0 5.523 4.478 10 10 10s10-4.477 10-10v-150c0-5.523-4.478-10-10-10h-150c-5.522 0-10 4.477-10 10s4.478 10 10 10z"/><path id="XMLID_139_" d="m59 219c5.523 0 10-4.477 10-10v-140h140c5.523 0 10-4.477 10-10s-4.477-10-10-10h-150c-5.523 0-10 4.477-10 10v150c0 5.523 4.477 10 10 10z"/><path id="XMLID_140_" d="m59 459h150c5.523 0 10-4.478 10-10s-4.477-10-10-10h-140v-150c0-5.522-4.477-10-10-10s-10 4.478-10 10v160c0 5.522 4.477 10 10 10z"/><path id="XMLID_141_" d="m449 279c-5.522 0-10 4.478-10 10v150h-140c-5.522 0-10 4.478-10 10s4.478 10 10 10h150c5.522 0 10-4.478 10-10v-160c0-5.522-4.478-10-10-10z"/><path id="XMLID_142_" d="m144 282c-5.523 0-10 4.478-10 10s4.477 10 10 10h46.857l-88.962 88.962c-3.905 3.905-3.905 10.237 0 14.143 1.953 1.952 4.512 2.929 7.071 2.929s5.119-.977 7.071-2.929l88.963-88.962v46.857c0 5.522 4.477 10 10 10s10-4.478 10-10v-71c0-5.522-4.477-10-10-10z"/><path id="XMLID_166_" d="m292 226h71c5.522 0 10-4.477 10-10s-4.478-10-10-10h-46.857l88.962-88.962c3.905-3.905 3.905-10.237 0-14.143-3.906-3.904-10.236-3.904-14.143 0l-88.962 88.962v-46.857c0-5.523-4.478-10-10-10s-10 4.477-10 10v71c0 5.523 4.478 10 10 10z"/><path id="XMLID_169_" d="m509 10c0-5.523-4.477-10-10-10h-489c-5.523 0-10 4.477-10 10v489c0 5.523 4.477 10 10 10h489c5.523 0 10-4.477 10-10zm-20 478h-469v-468h469z"/></g></g></svg>