<svg height="512" viewBox="0 0 56 56" width="512" xmlns="http://www.w3.org/2000/svg"><g id="Page-1" fill="none" fill-rule="evenodd"><g id="059---Money-Bag" fill="rgb(0,0,0)" fill-rule="nonzero"><path id="Shape" d="m15 22.769c-1.7012299.8646888-3.5924826 1.2879855-5.5 1.231-1.9075174.0569855-3.79877005-.3663112-5.5-1.231v22.306c.49841352-.050303.99905458-.0753351 1.5-.075 1.9075174-.0569855 3.79877005.3663112 5.5 1.231v-7.231c0-1.6 1.584-2.916 4-3.565z"/><ellipse id="Oval" cx="5.5" cy="49" rx="5.5" ry="2"/><path id="Shape" d="m0 51.769v2.231c0 .8 2.193 2 5.5 2s5.5-1.2 5.5-2v-2.231c-1.70122995.8646888-3.5924826 1.2879855-5.5 1.231-1.9075174.0569855-3.79877005-.3663112-5.5-1.231z"/><path id="Shape" d="m29.521 9.13c.7395522.55531931 1.6381806.85790079 2.563.863-.8665395-1.48811981-1.5523891-3.07433586-2.043-4.725-.1482884-.53212635.1628737-1.08371153.695-1.23199998.5321264-.14828845 1.0837115.16287363 1.232.69499998.5569209 1.8787621 1.4085154 3.65722088 2.523 5.269h1.028c1.1165986-1.6100503 1.9680538-3.38858573 2.522-5.268.1480123-.5324025.6995975-.84401231 1.232-.696s.8440123.6995975.696 1.232c-.4901396 1.64924369-1.1753161 3.23411298-2.041 4.721.9064218-.01387983 1.7851374-.31460363 2.51-.859 2.341-1.83 3.162-4.74 3.432-6.86.053948-.36329284-.114072-.72372907-.427-.916-.3449102-.22490066-.7900898-.22490066-1.135 0-.7005135.43930274-1.514328.66387522-2.341.646-1.1584285.00936153-2.2760177-.42750448-3.121-1.22-.4943009-.49906005-1.1675796-.77983262-1.87-.77983262s-1.3756991.28077257-1.87.77983262c-.8449546.79190244-1.9619922 1.22869278-3.12 1.22-.8226982.01814444-1.6326996-.20504049-2.33-.642-.1690784-.10807003-.3653371-.16597677-.566-.167-.203357.00068586-.4023646.05893198-.574.168-.3116726.19180459-.4788899.5510267-.425.913.273 2.12 1.091 5.028 3.43 6.858z"/><ellipse id="Oval" cx="15.5" cy="6" rx="5.5" ry="2"/><ellipse id="Oval" cx="9.5" cy="20" rx="5.5" ry="2"/><path id="Shape" d="m55.217 32.229c-3.254-13.811-11.942-19.461-14.585-20.891-.4868291.2366272-1.0020487.4097114-1.533.515l1.857 1.733c.1941139.180948.3083445.4316323.3175351.6968453.0091905.265213-.0874128.5232035-.2685351.7171547-.180948.1941139-.4316323.3083445-.6968453.3175351-.265213.0091905-.5232035-.0874128-.7171547-.2685351l-3.266-3.049h-.32v3c0 .5522847-.4477153 1-1 1s-1-.4477153-1-1v-3h-.32l-3.266 3.049c-.1939512.1811223-.4519417.2777256-.7171547.2685351-.265213-.0091906-.5158973-.1234212-.6968453-.3175351-.1812489-.1938215-.2780279-.4517361-.269025-.7169471s.1230495-.5159689.317025-.6970529l1.847-1.723c-.5345659-.1039677-1.0535059-.2763875-1.544-.513-2.4863915 1.4009768-4.728059 3.1974857-6.637 5.319-.008.008-.015.017-.023.026-.730191.7976934-1.4171732 1.6338889-2.058 2.505-.3312844.4310443-.9462409.5184648-1.3845255.1968205-.4382846-.3216444-.5393206-.934511-.2274745-1.3798205.653-.89 1.316-1.693 1.974-2.43v-6.82c-1.7010495.86538074-3.5923114 1.2893673-5.5 1.233-1.9075174.0569855-3.7987701-.36631125-5.5-1.231v7.244c4.023.129 7 1.8 7 3.987v15.075c.4984135-.050303.9990546-.0753351 1.5-.075 4.275 0 7.5 1.72 7.5 4v11h18.19c1.045 0 6.417-.2 9.512-4.1 2.42-3.06 2.93-7.659 1.515-13.671zm-15.217-.229c0 2.209139-1.790861 4-4 4v1c0 .5522847-.4477153 1-1 1s-1-.4477153-1-1v-1c-2.209139 0-4-1.790861-4-4 0-.5522847.4477153-1 1-1s1 .4477153 1 1c0 1.1045695.8954305 2 2 2v-4c-2.209139 0-4-1.790861-4-4s1.790861-4 4-4v-1c0-.5522847.4477153-1 1-1s1 .4477153 1 1v1c2.209139 0 4 1.790861 4 4 0 .5522847-.4477153 1-1 1s-1-.4477153-1-1c0-1.1045695-.8954305-2-2-2v4c2.209139 0 4 1.790861 4 4zm12.135 12.653c-2.524 3.186-7.061 3.347-7.945 3.347-.5522847 0-1-.4477153-1-1s.4477153-1 1-1c.723 0 4.425-.125 6.376-2.589.9225786-1.3035875 1.4145252-2.8629918 1.407-4.46.0332885-.5485091.4978261-.970453 1.047-.951.2649656.0126906.5140321.1301392.6923876.326499.1783554.1963597.2713838.4555393.2586124.720501-.0084762 2.0150456-.6508108 3.9763353-1.836 5.606z"/><path id="Shape" d="m32 26c0 1.1045695.8954305 2 2 2v-4c-1.1045695 0-2 .8954305-2 2z"/><path id="Shape" d="m36 34c1.1045695 0 2-.8954305 2-2s-.8954305-2-2-2z"/><path id="Shape" d="m13 41.769v10.231c0 .8 2.193 2 5.5 2s5.5-1.2 5.5-2v-10.231c-1.7012299.8646888-3.5924826 1.2879855-5.5 1.231-1.9075174.0569855-3.7987701-.3663112-5.5-1.231z"/><ellipse id="Oval" cx="18.5" cy="39" rx="5.5" ry="2"/><path id="Shape" d="m47.7 7c0 1.64-1.78 2.98-4 3-.3732766.0007419-.7455064-.03949918-1.11-.12-.0531815.06708134-.1174406.1245763-.19.17.16.1.34.21.53.32.61.4 1.32.89 2.1 1.5.08.06.15.12.23.19 4.98.37 6.56 2.45 6.61 2.51.1885255.2717806.4992449.4327557.83.43.1966104.0023152.3889872-.0571467.55-.17.456275-.3051825.5812473-.9211173.28-1.38-.08-.12-1.46-2.1-5.49-3.01 1.028751-.84953407 1.6350941-2.1060523 1.66-3.44-.1368377-2.21939212-1.6803222-4.10139542-3.83-4.67-.0017061.06706987-.0083911.13392041-.02.2-.0769672.60960039-.1905053 1.21402355-.34 1.81 1.2080671.35115808 2.0773385 1.40698546 2.19 2.66z"/></g></g></svg>