<svg id="line" height="512" viewBox="0 0 64 64" width="512" xmlns="http://www.w3.org/2000/svg"><path d="m46.55639 31.8378a13.35935 13.35935 0 0 0 -7.42126 2.2446 24.92852 24.92852 0 0 0 -4.75495-1.66566 14.22384 14.22384 0 0 0 -5.92209-27.16069c-15.34189.23471-19.61955 20.73324-5.91325 27.165a25.43191 25.43191 0 0 0 -18.15291 16.49349c-1.64949 4.38321 2.15516 9.3758 6.78211 9.24182l31.54329.00012a13.43965 13.43965 0 1 0 3.83906-26.31868zm-30.33321-12.34764a12.24876 12.24876 0 0 1 12.23491-12.23491c16.23032.67222 16.22611 23.79942-.00013 24.46932a12.24862 12.24862 0 0 1 -12.23478-12.23441zm-5.04926 36.66711c-3.29557.09695-6.072-3.45566-4.89052-6.59461a23.43479 23.43479 0 0 1 22.17469-15.83888 23.11668 23.11668 0 0 1 8.91938 1.76315c-6.15913 5.47855-5.44255 16.03857 1.313 20.67028zm35.38247.5657a11.45584 11.45584 0 0 1 -11.44323-11.44274c.6283-15.18081 22.25986-15.17685 22.886.00006a11.45572 11.45572 0 0 1 -11.44277 11.44271z"/><path d="m54.68061 44.50173-4.998-4.02721a.99989.99989 0 0 0 -1.25433 1.557l2.79138 2.24911h-12.1603a.99961.99961 0 1 0 0 1.99921h12.1601l-2.79126 2.24862a1.00613 1.00613 0 0 0 .62775 1.778.99576.99576 0 0 0 .62664-.221l4.998-4.02673a1.00664 1.00664 0 0 0 .00002-1.557z"/></svg>