<?xml version="1.0"?>
<svg xmlns="http://www.w3.org/2000/svg" viewBox="0 0 64 64" width="512" height="512"><g id="outline"><path d="M16.5,16a1,1,0,0,0,1-1V7a3.0033,3.0033,0,0,1,3-3H26a1,1,0,0,0,0-2H20.5a5.0059,5.0059,0,0,0-5,5v8A1,1,0,0,0,16.5,16Z"/><path d="M36.8618,46a1,1,0,0,0-1-1H21.5V43.0215a1,1,0,0,0-2,0V46a1,1,0,0,0,1,1H35.8618A1,1,0,0,0,36.8618,46Z"/><path d="M56.2783,31.3643,49.5,24.5859V7a5.0059,5.0059,0,0,0-5-5H31a1,1,0,0,0,0,2H44.5a3.0033,3.0033,0,0,1,3,3V35a1,1,0,0,0,2,0V27.4141l5.3643,5.3642A8.9411,8.9411,0,0,1,57.5,39.1421V60h-20V52.1362A5.1422,5.1422,0,0,1,42.6362,47a1,1,0,0,0,.7071-1.707l-8.4146-8.4141a3.5,3.5,0,0,1,4.95-4.95l11.41,11.41a1,1,0,0,0,1.414-1.4141L45.5,34.7219V7a1,1,0,0,0-1-1h-5a1,1,0,0,0-1,1,1.0013,1.0013,0,0,1-1,1h-10a1.0013,1.0013,0,0,1-1-1,1,1,0,0,0-1-1h-5a1,1,0,0,0-1,1V17H7.5a3.0033,3.0033,0,0,0-3,3V38a3.0033,3.0033,0,0,0,3,3h8v9a5.0059,5.0059,0,0,0,5,5h15v6a1,1,0,0,0,1,1h22a1,1,0,0,0,1-1V39.1421A10.927,10.927,0,0,0,56.2783,31.3643ZM7.5,19h32v2H6.5V20A1.0013,1.0013,0,0,1,7.5,19Zm25,34h-12a3.0033,3.0033,0,0,1-3-3V41H32.5425a1,1,0,0,0,0-2H7.5a1.0013,1.0013,0,0,1-1-1V29H33.5425a1,1,0,0,0,0-2H6.5V23h33v5a1,1,0,0,0,2,0V15a1,1,0,0,0-2,0v2h-18V8h3.1714A3.005,3.005,0,0,0,27.5,10h10a3.005,3.005,0,0,0,2.8286-2H43.5V32.7218l-2.207-2.2072a5.5,5.5,0,0,0-7.7784,7.7784l7.0225,7.0219A7.15,7.15,0,0,0,35.5,52.1362V53Z"/><path d="M14.5,31h-5a1,1,0,0,0-1,1v4a1,1,0,0,0,1,1h5a1,1,0,0,0,1-1V32A1,1,0,0,0,14.5,31Zm-1,4h-3V33h3Z"/><path d="M35.5,50a3,3,0,1,0-3,3A3.0033,3.0033,0,0,0,35.5,50Zm-3,1a1,1,0,1,1,1-1A1.0013,1.0013,0,0,1,32.5,51Z"/></g></svg>
