<svg id="Layer_2" height="512" viewBox="0 0 43.59 35" width="512" xmlns="http://www.w3.org/2000/svg"><g id="Layer_1-2"><g id="people"><path id="_" d="m1 35h-.01c-.55 0-.99-.46-.99-1.01.11-7.75 7.17-11.78 14.14-11.78h.13c6.67.05 13.85 3.74 13.85 11.74 0 .55-.45 1-1 1s-1-.45-1-1c0-6.63-6.15-9.7-11.87-9.74-.04 0-.08 0-.11 0-5.8 0-12.04 3.06-12.14 9.81 0 .55-.45.99-1 .99z"/><path id="_-2" d="m14.06 19.78c-5.42 0-9.83-4.44-9.83-9.89s4.41-9.89 9.83-9.89 9.83 4.44 9.83 9.89-4.41 9.89-9.83 9.89zm0-17.78c-4.32 0-7.83 3.54-7.83 7.89s3.51 7.89 7.83 7.89 7.83-3.54 7.83-7.89-3.51-7.89-7.83-7.89z"/><path id="_-3" d="m42.59 32.25c-.55 0-.99-.44-1-.99-.04-3.15-1.74-5-3.15-6.01-2.84-2.01-7.19-2.55-10.84-1.33-.52.18-1.09-.11-1.26-.63s.11-1.09.63-1.26c4.22-1.41 9.3-.77 12.63 1.6 2.57 1.82 3.95 4.46 3.99 7.61 0 .55-.43 1.01-.99 1.01z"/><path id="_-4" d="m40.08 11.23c0 4.62-3.74 8.38-8.34 8.38-2.23 0-4.32-.87-5.9-2.45-.39-.4-.38-1.03.01-1.42s1.02-.39 1.41 0c1.2 1.21 2.79 1.87 4.48 1.87 3.5 0 6.34-2.86 6.34-6.38s-2.84-6.39-6.34-6.39c-1.64 0-3.2.63-4.38 1.77-.4.38-1.03.37-1.41-.03-.39-.39-.37-1.03.02-1.41 1.56-1.5 3.61-2.33 5.77-2.33 4.6 0 8.34 3.76 8.34 8.39z"/></g></g></svg>