<?xml version="1.0" encoding="iso-8859-1"?>
<!-- Generator: Adobe Illustrator 19.0.0, SVG Export Plug-In . SVG Version: 6.00 Build 0)  -->
<svg version="1.1" id="Capa_1" xmlns="http://www.w3.org/2000/svg" xmlns:xlink="http://www.w3.org/1999/xlink" x="0px" y="0px"
	 viewBox="0 0 512 512" style="enable-background:new 0 0 512 512;" xml:space="preserve">
<g>
	<g>
		<path d="M435.2,93.871H298.667V68.267h76.8c4.717,0,8.533-3.821,8.533-8.533v-51.2C384,3.821,380.183,0,375.467,0h-85.333
			c-4.717,0-8.533,3.821-8.533,8.533v85.338H136.533c-47.05,0-85.333,38.279-85.333,85.333v187.729H8.533
			c-4.717,0-8.533,3.821-8.533,8.533S3.817,384,8.533,384H256v119.467c0,4.713,3.817,8.533,8.533,8.533h51.2
			c4.717,0,8.533-3.821,8.533-8.533V384H486.4c14.117,0,25.6-11.483,25.6-25.6V170.671C512,128.325,477.55,93.871,435.2,93.871z
			 M298.667,17.067h68.267V51.2h-68.267V17.067z M290.133,153.608c4.708,0,8.533,3.829,8.533,8.533s-3.825,8.533-8.533,8.533
			s-8.533-3.829-8.533-8.533S285.425,153.608,290.133,153.608z M204.8,366.933H68.267V179.204c0-37.642,30.625-68.267,68.267-68.267
			c37.642,0,68.267,30.625,68.267,68.267V366.933z M307.2,494.933h-34.133V384H307.2V494.933z M494.933,358.4
			c0,4.704-3.825,8.533-8.533,8.533H221.867V179.204c0-27.929-13.548-52.69-34.352-68.267H281.6v27.177
			c-9.911,3.534-17.067,12.918-17.067,24.028c0,14.117,11.483,25.6,25.6,25.6s25.6-11.483,25.6-25.6
			c0-11.11-7.155-20.494-17.067-24.028v-27.177H435.2c32.933,0,59.733,26.796,59.733,59.733V358.4z"/>
	</g>
</g>
<g>
</g>
<g>
</g>
<g>
</g>
<g>
</g>
<g>
</g>
<g>
</g>
<g>
</g>
<g>
</g>
<g>
</g>
<g>
</g>
<g>
</g>
<g>
</g>
<g>
</g>
<g>
</g>
<g>
</g>
</svg>
