<svg width="62" height="62" viewBox="0 0 62 62" fill="none" xmlns="http://www.w3.org/2000/svg">
<circle cx="31" cy="31" r="31" fill="white"/>
<circle cx="31" cy="31" r="30.5" stroke="#343434" stroke-opacity="0.25"/>
<path d="M20.9582 32.6134L37.8115 32.6134L32.739 37.6858C32.6475 37.7742 32.5745 37.88 32.5242 37.9969C32.474 38.1138 32.4476 38.2396 32.4465 38.3668C32.4454 38.4941 32.4696 38.6203 32.5178 38.7381C32.566 38.8558 32.6371 38.9628 32.7271 39.0528C32.8171 39.1428 32.9241 39.2139 33.0419 39.2621C33.1597 39.3103 33.2859 39.3346 33.4131 39.3335C33.5403 39.3324 33.6661 39.3059 33.783 39.2557C33.8999 39.2055 34.0057 39.1325 34.0941 39.0409L40.8024 32.3326C40.9821 32.1529 41.083 31.9092 41.083 31.6551C41.083 31.4009 40.9821 31.1572 40.8024 30.9775L34.0941 24.2692C33.9133 24.0946 33.6713 23.998 33.42 24.0002C33.1687 24.0024 32.9284 24.1032 32.7507 24.2809C32.573 24.4585 32.4722 24.6989 32.47 24.9502C32.4678 25.2014 32.5644 25.4435 32.739 25.6243L37.8115 30.6967L20.9582 30.6967C20.704 30.6967 20.4603 30.7977 20.2806 30.9774C20.1008 31.1571 19.9999 31.4009 19.9999 31.6551C19.9999 31.9092 20.1008 32.153 20.2806 32.3327C20.4603 32.5124 20.704 32.6134 20.9582 32.6134Z" fill="#343434"/>
</svg>
