<svg width="150" height="150" viewBox="0 0 150 150" fill="none" xmlns="http://www.w3.org/2000/svg">
<path d="M102.661 5H47.6787C43.787 5.00438 40.056 6.55229 37.3041 9.30412C34.5523 12.056 33.0044 15.787 33 19.6787V131.086C33.0044 134.978 34.5523 138.709 37.3041 141.461C40.056 144.212 43.787 145.76 47.6787 145.765H102.661C106.553 145.76 110.284 144.212 113.036 141.461C115.788 138.709 117.335 134.978 117.34 131.086V19.6787C117.335 15.787 115.788 12.056 113.036 9.30412C110.284 6.55229 106.553 5.00438 102.661 5ZM91.6951 10.2693V13.6747C91.6939 14.3626 91.42 15.0219 90.9335 15.5082C90.4469 15.9944 89.7875 16.2679 89.0996 16.2687H61.2478C60.5601 16.2679 59.9007 15.9944 59.4144 15.5081C58.9281 15.0218 58.6546 14.3624 58.6538 13.6747V10.2693H91.6951ZM112.069 131.086C112.066 133.581 111.074 135.972 109.31 137.736C107.546 139.5 105.154 140.493 102.66 140.495H47.6787C45.184 140.493 42.7923 139.5 41.0283 137.736C39.2643 135.972 38.2721 133.581 38.2693 131.086V19.6787C38.2721 17.184 39.2643 14.7923 41.0283 13.0283C42.7923 11.2643 45.184 10.2721 47.6787 10.2693H53.3785V13.6747C53.3809 15.7594 54.2101 17.7581 55.6842 19.2322C57.1584 20.7064 59.157 21.5356 61.2418 21.538H89.0936C91.1784 21.5356 93.1773 20.7064 94.6516 19.2323C96.126 17.7582 96.9555 15.7596 96.9583 13.6747V10.2693H102.661C105.156 10.2725 107.547 11.2649 109.311 13.0288C111.074 14.7928 112.066 17.1843 112.069 19.6787V131.086Z" fill="#002E61"/>
<path d="M91.3705 127.95H58.9706C58.2718 127.95 57.6017 128.228 57.1076 128.722C56.6135 129.216 56.3359 129.886 56.3359 130.585C56.3359 131.284 56.6135 131.954 57.1076 132.448C57.6017 132.942 58.2718 133.219 58.9706 133.219H91.3705C92.0693 133.219 92.7394 132.942 93.2335 132.448C93.7276 131.954 94.0052 131.284 94.0052 130.585C94.0052 129.886 93.7276 129.216 93.2335 128.722C92.7394 128.228 92.0693 127.95 91.3705 127.95Z" fill="#002E61"/>
</svg>
