<svg width="26" height="27" viewBox="0 0 26 27" fill="none" xmlns="http://www.w3.org/2000/svg">
<path d="M13 1.70618L14.9981 6.73078C15.3823 7.69687 16.4426 8.20749 17.4375 7.90551L22.6117 6.33493L19.9291 11.0299C19.4133 11.9326 19.6752 13.08 20.5316 13.6695L24.9856 16.7356L19.6423 17.5656C18.615 17.7252 17.8812 18.6453 17.9543 19.6824L18.3341 25.0763L14.3537 21.4163C13.5884 20.7126 12.4116 20.7126 11.6463 21.4163L7.66591 25.0763L8.04575 19.6824C8.11878 18.6453 7.38502 17.7252 6.35766 17.5656L1.01442 16.7356L5.46841 13.6695C6.32479 13.08 6.58666 11.9326 6.07088 11.0299L3.38831 6.33493L8.56251 7.90551C9.55737 8.20749 10.6177 7.69687 11.0019 6.73078L13 1.70618Z" stroke="#033750" stroke-width="2"/>
</svg>
