<?xml version="1.0" encoding="UTF-8"?>
<svg xmlns="http://www.w3.org/2000/svg" viewBox="0 0 64 64" width="512" height="512"><g id="_16-Stock_Market" data-name="16-Stock Market"><path d="M10,18V31a2.0023,2.0023,0,0,0,2,2h1v5a1,1,0,0,0,2,0V33h1a2.0023,2.0023,0,0,0,2-2V18a2.0023,2.0023,0,0,0-2-2H15V11a1,1,0,0,0-2,0v5H12A2.0023,2.0023,0,0,0,10,18Zm2,0h4l.001,13H12Zm22,0V31a2.0023,2.0023,0,0,0,2,2h1v5a1,1,0,0,0,2,0V33h1a2.0023,2.0023,0,0,0,2-2V18a2.0023,2.0023,0,0,0-2-2H39V11a1,1,0,0,0-2,0v5H36A2.0023,2.0023,0,0,0,34,18Zm2,0h4l.001,13H36ZM48,29h1v5a1,1,0,0,0,2,0V29h1a2.0023,2.0023,0,0,0,2-2V10a2.0023,2.0023,0,0,0-2-2H51V3a1,1,0,0,0-2,0V8H48a2.0023,2.0023,0,0,0-2,2V27A2.0023,2.0023,0,0,0,48,29Zm0-19h4l.001,17H48ZM28,47a1,1,0,0,1,1-1h6a1,1,0,0,1,0,2H29A1,1,0,0,1,28,47ZM57,12a1,1,0,0,0,0,2,3.0033,3.0033,0,0,1,3,3V42H4V17a3.0033,3.0033,0,0,1,3-3h3a1,1,0,0,0,0-2H7a5.0059,5.0059,0,0,0-5,5V47a5.0059,5.0059,0,0,0,5,5H25.8726a10.4291,10.4291,0,0,1-2.3091,4H23a3.0033,3.0033,0,0,0-3,3v2a1,1,0,0,0,1,1H43a1,1,0,0,0,1-1V59a3.0033,3.0033,0,0,0-3-3h-.5635a10.4291,10.4291,0,0,1-2.3091-4H57a5.0059,5.0059,0,0,0,5-5V17A5.0059,5.0059,0,0,0,57,12ZM41,58a1.0006,1.0006,0,0,1,1,1v1H22V59a1.0006,1.0006,0,0,1,1-1ZM26.1113,56a10.273,10.273,0,0,0,1.7934-4h8.1906a10.273,10.273,0,0,0,1.7934,4ZM60,47a3.0033,3.0033,0,0,1-3,3H7a3.0033,3.0033,0,0,1-3-3V44H60ZM24,29h1v5a1,1,0,0,0,2,0V29h1a2.0023,2.0023,0,0,0,2-2V10a2.0023,2.0023,0,0,0-2-2H27V3a1,1,0,0,0-2,0V8H24a2.0023,2.0023,0,0,0-2,2V27A2.0023,2.0023,0,0,0,24,29Zm0-19h4l.001,17H24Zm17,3a1,1,0,0,1,1-1h1a1,1,0,0,1,0,2H42A1,1,0,0,1,41,13Zm-9,0a1,1,0,0,1,1-1h1a1,1,0,0,1,0,2H33A1,1,0,0,1,32,13ZM17,13a1,1,0,0,1,1-1h1a1,1,0,0,1,0,2H18A1,1,0,0,1,17,13Z"/></g></svg>
