<svg clip-rule="evenodd" fill-rule="evenodd" height="512" stroke-linejoin="round" stroke-miterlimit="2" viewBox="0 0 513 512" width="512" xmlns="http://www.w3.org/2000/svg" xmlns:serif="http://www.serif.com/"><g><path d="m60.753 348.552h-2.078c-15.429 0-30.226-6.129-41.136-17.039s-17.039-25.707-17.039-41.136v-45.202c0-15.429 6.129-30.226 17.039-41.136s25.707-17.039 41.136-17.039h20.325v-.5c0-98.031 79.47-177.5 177.5-177.5 98.031 0 177.5 79.469 177.5 177.5v.5h20.325c15.429 0 30.226 6.129 41.136 17.039s17.039 25.707 17.039 41.136v45.202c0 15.429-6.129 30.226-17.039 41.136s-25.707 17.039-41.136 17.039h-28.182c-2.69 0-5.27-1.069-7.172-2.971s-2.971-4.482-2.971-7.172v-151.909c0-88.089-71.41-159.5-159.5-159.5-88.089 0-159.5 71.411-159.5 159.5v151.909c0 2.69-1.068 5.27-2.97 7.172-1.903 1.902-4.482 2.971-7.172 2.971h-8.104c.461 56.939 46.756 102.948 103.796 102.948h17.414c1.714-7.912 5.67-15.238 11.484-21.052 7.97-7.97 18.78-12.448 30.052-12.448h30c23.472 0 42.5 19.028 42.5 42.5s-19.028 42.5-42.5 42.5h-30c-20.383 0-37.415-14.349-41.545-33.5h-17.405c-66.986 0-121.342-54.075-121.797-120.948zm235.247 111.948c0-13.531-10.969-24.5-24.5-24.5h-30c-6.498 0-12.729 2.581-17.324 7.176s-7.176 10.826-7.176 17.324c0 13.531 10.969 24.5 24.5 24.5h30c13.531 0 24.5-10.969 24.5-24.5zm-217-255.5h-20.325c-10.655 0-20.874 4.233-28.408 11.767s-11.767 17.753-11.767 28.408v45.202c0 10.655 4.233 20.874 11.767 28.408s17.753 11.767 28.408 11.767h20.325zm355 0v125.552h20.325c10.655 0 20.874-4.233 28.408-11.767 7.535-7.534 11.767-17.753 11.767-28.408v-45.202c0-10.655-4.232-20.874-11.767-28.408-7.534-7.534-17.753-11.767-28.408-11.767z"/></g></svg>