<svg width="55" height="110" viewBox="0 0 55 110" fill="none" xmlns="http://www.w3.org/2000/svg">
<path d="M53.7556 39.3567C38.7795 56.1426 29.0677 76.9603 25.8279 99.2214L25.0176 104.759L28.3159 105.241L29.1262 99.704C32.2721 78.0878 41.7024 57.8732 56.2446 41.5735L53.7556 39.3567Z" fill="#002E61"/>
<path d="M100 48.3336H93.3333V30.0003C93.3335 28.4925 92.8225 27.0292 91.8838 25.8493C90.945 24.6694 89.634 23.8426 88.1647 23.5039C86.6954 23.1653 85.1548 23.3347 83.7942 23.9847C82.4337 24.6346 81.3337 25.7266 80.6739 27.0823C79.3727 25.8714 78.0014 24.7381 76.5671 23.6883C81.4326 20.3607 86.5536 17.4231 91.8824 14.903L89.2944 20.0788L92.2758 21.5697L97.8715 10.3789L86.6805 4.7832L85.1896 7.76456L92.0047 11.1721C85.5606 14.1048 79.4008 17.6256 73.6037 21.69C71.5661 20.4311 69.4312 19.337 67.2194 18.4181C70.0948 15.1802 71.6778 10.9973 71.6667 6.66695V5.00029H70C67.6666 4.99393 65.3551 5.45042 63.1993 6.34335C61.0436 7.23627 59.0863 8.5479 57.4408 10.2023L54.5986 13.0447L40.993 7.60242C40.0846 7.23836 39.0893 7.14918 38.1306 7.34594C37.1719 7.5427 36.2922 8.01674 35.6006 8.70919L30.5925 13.7175L36.5698 17.0382C28.8448 19.4555 21.9146 23.9111 16.5089 29.9358C11.1033 35.9606 7.42226 43.3315 5.85349 51.2723C4.28471 59.2132 4.88625 67.4301 7.59475 75.0579C10.3033 82.6856 15.0185 89.4419 21.2439 94.6151L23.3753 92.052C20.872 89.9702 18.6199 87.6036 16.6646 85.0003H16.9527C18.6444 84.9983 20.2662 84.3255 21.4624 83.1293C22.6586 81.9331 23.3314 80.3113 23.3333 78.6196C23.3322 78.2193 23.4105 77.8227 23.5637 77.4529C23.7169 77.083 23.942 76.7472 24.2259 76.4649L28.1313 72.5595C28.7256 71.9683 29.1968 71.2651 29.5176 70.4907C29.8383 69.7162 30.0023 68.8858 30 68.0476V66.953C30.0023 66.1147 29.8383 65.2843 29.5176 64.5099C29.1968 63.7354 28.7256 63.0322 28.1313 62.4411L26.1786 60.4883C24.981 59.2935 23.3584 58.6225 21.6667 58.6225C19.975 58.6225 18.3524 59.2935 17.1548 60.4883L16.8687 60.7744C16.5864 61.0583 16.2506 61.2833 15.8808 61.4365C15.5109 61.5897 15.1143 61.668 14.714 61.6669H8.37028C8.3483 61.1128 8.33335 60.5576 8.33335 60.0003C8.33395 58.329 8.43504 56.6594 8.63608 55.0003H14.7978C15.8267 55.0002 16.8325 54.6951 17.688 54.1235C18.5435 53.5519 19.2103 52.7394 19.604 51.7888C19.9977 50.8382 20.1008 49.7922 19.9001 48.7831C19.6993 47.774 19.2039 46.847 18.4764 46.1194L13.0743 40.7174C15.8657 35.3649 19.7871 30.6831 24.567 26.9962C29.3469 23.3092 34.871 20.7052 40.7568 19.3644L45.5924 22.0509L35 32.6433V37.5385L27.9319 34.7114L20.3676 42.2757L30.3845 46.2824L34.3913 56.2993L41.9556 48.735L39.1284 41.6669H44.0236L54.6161 31.0745L62.9494 46.0745L67.9577 41.0663C68.6503 40.3748 69.1244 39.4951 69.3211 38.5364C69.5179 37.5777 69.4287 36.5823 69.0645 35.6739L63.6222 22.0684L64.6905 21.0001C66.7542 21.7795 68.7523 22.7227 70.6657 23.8206C69.9917 24.3257 69.3224 24.8374 68.658 25.3557L70.7153 27.9782C71.6932 27.2111 72.6836 26.4609 73.6866 25.7276C75.963 27.3026 78.0778 29.0991 80 31.091V48.3336H73.3333C72.0077 48.3351 70.7368 48.8624 69.7995 49.7997C68.8621 50.7371 68.3348 52.008 68.3333 53.3336V93.3336C68.3326 94.5971 68.8122 95.8136 69.6749 96.7368C67.6413 97.8279 65.5201 98.7471 63.3333 99.4846V98.0475C63.3351 97.3907 63.2066 96.7399 62.9552 96.1331C62.7039 95.5262 62.3346 94.9752 61.8689 94.512L58.8216 91.4647C58.6663 91.3103 58.5432 91.1267 58.4594 90.9244C58.3756 90.7221 58.3327 90.5052 58.3333 90.2863V88.3336C58.3338 87.8917 58.5096 87.4681 58.822 87.1556C59.1345 86.8432 59.5581 86.6674 60 86.6669C61.3256 86.6654 62.5965 86.1381 63.5339 85.2008C64.4712 84.2634 64.9985 82.9925 65 81.6669V76.6669C64.9985 75.3413 64.4712 74.0704 63.5339 73.1331C62.5965 72.1957 61.3256 71.6684 60 71.6669H56.3806C55.7237 71.6651 55.073 71.7936 54.4662 72.045C53.8593 72.2964 53.3083 72.6656 52.8451 73.1314L44.7978 81.1786C44.6434 81.3339 44.4598 81.4571 44.2575 81.5409C44.0552 81.6247 43.8383 81.6675 43.6194 81.6669H41.6667C40.341 81.6684 39.0702 82.1957 38.1328 83.1331C37.1955 84.0704 36.6682 85.3413 36.6667 86.6669V90.2863C36.6649 90.9432 36.7934 91.5939 37.0448 92.2008C37.2961 92.8076 37.6654 93.3586 38.1311 93.8218L39.5117 95.2025C39.667 95.3568 39.7901 95.5405 39.874 95.7427C39.9578 95.945 40.0006 96.1619 40 96.3809V100.46C37.9437 99.9532 35.9294 99.2893 33.9748 98.4742L32.6919 101.551C39.2763 104.286 46.4155 105.421 53.5235 104.861C60.6315 104.302 67.5055 102.065 73.5811 98.3336H100C101.326 98.3321 102.596 97.8048 103.534 96.8674C104.471 95.9301 104.998 94.6592 105 93.3336V53.3336C104.998 52.008 104.471 50.7371 103.534 49.7997C102.596 48.8624 101.326 48.3351 100 48.3336ZM14.714 65.0003C15.5522 65.0026 16.3826 64.8386 17.1571 64.5178C17.9316 64.1971 18.6347 63.7259 19.2259 63.1316L19.5119 62.8455C19.7949 62.5625 20.1308 62.338 20.5005 62.1848C20.8702 62.0316 21.2665 61.9528 21.6667 61.9528C22.0669 61.9528 22.4631 62.0316 22.8329 62.1848C23.2026 62.338 23.5385 62.5625 23.8214 62.8455L25.7741 64.7982C26.058 65.0805 26.2831 65.4163 26.4363 65.7862C26.5895 66.1561 26.6678 66.5526 26.6667 66.953V68.0475C26.6678 68.4479 26.5895 68.8445 26.4363 69.2143C26.2831 69.5842 26.058 69.92 25.7741 70.2023L21.8687 74.1077C21.2744 74.6989 20.8032 75.402 20.4824 76.1765C20.1617 76.951 19.9977 77.7814 20 78.6196C19.9991 79.4275 19.6778 80.2021 19.1065 80.7734C18.5352 81.3447 17.7606 81.666 16.9527 81.6669H14.4002C11.3069 76.5885 9.34087 70.9046 8.63531 65.0003H14.714ZM16.1192 48.4766C16.3806 48.738 16.5586 49.071 16.6308 49.4335C16.7029 49.796 16.6659 50.1718 16.5245 50.5133C16.383 50.8548 16.1435 51.1467 15.8361 51.352C15.5288 51.5574 15.1674 51.667 14.7978 51.6669H9.17574C9.71821 49.0141 10.5189 46.4208 11.5665 43.9239L16.1192 48.4766ZM35.6087 50.3679L32.9488 43.7181L26.299 41.0582L28.7347 38.6225L35.3845 41.2824L38.0444 47.9322L35.6087 50.3679ZM64.1075 16.869L59.7111 21.2655L65.9696 36.9117C66.091 37.2145 66.1208 37.5463 66.0552 37.8659C65.9896 38.1855 65.8315 38.4787 65.6006 38.7092L63.7172 40.5927L55.3839 25.5927L42.643 38.3336H38.3333V34.0239L51.0742 21.283L41.3585 15.8854L41.3481 15.8316C41.327 15.8357 41.3061 15.8404 41.285 15.8446L36.0742 12.9497L37.9578 11.0664C38.1882 10.8355 38.4815 10.6774 38.8011 10.6118C39.1206 10.5462 39.4524 10.5759 39.7552 10.6973L55.4014 16.9559L59.798 12.5595C62.0652 10.2792 65.034 8.82842 68.2261 8.44084C67.8385 11.633 66.3877 14.6018 64.1075 16.869ZM60 100.455C54.546 101.795 48.8784 102.027 43.3333 101.136V96.3809C43.3351 95.724 43.2066 95.0733 42.9552 94.4664C42.7039 93.8595 42.3346 93.3085 41.8689 92.8453L40.4883 91.4647C40.333 91.3103 40.2099 91.1267 40.126 90.9244C40.0422 90.7222 39.9994 90.5052 40 90.2863V86.6669C40.0005 86.225 40.1763 85.8014 40.4887 85.489C40.8012 85.1765 41.2248 85.0008 41.6667 85.0003H43.6194C44.2763 85.002 44.927 84.8735 45.5338 84.6222C46.1407 84.3708 46.6917 84.0016 47.1549 83.5358L55.2022 75.4885C55.3566 75.3332 55.5402 75.2101 55.7425 75.1263C55.9448 75.0425 56.1617 74.9996 56.3806 75.0003H60C60.4419 75.0008 60.8655 75.1765 61.1779 75.489C61.4904 75.8014 61.6662 76.225 61.6667 76.6669V81.6669C61.6662 82.1088 61.4904 82.5324 61.1779 82.8449C60.8655 83.1573 60.4419 83.3331 60 83.3336C58.6744 83.3351 57.4035 83.8624 56.4661 84.7997C55.5288 85.7371 55.0015 87.008 55 88.3336V90.2863C54.9982 90.9432 55.1267 91.5939 55.3781 92.2008C55.6294 92.8076 55.9987 93.3586 56.4644 93.8218L59.5117 96.8691C59.667 97.0235 59.7901 97.2071 59.874 97.4094C59.9578 97.6117 60.0006 97.8286 60 98.0475V100.455ZM83.3333 30.0003C83.3333 29.1162 83.6845 28.2684 84.3096 27.6433C84.9347 27.0181 85.7826 26.6669 86.6666 26.6669C87.5507 26.6669 88.3986 27.0181 89.0237 27.6433C89.6488 28.2684 90 29.1162 90 30.0003V48.3336H83.3333V30.0003ZM101.667 93.3336C101.666 93.7755 101.49 94.1991 101.178 94.5115C100.865 94.824 100.442 94.9997 100 95.0002H73.3333C72.8914 94.9997 72.4678 94.824 72.1554 94.5115C71.8429 94.1991 71.6672 93.7755 71.6667 93.3336V53.3336C71.6672 52.8917 71.8429 52.4681 72.1554 52.1556C72.4678 51.8432 72.8914 51.6674 73.3333 51.6669H100C100.442 51.6674 100.865 51.8432 101.178 52.1556C101.49 52.4681 101.666 52.8917 101.667 53.3336V93.3336Z" fill="#002E61"/>
<path d="M51.666 56.6668V57.643L47.6422 61.6668C47.3317 61.9757 47.0856 62.343 46.9181 62.7476C46.7505 63.1521 46.6648 63.5859 46.666 64.0238V65.0002C46.667 65.8839 47.0186 66.7312 47.6435 67.3561C48.2684 67.981 49.1156 68.3325 49.9994 68.3335H54.309C54.7469 68.3347 55.1807 68.249 55.5853 68.0815C55.9899 67.9139 56.3572 67.6678 56.666 67.3573L59.023 65.0002H61.666C62.5498 64.9991 63.397 64.6476 64.0219 64.0227C64.6468 63.3978 64.9983 62.5506 64.9994 61.6668V56.6668C64.9983 55.7831 64.6468 54.9358 64.0219 54.3109C63.397 53.686 62.5498 53.3345 61.666 53.3335H54.9994C54.1156 53.3345 53.2684 53.686 52.6435 54.3109C52.0185 54.9358 51.667 55.7831 51.666 56.6668ZM54.9994 57.6432V56.6668H61.666V61.6668H59.023C58.5851 61.6656 58.1513 61.7513 57.7468 61.9189C57.3422 62.0864 56.9749 62.3325 56.666 62.643L54.309 65.0002H49.9994V64.024L54.0232 60.0002C54.3336 59.6913 54.5798 59.324 54.7473 58.9194C54.9149 58.5149 55.0005 58.0811 54.9994 57.6432Z" fill="#002E61"/>
</svg>
