<svg id="Layer_1" height="512" viewBox="0 0 64 64" width="512" xmlns="http://www.w3.org/2000/svg"><circle cx="32" cy="35" r="4"/><path d="m62 9h-60c-.55 0-1 .45-1 1v40c0 .55.45 1 1 1h14v3c0 .55.45 1 1 1h30c.55 0 1-.45 1-1v-3h14c.55 0 1-.45 1-1v-40c0-.55-.45-1-1-1zm-1 40h-13v-1c0-.55-.45-1-1-1h-8v-3c0-2.76-2.24-5-5-5h-4c-2.76 0-5 2.24-5 5v3h-8c-.55 0-1 .45-1 1v1h-13v-38h58z"/><path d="m6 44h1v3h2v-3h1c.55 0 1-.45 1-1v-10c0-.55-.45-1-1-1h-1v-3h-2v3h-1c-.55 0-1 .45-1 1v10c0 .55.45 1 1 1z"/><path d="m14 40h1v3h2v-3h1c.55 0 1-.45 1-1v-10c0-.55-.45-1-1-1h-1v-3h-2v3h-1c-.55 0-1 .45-1 1v10c0 .55.45 1 1 1z"/><path d="m23 31h1v3h2v-3h1c.55 0 1-.45 1-1v-10c0-.55-.45-1-1-1h-1v-3h-2v3h-1c-.55 0-1 .45-1 1v10c0 .55.45 1 1 1z"/><path d="m35 27h1v3h2v-3h1c.55 0 1-.45 1-1v-10c0-.55-.45-1-1-1h-1v-3h-2v3h-1c-.55 0-1 .45-1 1v10c0 .55.45 1 1 1z"/><path d="m46 32h1v3h2v-3h1c.55 0 1-.45 1-1v-10c0-.55-.45-1-1-1h-1v-3h-2v3h-1c-.55 0-1 .45-1 1v10c0 .55.45 1 1 1z"/><path d="m54 28h1v3h2v-3h1c.55 0 1-.45 1-1v-10c0-.55-.45-1-1-1h-1v-3h-2v3h-1c-.55 0-1 .45-1 1v10c0 .55.45 1 1 1z"/></svg>