<svg width="96" height="96" viewBox="0 0 96 96" fill="none" xmlns="http://www.w3.org/2000/svg">
<g clip-path="url(#clip0_190_34969)">
<path d="M27.2002 57.5991H14.4004V60.7991H27.2002V57.5991Z" fill="black"/>
<path d="M95.8311 76.0831L91.0312 66.4833C90.7602 65.9411 90.206 65.5989 89.6 65.5989H80.0002V60.7989C80.0002 59.9154 79.2838 59.199 78.4002 59.199H46.4008C45.5172 59.199 44.8008 59.9154 44.8008 60.7989V89.5985C44.8008 90.4821 45.5172 91.1984 46.4008 91.1984H53.0278C53.8942 94.6076 57.3604 96.6688 60.7693 95.8024C63.0317 95.2274 64.7982 93.4608 65.3732 91.1984H77.0274C77.8938 94.6076 81.36 96.6688 84.7689 95.8024C87.0313 95.2274 88.7978 93.4608 89.3728 91.1984H94.4C95.2835 91.1984 95.9999 90.4821 95.9999 89.5985V76.7987C95.9999 76.5503 95.9421 76.3053 95.8311 76.0831ZM59.2005 92.7984C57.4332 92.7984 56.0006 91.3658 56.0006 89.5985C56.0006 87.8311 57.4332 86.3985 59.2005 86.3985C60.9679 86.3985 62.4005 87.8311 62.4005 89.5985C62.3987 91.365 60.9671 92.7966 59.2005 92.7984ZM76.8002 87.9985H65.3732C64.6478 85.1801 62.1107 83.2074 59.2005 83.1986C56.2904 83.2074 53.7532 85.1801 53.0278 87.9985H48.0007V62.3989H76.8002V87.9985ZM86.4001 68.7988H88.611L91.8112 75.1987H86.4001V68.7988ZM83.2001 92.7984C81.4328 92.7984 80.0002 91.3658 80.0002 89.5985C80.0002 87.8311 81.4328 86.3985 83.2001 86.3985C84.9675 86.3985 86.4001 87.8311 86.4001 89.5985C86.3983 91.365 84.9667 92.7966 83.2001 92.7984ZM92.8 87.9985H89.3728C88.6474 85.1801 86.1103 83.2074 83.2001 83.1986C82.0732 83.205 80.9686 83.5124 80.0002 84.089V68.7988H83.2001V76.7987C83.2001 77.6823 83.9165 78.3987 84.8001 78.3987H92.8V87.9985Z" fill="black"/>
<path d="M38.3995 22.3997H35.2012V25.5996H38.3995V22.3997Z" fill="#002E61"/>
<path d="M44.798 22.3997H41.5996V25.5996H44.798V22.3997Z" fill="#002E61"/>
<path d="M51.1983 22.3997H48V25.5996H51.1983V22.3997Z" fill="#002E61"/>
<path d="M57.5987 22.3997H54.4004V25.5996H57.5987V22.3997Z" fill="#002E61"/>
<path d="M88.1378 26.7246L83.1809 21.7668C79.4955 18.0861 74.5036 16.0129 69.2951 15.9997H56.8861L49.3564 3.95233C49.0639 3.48454 48.5513 3.20015 47.9995 3.19995H43.1995C42.3156 3.20035 41.5992 3.91733 41.5996 4.80152C41.5996 4.93192 41.6156 5.06172 41.6472 5.18831L44.3501 15.9997H31.5903L27.1326 1.14058C26.9296 0.463592 26.3064 0 25.5998 0H17.6C16.7164 0 16 0.716388 16 1.59997V17.5997H16.015C16.0098 18.0221 16.173 18.4293 16.4688 18.7309L26.4686 28.7307C30.5944 32.8835 36.2099 35.2126 42.0636 35.1994H42.4994L38.5238 44.1501C38.1652 44.9575 38.529 45.9028 39.3364 46.2616C39.3834 46.2824 39.4312 46.301 39.48 46.3172L44.2767 47.9172C44.9487 48.141 45.6877 47.8966 46.0939 47.3164L54.5706 35.1994H84.6231C87.3638 35.2044 89.5896 32.9869 89.5948 30.2461C89.5972 28.9251 89.0728 27.6577 88.1378 26.7246ZM47.1127 6.39989L53.1126 15.9997H47.6489L45.2487 6.39989H47.1127ZM19.1999 3.19995H24.4093L28.2492 15.9997H19.1999V3.19995ZM44.1565 44.5039L42.1636 43.8391L47.4221 31.9995H52.904L44.1565 44.5039ZM86.2644 30.9027C85.9978 31.5735 85.3446 32.0099 84.6231 31.9995H56.8091L57.2867 31.3167C57.7931 30.5925 57.6165 29.5947 56.8923 29.0883C56.6235 28.9005 56.3037 28.7995 55.9757 28.7995H46.3821C45.7495 28.7995 45.1763 29.1721 44.9197 29.7503L43.9207 31.9995H42.0636C37.059 32.0105 32.2581 30.0187 28.731 26.4684L21.4623 19.1997H69.2951C72.7834 19.2147 76.1772 20.3351 78.9889 22.3996H67.1991V25.5996H82.4871L85.8792 28.9917C86.3916 29.4871 86.545 30.2475 86.2644 30.9027Z" fill="#002E61"/>
<path d="M39.2205 91.6227C38.2131 90.541 36.862 89.8416 35.397 89.6438L41.5065 72.5371C41.8033 71.7037 41.3683 70.7877 40.5349 70.4909C40.5253 70.4875 40.5155 70.4841 40.5057 70.4809L36.6042 69.1803L33.5738 52.5132C33.4356 51.7522 32.7728 51.1992 31.9996 51.1992H25.5997V46.3993C25.5997 45.5157 24.8834 44.7993 23.9998 44.7993H17.5999C16.7163 44.7993 15.9999 45.5157 15.9999 46.3993V51.1992H9.60001C8.82663 51.1992 8.16404 51.7524 8.02584 52.5132L4.99549 69.1803L1.09395 70.4809C0.254969 70.7615 -0.197424 71.6691 0.0831716 72.5079C0.0863716 72.5177 0.0897715 72.5273 0.0931714 72.5371L6.20267 89.6444C4.74009 89.8436 3.39132 90.5426 2.38533 91.6227C1.80634 92.3519 0.931158 92.7835 0.000172986 92.7985V95.9985C1.73394 95.9891 3.38492 95.2555 4.5541 93.9751C5.13309 93.2453 6.00867 92.8135 6.94006 92.7985C7.27805 92.7957 7.61345 92.8583 7.92784 92.9827C7.94124 92.9887 7.94984 93.0015 7.96344 93.0071C8.46523 93.2571 8.92083 93.5905 9.31102 93.9931C10.4922 95.2625 12.145 95.9881 13.8789 95.9985C15.6123 95.9889 17.2629 95.2549 18.4313 93.9743C19.4379 92.6595 21.3196 92.4095 22.6344 93.4159C22.844 93.5763 23.0316 93.7639 23.1922 93.9735C24.3594 95.2545 26.0091 95.9887 27.7421 95.9985C29.4751 95.9881 31.1267 95.2621 32.306 93.9923C32.6928 93.5927 33.1442 93.2609 33.6412 93.0111C33.6556 93.0051 33.6648 92.9915 33.6788 92.9851C33.994 92.8591 34.3306 92.7959 34.67 92.7987C35.5992 92.8137 36.4726 93.2453 37.049 93.9745C38.2167 95.2549 39.8667 95.9887 41.5995 95.9987V92.7987C40.6703 92.7835 39.7969 92.3519 39.2205 91.6227ZM19.1999 47.9993H22.3998V51.1992H19.1999V47.9993ZM19.1999 89.8072C18.0819 90.153 17.0705 90.7778 16.2609 91.6227C15.2517 92.9389 13.3666 93.1877 12.0504 92.1785C11.8416 92.0185 11.6548 91.8315 11.4946 91.6227C10.998 91.1375 10.4474 90.7108 9.85361 90.351L3.65631 72.9996L19.1999 67.8189V89.8072ZM20.2936 64.081L8.45763 68.0263L10.9352 54.3992H30.6645L33.142 68.0263L21.306 64.081C20.9774 63.9716 20.6222 63.9716 20.2936 64.081ZM31.7428 90.3614C31.1561 90.7196 30.6117 91.1429 30.1201 91.6235C29.1155 92.9369 27.2363 93.1871 25.9229 92.1825C25.7127 92.0217 25.5247 91.8337 25.364 91.6235C24.5496 90.77 23.5286 90.1412 22.4 89.7982V67.8189L37.9435 72.9996L31.7428 90.3614Z" fill="#002E61"/>
<path d="M63.9991 22.3997H60.8008V25.5996H63.9991V22.3997Z" fill="#002E61"/>
</g>
<defs>
<clipPath id="clip0_190_34969">
<rect width="96" height="96" fill="white"/>
</clipPath>
</defs>
</svg>
