<svg width="50" height="82"  fill="none" xmlns="http://www.w3.org/2000/svg">
<path d="M-47.7059 81.1475H-47.7288C-48.9906 81.1475 -50 80.0922 -50 78.8305C-49.7476 61.0512 -33.5513 51.8059 -17.5614 51.8059H-17.2631C-1.96146 51.9206 14.5102 60.3859 14.5102 78.7387C14.5102 80.0005 13.4779 81.0328 12.2161 81.0328C10.9543 81.0328 9.922 80.0005 9.922 78.7387C9.922 63.5288 -4.18674 56.4859 -17.309 56.3941C-17.4008 56.3941 -17.4925 56.3941 -17.5614 56.3941C-30.8672 56.3941 -45.1824 63.4141 -45.4118 78.8993C-45.4118 80.161 -46.4441 81.1704 -47.7059 81.1704V81.1475Z" fill="#002E61"/>
<path d="M-17.7439 46.2311C-30.1779 46.2311 -40.2949 36.0453 -40.2949 23.5424C-40.2949 11.0396 -30.1779 0.85376 -17.7439 0.85376C-5.30983 0.85376 4.80717 11.0396 4.80717 23.5424C4.80717 36.0453 -5.30983 46.2311 -17.7439 46.2311ZM-17.7439 5.44197C-27.6544 5.44197 -35.7067 13.5631 -35.7067 23.5424C-35.7067 33.5218 -27.6544 41.6429 -17.7439 41.6429C-7.83334 41.6429 0.21896 33.5218 0.21896 23.5424C0.21896 13.5631 -7.83334 5.44197 -17.7439 5.44197Z" fill="#002E61"/>
<path d="M47.7057 74.8386C46.4439 74.8386 45.4345 73.8292 45.4116 72.5675C45.3198 65.341 41.4198 61.0969 38.1851 58.7799C31.6699 54.1687 21.6905 52.9299 13.3171 55.7287C12.1241 56.1417 10.8165 55.4764 10.4265 54.2834C10.0365 53.0905 10.6788 51.7829 11.8718 51.3929C21.5529 48.1582 33.2069 49.6264 40.8463 55.0634C46.7421 59.2387 49.908 65.2951 49.9998 72.5216C49.9998 73.7833 49.0133 74.8386 47.7286 74.8386H47.7057Z" fill="#002E61"/>
<path d="M41.9469 26.6164C41.9469 37.2152 33.3669 45.841 22.814 45.841C17.6982 45.841 12.9035 43.8452 9.27881 40.2205C8.3841 39.3028 8.40705 37.8575 9.30175 36.9628C10.1964 36.0681 11.6417 36.0681 12.5364 36.9628C15.2894 39.7387 18.937 41.2528 22.814 41.2528C30.8434 41.2528 37.3586 34.6917 37.3586 26.6164C37.3586 18.5412 30.8434 11.9571 22.814 11.9571C19.0517 11.9571 15.4729 13.4024 12.7658 16.0177C11.8482 16.8894 10.4029 16.8665 9.53116 15.9488C8.63646 15.0541 8.68234 13.5859 9.57704 12.7142C13.1558 9.273 17.8588 7.3689 22.814 7.3689C33.3669 7.3689 41.9469 15.9947 41.9469 26.6164Z" fill="#002E61"/>
</svg>
