<svg width="161" height="161" viewBox="0 0 161 161" fill="none" xmlns="http://www.w3.org/2000/svg">
          <circle cx="80.5" cy="80.5" r="80.5" fill="white"/>
          <g clip-path="url(#clip0_0_1)">
          <path d="M106.456 91.5441C102.535 87.6232 97.8678 84.7205 92.7758 82.9634C98.2295 79.2072 101.812 72.9208 101.812 65.8125C101.812 54.3365 92.476 45 81 45C69.524 45 60.1875 54.3365 60.1875 65.8125C60.1875 72.9208 63.7705 79.2072 69.2243 82.9634C64.1323 84.7205 59.4653 87.6232 55.5442 91.5441C48.7447 98.3437 45 107.384 45 117H50.625C50.625 100.251 64.2511 86.625 81 86.625C97.7489 86.625 111.375 100.251 111.375 117H117C117 107.384 113.255 98.3437 106.456 91.5441ZM81 81C72.6256 81 65.8125 74.187 65.8125 65.8125C65.8125 57.438 72.6256 50.625 81 50.625C89.3744 50.625 96.1875 57.438 96.1875 65.8125C96.1875 74.187 89.3744 81 81 81Z" fill="#015184"/>
          </g>
          <defs>
          <clipPath id="clip0_0_1">
          <rect width="72" height="72" fill="white" transform="translate(45 45)"/>
          </clipPath>
          </defs>
</svg>