<svg width="8" height="14" viewBox="0 0 8 14" fill="none" xmlns="http://www.w3.org/2000/svg">
<path d="M2.22034 1.05393L7.7556 6.79114C7.833 6.87109 7.89442 6.96609 7.93632 7.0707C7.97823 7.1753 7.9998 7.28745 7.9998 7.40072C7.9998 7.51398 7.97823 7.62613 7.93632 7.73074C7.89442 7.83534 7.833 7.93035 7.7556 8.0103L2.22035 13.7475C2.06437 13.9092 1.85281 14 1.63222 14C1.41164 14 1.20008 13.9092 1.0441 13.7475C0.888125 13.5858 0.800497 13.3666 0.800497 13.1379C0.800497 12.9093 0.888125 12.69 1.0441 12.5283L5.99193 7.4L1.04341 2.27166C0.887433 2.10999 0.799804 1.89071 0.799804 1.66208C0.799804 1.43344 0.887433 1.21417 1.04341 1.0525C1.19939 0.890829 1.41094 0.800002 1.63153 0.800002C1.85212 0.800002 2.06367 0.890829 2.21965 1.0525L2.22034 1.05393Z" fill="#033750"/>
</svg>
