<svg id="Capa_1" enable-background="new 0 0 512 512" height="512" viewBox="0 0 512 512" width="512" xmlns="http://www.w3.org/2000/svg"><g><path d="m376.243 162.448c2.385 2.386 5.556 3.7 8.929 3.7s6.544-1.314 8.928-3.698l61.615-61.614c2.929-2.93 2.929-7.678 0-10.607-2.929-2.928-7.677-2.928-10.607 0l-59.936 59.936-19.581-19.582c-2.93-2.928-7.678-2.928-10.607 0-2.929 2.93-2.929 7.678 0 10.607zm118.257 238.052h-5v-211.046c3.199-1.945 6.165-4.407 8.221-7.962 3.49-6.033 2.908-12.821 2.395-18.811-.289-3.369-.587-6.853.021-9.132.559-2.089 2.497-4.849 4.371-7.519 3.512-5.002 7.492-10.671 7.492-17.88s-3.98-12.878-7.492-17.88c-1.874-2.67-3.813-5.43-4.37-7.518-.609-2.28-.312-5.765-.022-9.133.514-5.989 1.096-12.777-2.395-18.811-3.536-6.112-9.756-9.009-15.244-11.563-3.022-1.408-6.148-2.863-7.754-4.47-1.606-1.605-3.062-4.731-4.47-7.755-2.555-5.487-5.45-11.707-11.563-15.243-6.032-3.489-12.818-2.908-18.812-2.395-3.365.289-6.851.588-9.132-.021-2.089-.559-4.849-2.497-7.519-4.371-5.002-3.512-10.671-7.492-17.88-7.492s-12.878 3.98-17.88 7.492c-2.67 1.874-5.43 3.813-7.518 4.37-2.281.611-5.766.311-9.133.022-5.988-.514-12.776-1.097-18.811 2.395-6.112 3.536-9.008 9.756-11.563 15.243-1.408 3.023-2.863 6.149-4.469 7.755-2.118 2.118-7.006 4.074-10.405 5.723h-265.568c-20.678 0-37.5 16.822-37.5 37.5v298.5h-5c-9.649.002-17.5 7.853-17.5 17.502v35c0 20.678 16.822 37.5 37.5 37.5h437c20.678 0 37.5-16.822 37.5-37.5v-35c0-9.649-7.851-17.5-17.5-17.5zm-176.034-281.608c2.626-3.74 5.341-7.607 6.585-12.265 1.231-4.608.862-9.807.477-14.289-.341-3.968-.692-8.071.434-10.017 1.342-2.319 5.726-4.143 8.591-5.477 4.008-1.866 8.551-3.98 12.031-7.46 3.479-3.479 5.594-8.022 7.46-12.031 1.699-3.648 3.456-7.421 5.477-8.59 1.948-1.126 6.049-.774 10.018-.434 4.437.379 9.467.811 14.288-.477 4.656-1.244 8.523-3.959 12.263-6.585 3.339-2.345 6.792-4.769 9.261-4.769s5.922 2.424 9.261 4.769c3.739 2.626 7.606 5.341 12.264 6.586 4.82 1.288 9.851.855 14.288.476 3.968-.342 8.072-.693 10.018.434 2.021 1.169 3.777 4.941 5.477 8.59 1.866 4.009 3.981 8.552 7.46 12.031s8.022 5.594 12.03 7.46c3.648 1.699 7.422 3.456 8.592 5.478 1.125 1.945.773 6.049.433 10.017-.38 4.438-.812 9.47.477 14.289 1.244 4.656 3.959 8.523 6.585 12.263 2.345 3.339 4.769 6.792 4.769 9.261s-2.424 5.922-4.769 9.261c-2.626 3.739-5.341 7.606-6.586 12.264-1.287 4.818-.855 9.85-.476 14.287.341 3.969.692 8.071-.434 10.018-1.169 2.021-4.942 3.778-8.591 5.478-4.008 1.866-8.551 3.981-12.03 7.46s-5.594 8.022-7.46 12.03c-4.126 8.861-5.727 9.863-15.493 9.024-4.438-.381-9.471-.812-14.289.476-4.657 1.245-8.524 3.96-12.265 6.586-3.339 2.345-6.791 4.769-9.26 4.769s-5.921-2.424-9.26-4.769c-3.74-2.626-7.607-5.341-12.265-6.585-2.441-.653-4.938-.864-7.384-.864-2.382 0-4.716.2-6.905.388-3.967.34-8.07.693-10.016-.434-2.021-1.169-3.778-4.942-5.478-8.592-4.324-9.286-10.131-15.131-19.491-19.49-3.648-1.699-7.421-3.456-8.59-5.477-1.126-1.945-.774-6.048-.434-10.016.169-1.967.339-4.052.374-6.181.002-.101.008-.201.005-.301.025-2.582-.164-5.224-.854-7.807-1.245-4.657-3.96-8.524-6.586-12.265-2.345-3.339-4.769-6.791-4.769-9.26s2.422-5.922 4.767-9.26zm156.034 78.884v202.724h-15v-180.483c5.559-3.602 8.315-9.5 10.753-14.737 1.342-2.882 2.729-5.842 4.247-7.504zm-146.28-4.721c1.995.929 4.025 1.88 5.644 2.88 2.781 8.339 4.207 17.055 4.207 25.955 0 20.077-7.256 38.483-19.268 52.762-5.104-15.382-15.799-28.585-29.91-36.729 3.517-5.801 5.544-12.602 5.544-19.867v-11.8c0-21.194-17.242-38.437-38.437-38.437s-38.437 17.242-38.437 38.437v11.8c0 7.266 2.027 14.066 5.544 19.867-14.111 8.143-24.806 21.347-29.91 36.729-12.012-14.278-19.268-32.685-19.268-52.762 0-45.253 36.816-82.069 82.07-82.069 20.372 0 39.676 7.417 54.74 20.934-.512 6.796-1.636 14.043 2.236 20.738 3.538 6.111 9.757 9.007 15.245 11.562zm-94.575 56.238c6.304 4.524 14.021 7.199 22.355 7.199s16.051-2.675 22.355-7.199c14.697 7.175 25.252 21.211 28.035 37.313-13.92 10.865-31.405 17.364-50.39 17.364s-36.47-6.498-50.39-17.364c2.783-16.102 13.338-30.138 28.035-37.313zm-1.082-31.237v-11.8c0-12.923 10.514-23.437 23.437-23.437s23.437 10.514 23.437 23.437v11.8c0 12.923-10.514 23.437-23.437 23.437s-23.437-10.514-23.437-23.437zm-195.063-116.056c0-12.406 10.094-22.5 22.5-22.5h251.046c-1.343 4.99-.795 10.192-.39 15h-49.656c-4.143 0-7.5 3.357-7.5 7.5s3.357 7.5 7.5 7.5h45.73c-3.7 5.318-8.033 11.081-8.033 18.651 0 2.582.516 4.963 1.333 7.19-13.484-6.873-28.495-10.521-44.031-10.521-53.524 0-97.07 43.545-97.07 97.069 0 53.58 44.171 97.08 97.07 97.08 53.682 0 97.542-44.311 97.053-97.889 5.764 2.863 12.12 2.321 17.765 1.837 3.367-.288 6.853-.589 9.134.022 2.088.558 4.849 2.496 7.519 4.37 5.002 3.512 10.671 7.492 17.879 7.492s12.877-3.98 17.879-7.492c2.67-1.874 5.431-3.813 7.519-4.371 3.312-.886 9.604.133 13.754.312v177.25h-134.509c-9.649 0-17.5 7.851-17.5 17.5v13.579c0 1.379-1.121 2.5-2.5 2.5h-67.984c-1.379 0-2.5-1.121-2.5-2.5v-13.579c0-9.649-7.851-17.5-17.5-17.5h-134.508v-291h158.5c4.143 0 7.5-3.357 7.5-7.5s-3.357-7.5-7.5-7.5h-159c-7.995 0-14.5 6.505-14.5 14.5v291.5h-15zm459.5 351c0 12.406-10.094 22.5-22.5 22.5h-437c-12.406 0-22.5-10.094-22.5-22.5v-35c0-1.379 1.121-2.5 2.5-2.5h184.508c1.379 0 2.5 1.121 2.5 2.5v13.579c0 9.649 7.851 17.5 17.5 17.5h67.984c9.649 0 17.5-7.851 17.5-17.5v-13.579c0-1.379 1.121-2.5 2.5-2.5h184.508c1.379 0 2.5 1.121 2.5 2.5zm-345.63-100v15c0 9.649 7.851 17.5 17.5 17.5h42.345c4.143 0 7.5-3.357 7.5-7.5s-3.357-7.5-7.5-7.5h-42.345c-1.379 0-2.5-1.121-2.5-2.5v-15c0-1.379 1.121-2.5 2.5-2.5h174.26c1.379 0 2.5 1.121 2.5 2.5v15c0 1.379-1.121 2.5-2.5 2.5h-96.915c-4.143 0-7.5 3.357-7.5 7.5s3.357 7.5 7.5 7.5h96.915c9.649 0 17.5-7.851 17.5-17.5v-15c0-9.649-7.851-17.5-17.5-17.5h-174.26c-9.649 0-17.5 7.851-17.5 17.5z"/></g></svg>