<svg width="22" height="21" viewBox="0 0 22 21" fill="none" xmlns="http://www.w3.org/2000/svg">
<g clip-path="url(#clip0_707_559)">
<path d="M17.4077 2.80835H4.87445C2.59262 2.80835 0.736328 4.67059 0.736328 6.95921V13.9457C0.736328 16.2347 2.59262 18.0966 4.87445 18.0966H17.4077C19.6896 18.0966 21.5459 16.2343 21.5459 13.9457V6.95921C21.5459 4.67059 19.6896 2.80835 17.4077 2.80835ZM20.6965 13.9461C20.6965 15.7667 19.2211 17.2476 17.4077 17.2476H4.87445C3.06105 17.2476 1.5857 15.7663 1.5857 13.9461V6.95921C1.5857 5.13902 3.06105 3.65772 4.87445 3.65772H17.4077C19.2211 3.65772 20.6965 5.13902 20.6965 6.95921V13.9461Z" fill="#033750"/>
<path d="M14.904 10.2988L9.02001 6.85252C8.88921 6.77607 8.72655 6.7748 8.59448 6.85039C8.4624 6.92599 8.38086 7.06656 8.38086 7.21902V14.1112C8.38086 14.2633 8.4624 14.4042 8.59405 14.4798C8.65945 14.5172 8.7325 14.5359 8.80554 14.5359C8.87986 14.5359 8.95376 14.5164 9.02001 14.4777L14.904 11.0323C15.034 10.9562 15.1142 10.8165 15.1142 10.6658C15.1142 10.515 15.0344 10.3748 14.904 10.2988ZM9.23023 13.3701V7.95967L13.8491 10.6653L9.23023 13.3701Z" fill="#033750"/>
</g>
<defs>
<clipPath id="clip0_707_559">
<rect width="20.8095" height="20.8095" fill="white" transform="translate(0.736328 0.0478516)"/>
</clipPath>
</defs>
</svg>
